<?xml version="1.0" encoding="utf-8"?>
<!-- Generator: Adobe Illustrator 23.0.3, SVG Export Plug-In . SVG Version: 6.00 Build 0)  -->
<svg version="1.1" id="Capa_1" xmlns="http://www.w3.org/2000/svg" xmlns:xlink="http://www.w3.org/1999/xlink" x="0px" y="0px"
	 viewBox="0 0 623.3 110" style="enable-background:new 0 0 623.3 110;" xml:space="preserve">
<title>logo</title>
<desc>Created with Sketch.</desc>
<g id="Page-1">
	<g id="logo">
		<polygon id="Shape" points="227,20.6 221.6,34.1 238.7,77.5 204.7,77.5 192.9,108 203.8,108 211.9,87.5 242.7,87.5 250.8,108 
			261.9,108 		"/>
		<path id="Shape_1_" d="M163.7,83.3l-2.1,2.7c-6.3,8.1-16,13-26.2,12.7c-18.7,0-32.5-14.2-32.5-33.1s13.9-33.1,31.9-33.1
			c9.6,0,18.7,4.2,24.7,11.8l2.1,2.7l8.1-6.3l-2.4-2.4c-8.1-9.9-20.2-15.7-32.8-15.4C110.4,22.7,92,41.4,92,65.8
			c-0.3,11.5,4.2,22.6,12.1,30.7c9,8.7,21.4,13.3,33.8,12.4c12.4-0.9,24.1-6.9,31.9-16.6l2.1-2.7L163.7,83.3z"/>
		<rect id="Rectangle-path" x="409.3" y="23.6" width="10.5" height="84.7"/>
		<path id="Shape_2_" d="M522.6,83.3l-2.1,2.7c-6.3,8.1-16,13-26.2,12.7c-18.7,0-32.5-14.2-32.5-33.1s13.9-33.1,31.9-33.1
			c9.6,0,18.7,4.2,24.7,11.8l2.1,2.7l8.1-6.3l-2.4-2.7c-8.1-9.9-20.2-15.7-32.8-15.4c-24.1,0-42.5,18.7-42.5,43.1
			c-0.3,11.5,4.2,22.6,12.1,30.7c9,8.7,21.4,13.3,33.8,12.4c12.4-0.9,24.1-6.9,31.9-16.6l2.1-2.7L522.6,83.3z"/>
		<polygon id="Shape_3_" points="331.6,76.9 288.5,20.6 288.5,37.5 321,80.3 331.3,93.8 340,82.4 364.1,51.3 364.1,108 374.7,108 
			374.7,20.6 		"/>
		<polygon id="Shape_4_" points="288.5,66.4 288.5,108 299,108 299,80.3 		"/>
		<polygon id="Shape_5_" points="38.6,20.6 33.2,34.1 50.4,77.5 16.3,77.5 4.6,108 15.4,108 23.6,87.5 54.3,87.5 62.4,108 73.6,108 
					"/>
		<polygon id="Shape_6_" points="583.8,20.6 578.7,34.1 595.5,77.5 561.5,77.5 549.7,108 560.6,108 568.7,87.5 599.5,87.5 
			607.6,108 618.8,108 		"/>
		<polygon id="Shape_7_" points="243.3,1 235.4,14.3 229.4,14.3 234.5,1 		"/>
	</g>
</g>
</svg>
