<?xml version="1.0" encoding="utf-8"?>
<!-- Generator: Adobe Illustrator 24.0.1, SVG Export Plug-In . SVG Version: 6.00 Build 0)  -->
<svg version="1.1" id="Capa_1" xmlns="http://www.w3.org/2000/svg" xmlns:xlink="http://www.w3.org/1999/xlink" x="0px" y="0px"
	 viewBox="0 0 314.8 450.5" style="enable-background:new 0 0 314.8 450.5;" xml:space="preserve">
<style type="text/css">
	.st0{fill:none;stroke:#842183;stroke-width:10;stroke-miterlimit:10;}
	.st1{fill:#842183;}
	.st2{fill:#FFFFFF;}
	.st3{fill:none;}
</style>
<line class="st0" x1="6.2" y1="313.6" x2="311.5" y2="313.6"/>
<g>
	<path class="st1" d="M28.7,337.6h13.5c4.4,0,7.6,0.8,9.6,2.3c2,1.6,2.9,3.9,2.9,6.9c0,1.7-0.3,3.1-0.9,4.3c-0.6,1.2-1.6,2.1-3,2.8
		v0.1c1.8,0.5,3.1,1.4,4,2.7c0.9,1.3,1.4,3.1,1.4,5.5c0,3.2-1,5.7-3.1,7.4s-5.4,2.5-10,2.5H28.7V337.6z M43.5,351.1
		c1.2,0,2.1-0.2,2.7-0.7s0.8-1.2,0.8-2.1c0-1-0.3-1.7-0.8-2.2s-1.4-0.7-2.7-0.7h-6v5.8L43.5,351.1L43.5,351.1z M43.7,363.9
		c1.4,0,2.4-0.3,3-0.8s1-1.4,1-2.4s-0.3-1.7-0.9-2.2c-0.6-0.5-1.6-0.7-3.1-0.7h-6.3v6.1H43.7z"/>
	<path class="st1" d="M81.5,372.1l-1.7-6.2H68.4l-1.7,6.2h-9.5l11.1-34.5h11.6L91,372.1H81.5z M70.5,358.4h7.2l-3.5-12.7H74
		L70.5,358.4z"/>
	<path class="st1" d="M116.6,346.8c-1.2,0.7-2.2,1.7-2.8,3.1c-0.7,1.4-1,3.1-1,5.2s0.3,3.8,1,5.2c0.7,1.4,1.6,2.4,2.8,3.1
		s2.6,1,4.1,1c0.8,0,1.6-0.1,2.5-0.3V355h8.5v14.9c-1.8,0.9-3.6,1.5-5.5,2c-1.9,0.5-3.8,0.7-5.7,0.7c-3,0-5.8-0.6-8.3-1.9
		s-4.5-3.2-6-5.8s-2.2-5.9-2.2-9.8s0.7-7.2,2.2-9.8c1.5-2.6,3.5-4.5,6-5.8c2.5-1.2,5.2-1.9,8.3-1.9c1.9,0,3.8,0.2,5.7,0.7
		s3.8,1.1,5.5,2v9.7h-0.4c-1.8-1.4-3.6-2.4-5.4-3.1s-3.5-1-5.2-1C119.2,345.8,117.8,346.1,116.6,346.8z"/>
	<path class="st1" d="M138,372.1v-34.5h23.8v8.1h-15.1v5.3h14.2v7.6h-14.2v5.4h15.1v8.1H138L138,372.1z"/>
	<path class="st1" d="M167.9,372.1v-34.5h8.4l12.1,19.6h0.2v-19.6h8.7v34.5h-8.5l-12-19.3h-0.2v19.3H167.9z"/>
	<path class="st1" d="M203.9,337.6h11.4c3.7,0,6.9,0.7,9.4,2.1s4.4,3.4,5.7,6s1.9,5.7,1.9,9.2c0,3.6-0.6,6.7-1.9,9.3
		c-1.3,2.6-3.2,4.5-5.7,5.9s-5.6,2-9.4,2H204L203.9,337.6L203.9,337.6z M215.2,364.1c2.8,0,4.9-0.8,6.3-2.4c1.4-1.6,2.1-3.9,2.1-7
		c0-3-0.7-5.2-2.1-6.8c-1.4-1.5-3.5-2.3-6.3-2.3h-2.5V364L215.2,364.1L215.2,364.1z"/>
	<path class="st1" d="M236.8,372.1v-34.5h23.8v8.1h-15.1v5.3h14.2v7.6h-14.2v5.4h15.1v8.1H236.8L236.8,372.1z"/>
	<path class="st1" d="M285.5,372.1l-6.3-12.5h-3.9V372h-8.7v-34.5h12.6c4.6,0,8,1,10.2,3s3.4,4.9,3.4,8.5c0,2.3-0.4,4.3-1.3,5.8
		s-2.3,2.7-4.1,3.5l8.1,13.8L285.5,372.1L285.5,372.1z M275.4,353h3.9c1.8,0,3.1-0.4,3.9-1c0.7-0.7,1.1-1.7,1.1-2.9
		c0-0.9-0.2-1.6-0.5-2.1s-0.8-0.9-1.5-1.2s-1.7-0.4-3-0.4h-3.9V353L275.4,353z"/>
	<path class="st1" d="M85.9,420.5c-0.9,0-1.7-0.2-2.4-0.4v-7.9l1.2,0.1c0.2,0,0.5,0.1,1.1,0.1c0.6,0.1,1,0.1,1.4,0.1
		c0.8,0,1.3-0.1,1.7-0.2c0.4-0.1,0.7-0.5,1-1s0.4-1.4,0.4-2.6v-23.1H99v25c0,2-0.4,3.7-1.2,5.2c-0.8,1.5-2,2.7-3.6,3.5
		s-3.4,1.2-5.6,1.2C87.7,420.5,86.8,420.5,85.9,420.5z"/>
	<path class="st1" d="M125.2,420.1l-1.7-6.2h-11.4l-1.7,6.2H101l11.1-34.5h11.6l11.1,34.5H125.2z M114.2,406.4h7.2l-3.5-12.7h-0.2
		L114.2,406.4z"/>
	<path class="st1" d="M137.9,420.1v-34.5h12.3l7.1,22.6l7.1-22.6h12.4v34.5h-8.7v-22.4h-0.3l-6.9,22.4h-7.2l-6.9-22.4h-0.3v22.4
		H137.9z"/>
	<path class="st1" d="M213.7,404.3c-2.3,2.7-5.6,5.2-9.9,7.7h13.1v8.1h-22.8v-9.4c4.5-2.8,8-5.4,10.6-7.8s3.8-4.6,3.8-6.6
		c0-1-0.3-1.7-1-2.2s-1.5-0.7-2.6-0.7c-1.6,0-3.4,0.4-5.5,1.1s-3.9,1.6-5.3,2.5v-9.1c1.7-0.9,3.6-1.5,5.6-2.1c2-0.5,4-0.8,5.9-0.8
		c2.1,0,4.1,0.4,5.8,1c1.7,0.7,3.1,1.8,4.1,3.3s1.6,3.4,1.6,5.7C217.2,398.6,216,401.6,213.7,404.3z"/>
	<path class="st1" d="M225.9,418.3c-1.8-1.5-3.1-3.6-4-6.2c-0.9-2.7-1.3-5.8-1.3-9.3s0.4-6.7,1.3-9.3c0.9-2.6,2.2-4.7,4-6.2
		s4.1-2.2,6.8-2.2s5,0.7,6.9,2.2c1.8,1.5,3.2,3.6,4.1,6.2s1.3,5.8,1.3,9.3c0,3.6-0.4,6.7-1.3,9.3s-2.2,4.7-4.1,6.2
		c-1.8,1.5-4.1,2.2-6.9,2.2C229.9,420.5,227.7,419.8,225.9,418.3z M234.8,412.1c0.5-0.7,0.9-1.8,1.1-3.2c0.2-1.5,0.3-3.5,0.3-6.1
		c0-2.5-0.1-4.6-0.3-6c-0.2-1.5-0.6-2.5-1.1-3.2s-1.2-1-2.1-1c-0.9,0-1.7,0.3-2.2,1s-0.8,1.7-1,3.1s-0.3,3.5-0.3,6
		c0,2.6,0.1,4.7,0.3,6.2s0.5,2.5,1.1,3.2c0.5,0.7,1.2,1,2.1,1C233.5,413.1,234.2,412.8,234.8,412.1z"/>
</g>
<g>
	<path class="st1" d="M229.8,85.4c-16.8,0-30.5-13.7-30.5-30.5s13.7-30.5,30.5-30.5s30.5,13.7,30.5,30.5S246.7,85.4,229.8,85.4z
		 M229.8,34.4c-11.3,0-20.5,9.2-20.5,20.5s9.2,20.5,20.5,20.5s20.5-9.2,20.5-20.5S241.1,34.4,229.8,34.4z"/>
	<path class="st2" d="M229.8,34.4c-11.3,0-20.5,9.2-20.5,20.5s9.2,20.5,20.5,20.5s20.5-9.2,20.5-20.5S241.1,34.4,229.8,34.4z"/>
</g>
<path class="st1" d="M170.2,44v-4.8c0-5.5-4.5-10-10-10H43.7c-5.5,0-10,4.5-10,10v31.5c0,5.5,4.5,10,10,10h0.6
	C45,97,58.4,110,74.8,110s29.8-13,30.5-29.3h55c5.5,0,10-4.5,10-10v-3.2L193,56.2L170.2,44z M74.8,100c-10.9,0-19.8-8.6-20.5-19.3
	c0-0.4-0.1-0.8-0.1-1.2c0-3.4,0.8-6.5,2.3-9.3C59.9,63.6,66.8,59,74.8,59c7.9,0,14.8,4.6,18.3,11.2c1.4,2.8,2.3,6,2.3,9.3
	c0,0.4,0,0.8-0.1,1.2C94.6,91.4,85.7,100,74.8,100z M159.7,61v9.2h-55.8C99.9,57.9,88.4,49,74.8,49s-25.1,8.9-29.1,21.2h-1.4V39.8
	h115.4v10.5l10.3,5.5L159.7,61z"/>
<path class="st3" d="M164.2,168.9H136l6.5,24.2c2.8-2.1,5.4-4.7,7.8-7.8c1.1-1.4,2.9-1.9,4.5-1.4c1.7,0.5,2.8,2,2.9,3.7
	c0.1,2.3,1.3,22.6-5.4,32.2c-0.2,0.4-1,1.7-1.8,3.5l10.6,39l14.6-57.5c-7.3-10-11.7-22.1-11.7-35.1
	C164.2,169.4,164.2,169.2,164.2,168.9z"/>
<path class="st3" d="M212.5,192.1h54.9c4.1,0,7.7,1.6,10.1,4.2c5-7.8,8-16.9,8-26.7c0-25.6-19.6-47.1-46.7-51.2l-2.1-0.3l-6.7-9.2
	l-6.9,10.2l-2.2,0.3c-23,3.4-40.6,19.1-45.4,39.1h16.1c1.6,0,3.1,0.7,4.1,2s1.3,2.9,0.9,4.5l-9.6,37.8c3.5,3.9,7.6,7.4,12.2,10.2
	v-9.2C199.3,197.3,205.2,192.1,212.5,192.1z"/>
<polygon class="st3" points="102.2,136.6 80.5,136.6 75.6,128.8 70.4,136.6 47.4,136.6 47.4,199.1 102.2,199.1 "/>
<path class="st3" d="M144.9,201.7l2.5,9.4c1.2-3.7,1.8-8.4,2.1-12.8C147.9,199.7,146.4,200.8,144.9,201.7z"/>
<rect x="47.4" y="207.5" class="st3" width="54.8" height="28.5"/>
<path class="st3" d="M126.8,207.5L126.8,207.5h-14.5v29c0,5.2-4.2,9.4-9.4,9.4H46.8c-5.2,0-9.5-4.2-9.5-9.4v-25.8
	c-2.9,2.5-4.7,6.1-4.7,10.2v55.3c0,7.4,6,13.4,13.4,13.4h80.7c7.4,0,13.4-6,13.4-13.4V229c0-0.3,0-0.6,0.1-0.9
	c0.1-0.6,0.3-1.3,0.5-1.9l-5.4-20C131.1,207.5,127.9,207.5,126.8,207.5z"/>
<path class="st1" d="M136,168.9L136,168.9L136,168.9z"/>
<path class="st1" d="M280.6,208.8c9.3-10.7,14.9-24.3,14.9-39.2s-5.7-29.2-16-40.4c-9.6-10.5-22.8-17.7-37.2-20.3l-12.6-17.3
	l-12.5,18.3c-8.9,1.6-17.1,4.8-24.2,9.3c0-0.1,0-0.1,0-0.2c0-17.5-14.2-31.7-31.7-31.7s-31.7,14.2-31.7,31.7s14.2,31.7,31.7,31.7
	c2.2,0,4.3-0.2,6.3-0.6c-1,2.7-1.8,5.5-2.4,8.4h-36.1c-1.6,0-3.2,0.8-4.1,2c-1,1.3-1.3,3-0.9,4.5l8.9,33c-3.3,1-5.6,1-6,1
	c-0.1,0-0.2,0-0.3,0h-14.6v-63c0-5.2-4.2-9.4-9.5-9.4H86.7L75,114l-10.6,12.6H46.8c-5.2,0-9.5,4.2-9.5,9.4v64.9
	c-7.7,3.4-13.1,11-13.1,20v55.3c0,12,9.8,21.8,21.8,21.8h80.7c12,0,21.8-9.8,21.8-21.8V255l7.9,29.1c0.6,2.3,2.7,3.8,5,3.8l0,0
	c2.4,0,4.4-1.6,5-3.9l17.8-70c4.5,4.1,9.6,7.6,15.1,10.3V286c0,6.4,5.9,11.6,13.2,11.6h54.8l0,0c3.8,0,7.4-1.4,9.9-3.9
	c2.1-2.1,3.3-4.9,3.3-7.7v-13.6l12-9.7l-12-9.7v-44.2H280.6z M161.3,140.4c-11.8,0-21.3-9.6-21.3-21.3s9.6-21.3,21.3-21.3
	s21.3,9.6,21.3,21.3c0,4.8-1.6,9.2-4.3,12.8c-0.4,0.5-0.9,1-1.3,1.6C173.2,137.6,167.6,140.4,161.3,140.4z M47.4,207.5v-8.4v-62.5
	h23l5.3-7.8l4.8,7.8h21.7v62.5v8.4V236H47.4V207.5z M140.2,228.1c-0.1,0.3-0.1,0.6-0.1,0.9v47.2c0,7.4-6,13.4-13.4,13.4H46.1
	c-7.4,0-13.4-6-13.4-13.4v-55.3c0-4.1,1.8-7.8,4.7-10.2v25.8c0,5.2,4.2,9.4,9.5,9.4h55.9c5.2,0,9.4-4.2,9.4-9.4v-29h14.4h0.1
	c1.2,0,4.3,0,8.5-1.3c2.8-0.8,6.1-2.2,9.6-4.5c1.5-1,3-2.1,4.6-3.4c-0.2,4.4-0.8,9.1-2.1,12.8c-0.5,1.5-1.1,2.9-1.9,4
	c-0.1,0.1-0.1,0.2-0.2,0.3c-0.1,0.2-3.1,5.2-4.6,10.9C140.6,226.8,140.4,227.5,140.2,228.1z M179.3,191.2l-3.4,13.5l-14.6,57.5
	l-10.6-39c0.8-1.8,1.6-3.1,1.8-3.5c6.6-9.6,5.5-29.9,5.4-32.2c-0.1-1.7-1.3-3.2-2.9-3.7s-3.5,0.1-4.5,1.4c-2.4,3.1-5,5.7-7.8,7.8
	l-6.5-24.2h28.2h10h10.7L179.3,191.2z M270.6,267.8v18.3c0,0.2-0.2,0.5-0.4,0.6c-0.5,0.5-1.5,1-2.9,1l0,0h-54.9
	c-2,0-3.2-1.1-3.2-1.6v-57.7v-10.6v-14.1c0-0.6,1.2-1.6,3.2-1.6h54.9c2,0,3.2,1.1,3.2,1.6v1.1V218v39.9l6.1,4.9L270.6,267.8z
	 M277.5,196.3c-2.4-2.6-6.1-4.2-10.1-4.2h-54.9c-7.3,0-13.2,5.2-13.2,11.6v9.2c-4.6-2.8-8.7-6.2-12.2-10.2l9.6-37.8
	c0.4-1.6,0.1-3.2-0.9-4.5s-2.5-2-4.1-2h-16.1c1.4-5.9,4-11.4,7.4-16.3c2-1.9,3.8-4,5.2-6.3c8.2-8.5,19.6-14.5,32.8-16.4l2.2-0.3
	L230,109l6.7,9.2l2.1,0.3c27.1,4.1,46.7,25.6,46.7,51.2C285.5,179.4,282.6,188.5,277.5,196.3z"/>
<path class="st1" d="M267.9,404.3c-2.3,2.7-5.6,5.2-9.9,7.7h13.1v8.1h-22.8v-9.4c4.5-2.8,8-5.4,10.6-7.8c2.6-2.4,3.8-4.6,3.8-6.6
	c0-1-0.3-1.7-1-2.2s-1.5-0.7-2.6-0.7c-1.6,0-3.4,0.4-5.5,1.1s-3.9,1.6-5.3,2.5v-9.1c1.7-0.9,3.6-1.5,5.6-2.1c2-0.5,4-0.8,5.9-0.8
	c2.1,0,4.1,0.4,5.8,1c1.7,0.7,3.1,1.8,4.1,3.3s1.6,3.4,1.6,5.7C271.4,398.6,270.2,401.6,267.9,404.3z"/>
<path class="st1" d="M280.1,418.3c-1.8-1.5-3.1-3.6-4-6.2c-0.9-2.7-1.3-5.8-1.3-9.3s0.4-6.7,1.3-9.3c0.9-2.6,2.2-4.7,4-6.2
	c1.8-1.5,4.1-2.2,6.8-2.2s5,0.7,6.9,2.2c1.8,1.5,3.2,3.6,4.1,6.2s1.3,5.8,1.3,9.3c0,3.6-0.4,6.7-1.3,9.3s-2.2,4.7-4.1,6.2
	c-1.8,1.5-4.1,2.2-6.9,2.2C284.1,420.5,281.9,419.8,280.1,418.3z M289,412.1c0.5-0.7,0.9-1.8,1.1-3.2c0.2-1.5,0.3-3.5,0.3-6.1
	c0-2.5-0.1-4.6-0.3-6c-0.2-1.5-0.6-2.5-1.1-3.2s-1.2-1-2.1-1s-1.7,0.3-2.2,1s-0.8,1.7-1,3.1c-0.2,1.4-0.3,3.5-0.3,6
	c0,2.6,0.1,4.7,0.3,6.2c0.2,1.5,0.5,2.5,1.1,3.2c0.5,0.7,1.2,1,2.1,1C287.7,413.1,288.4,412.8,289,412.1z"/>
</svg>
