<?xml version="1.0" encoding="utf-8"?>
<!-- Generator: Adobe Illustrator 23.1.1, SVG Export Plug-In . SVG Version: 6.00 Build 0)  -->
<svg version="1.1" id="Capa_1" xmlns="http://www.w3.org/2000/svg" xmlns:xlink="http://www.w3.org/1999/xlink" x="0px" y="0px"
	 viewBox="0 0 148.7 213.1" style="enable-background:new 0 0 148.7 213.1;" xml:space="preserve">
<style type="text/css">
	.st0{fill:#428DCB;}
	.st1{fill:#428DCC;}
</style>
<path id="Path_43" class="st0" d="M13.2,159.8h6.4c1.6-0.1,3.2,0.3,4.5,1.1c1,0.8,1.5,2,1.4,3.3c0,0.7-0.1,1.4-0.4,2
	c-0.3,0.6-0.8,1.1-1.4,1.3v0c0.8,0.2,1.4,0.6,1.9,1.3c0.5,0.8,0.7,1.7,0.7,2.6c0.1,1.3-0.4,2.6-1.5,3.5c-0.9,0.8-2.6,1.2-4.7,1.2
	h-6.8V159.8z M20.1,166.2c0.5,0,0.9-0.1,1.3-0.3c0.3-0.3,0.4-0.6,0.4-1c0-0.4-0.1-0.8-0.4-1c-0.4-0.3-0.8-0.4-1.3-0.3h-2.8v2.7
	L20.1,166.2L20.1,166.2z M20.3,172.2c0.5,0,1-0.1,1.5-0.4c0.3-0.3,0.5-0.7,0.5-1.1c0-0.4-0.1-0.8-0.4-1c-0.4-0.2-1-0.4-1.5-0.3h-3
	v2.9H20.3z"/>
<path id="Path_44" class="st0" d="M38.1,176l-0.8-2.9h-5.4l-0.8,2.9h-4.4l5.2-16.3h5.5l5.2,16.3H38.1z M32.9,169.6h3.5l-1.7-6h-0.1
	L32.9,169.6z"/>
<path id="Path_45" class="st0" d="M54.7,164.1c-0.6,0.3-1,0.9-1.3,1.5c-0.6,1.6-0.6,3.3,0,4.9c0.3,0.6,0.7,1.1,1.3,1.5
	c0.6,0.3,1.3,0.5,1.9,0.5c0.4,0,0.8-0.1,1.2-0.1V168h4v7c-1.6,0.8-3.5,1.3-5.3,1.3c-1.4,0-2.7-0.3-3.9-0.9c-1.2-0.6-2.2-1.6-2.8-2.7
	c-1.4-2.9-1.4-6.3,0-9.3c0.6-1.2,1.6-2.1,2.8-2.7c1.2-0.6,2.6-0.9,3.9-0.9c0.9,0,1.8,0.1,2.7,0.3c0.9,0.2,1.8,0.5,2.6,0.9v4.6h-0.2
	c-0.8-0.6-1.6-1.1-2.6-1.5c-0.8-0.3-1.6-0.5-2.5-0.5C56,163.6,55.3,163.8,54.7,164.1z"/>
<path id="Path_46" class="st0" d="M67.3,175.3c-1.1-0.7-2.1-1.7-2.6-2.9c-1.2-2.8-1.2-6,0-8.9c0.6-1.2,1.5-2.2,2.6-2.9
	c1.2-0.7,2.6-1.1,4-1c1.4,0,2.8,0.3,4,1c1.2,0.7,2.1,1.7,2.6,2.9c1.3,2.8,1.3,6.1,0,8.9c-0.6,1.2-1.5,2.2-2.6,2.9
	c-1.2,0.7-2.6,1.1-4,1C69.9,176.3,68.6,176,67.3,175.3z M73.1,171.9c0.5-0.4,0.9-0.9,1.1-1.6c0.6-1.6,0.6-3.3,0-4.9
	c-0.2-0.6-0.6-1.2-1.1-1.6c-0.5-0.4-1.1-0.5-1.7-0.5c-0.6,0-1.2,0.2-1.7,0.5c-0.5,0.4-0.9,1-1.1,1.6c-0.3,0.8-0.4,1.6-0.4,2.5
	c0,0.8,0.1,1.7,0.4,2.5c0.2,0.6,0.6,1.2,1.1,1.6c0.5,0.4,1.1,0.6,1.7,0.5C71.9,172.5,72.6,172.3,73.1,171.9L73.1,171.9z"/>
<path id="Path_47" class="st0" d="M84.1,176l-5.2-16.3h4.4l3.4,12h0.1l3.4-12h4.4L89.5,176H84.1z"/>
<path id="Path_48" class="st0" d="M95,176.3c-0.4,0-0.8-0.1-1.1-0.2v-3.7l0.6,0c0.2,0,0.3,0,0.5,0c0.2,0,0.4,0.1,0.7,0
	c0.3,0,0.5,0,0.8-0.1c0.2,0,0.3-0.2,0.5-0.5c0.2-0.4,0.2-0.8,0.2-1.2v-10.9h4.2v11.8c0,0.9-0.2,1.7-0.6,2.5c-0.4,0.7-1,1.3-1.7,1.7
	c-0.8,0.4-1.7,0.6-2.6,0.6H95z"/>
<path id="Path_49" class="st0" d="M113.6,176l-0.8-2.9h-5.4l-0.8,2.9h-4.4l5.2-16.3h5.5l5.2,16.3H113.6z M108.4,169.6h3.4l-1.7-6
	h-0.1L108.4,169.6z"/>
<path id="Path_50" class="st0" d="M119.6,176v-16.3h5.8l3.4,10.7l3.4-10.7h5.8V176h-4.1v-10.6h-0.1l-3.3,10.6h-3.4l-3.3-10.6h-0.1
	V176H119.6z"/>
<rect id="Rectangle_5" x="2.9" y="146.1" class="st0" width="144.3" height="4.7"/>
<path id="Path_14576" class="st1" d="M101.2,187.2c0,1.6-0.6,3.2-1.6,4.4c-1.4,1.5-3,2.7-4.8,3.7h6.3v3.9H90.1v-4.5
	c1.8-1.1,3.5-2.3,5.1-3.7c1-0.8,1.7-1.9,1.8-3.2c0-0.4-0.1-0.8-0.5-1c-0.4-0.2-0.8-0.4-1.3-0.3c-0.9,0-1.8,0.2-2.6,0.5
	c-0.9,0.3-1.7,0.7-2.5,1.2v-4.4c0.9-0.4,1.8-0.8,2.7-1c0.9-0.2,1.9-0.4,2.8-0.4c1,0,1.9,0.2,2.8,0.5c0.8,0.3,1.5,0.9,2,1.6
	C101,185.2,101.2,186.2,101.2,187.2z M108.9,199.4c-1.2,0-2.3-0.3-3.2-1.1c-0.9-0.8-1.6-1.8-1.9-3c-0.4-1.5-0.7-3-0.6-4.5
	c0-1.5,0.2-3,0.6-4.5c0.3-1.2,1-2.2,1.9-3c0.9-0.7,2.1-1.1,3.3-1.1c1.2,0,2.4,0.3,3.3,1.1c0.9,0.8,1.6,1.8,2,3
	c0.5,1.4,0.7,3,0.6,4.5c0,1.5-0.2,3-0.6,4.5c-0.4,1.2-1,2.2-2,3C111.3,199,110.1,199.4,108.9,199.4z M108.9,195.8
	c0.4,0,0.8-0.2,1-0.5c0.3-0.5,0.5-1,0.5-1.6c0.1-1,0.2-1.9,0.1-2.9c0-1,0-1.9-0.1-2.9c0-0.5-0.2-1.1-0.5-1.5c-0.2-0.3-0.6-0.5-1-0.5
	c-0.4,0-0.8,0.2-1,0.5c-0.3,0.5-0.5,1-0.5,1.5c-0.1,1-0.2,1.9-0.1,2.9c0,1,0,2,0.1,3c0,0.5,0.2,1.1,0.5,1.5
	C108.1,195.6,108.5,195.8,108.9,195.8z M116.8,199.1v-3.9h3.1v-8.7l-3.1,2.5v-4.2l3.2-2.4h4.1v12.7h3.1v3.9H116.8z M133.7,182.3
	c1.1,0,2.2,0.3,3.1,0.9c0.9,0.6,1.7,1.5,2.2,2.5c0.5,1.1,0.8,2.4,0.8,3.7c0,1.9-0.5,3.8-1.5,5.4c-0.9,1.6-2.1,3-3.4,4.3h-5.2V199
	c0.8-0.6,1.6-1.1,2.2-1.6c0.6-0.5,1.2-1.1,1.7-1.8c0.6-0.7,1-1.5,1.3-2.3c-0.7,0.3-1.4,0.5-2.1,0.5c-0.9,0-1.8-0.2-2.5-0.6
	c-0.8-0.4-1.4-1-1.8-1.8c-0.5-0.9-0.7-1.9-0.7-2.9c0-1.1,0.2-2.3,0.8-3.3c0.5-0.9,1.2-1.6,2.1-2.1
	C131.7,182.6,132.7,182.3,133.7,182.3z M131.9,188.6c0,0.6,0.2,1.3,0.5,1.8c0.4,0.4,0.9,0.6,1.4,0.6c0.5,0,1-0.2,1.4-0.6
	c0.4-0.5,0.6-1.2,0.5-1.8c0-0.7-0.1-1.3-0.5-1.9c-0.3-0.4-0.8-0.7-1.4-0.6c-0.6,0-1.1,0.2-1.4,0.7
	C132.1,187.2,131.9,187.9,131.9,188.6L131.9,188.6z"/>
<path class="st1" d="M132.9,82.6c0-15.9-16.6-28.8-37-28.8c-1.8,0-3.6,0.1-5.4,0.3c-2.9-4.4-7.3-8.2-12.6-10.9l-1.1-11.7l0-0.6
	l-9.6-15.8L57.5,31l-0.7,7.5c-20.6,0.1-37.2,13-37.2,28.8c0,4.9,1.6,9.6,4.4,13.6l-8.2,9.8h19.4c5.1,2.8,10.7,4.5,16.4,5.1L47.8,138
	h38.8L84,109.8c3.8,1,7.8,1.6,12,1.6c7.7,0.1,15.3-1.9,22-5.7h14.2l-3.2-10.1C131.5,91.8,132.9,87.2,132.9,82.6z M85.4,55
	c-2.2,0.5-4.3,1.2-6.2,2l-0.7-8C81.2,50.7,83.5,52.7,85.4,55z M37.1,86.2l-0.6-0.3H25.9l4.2-4.9l-1.2-1.5c-2.9-3.4-4.5-7.7-4.5-12.2
	c0-13.1,14.4-23.8,32.1-24L52.1,91C46.8,90.4,41.7,88.7,37.1,86.2z M81.4,133.2H52.9l9.2-100.7l5.1-8.3l5.1,8.3l2.4,26.6
	C65.2,64.3,59,72.9,59,82.6c0,11.2,8.2,20.8,20.1,25.6L81.4,133.2z M125.7,101h-9l-0.6,0.3c-6.1,3.6-13.1,5.4-20.2,5.3
	c-17.8,0-32.2-10.8-32.2-24.1c0-13.3,14.5-24.1,32.2-24.1c17.8,0,32.2,10.8,32.2,24.1c0,4.1-1.3,8-3.7,11.2l-0.7,0.9L125.7,101z"/>
</svg>
