<svg xmlns="http://www.w3.org/2000/svg" viewBox="0 0 148.728 213.096">
  <defs>
    <style>
      .cls-1 {
        fill: #428dcc;
      }

      .cls-2 {
        fill: #f0f0f0;
      }

      .cls-3 {
        fill: #428dcb;
      }
    </style>
  </defs>
  <g id="bagovjamlogo" transform="translate(-1304 -686.867)">
    <path id="Path_35" data-name="Path 35" class="cls-1" d="M148.728,23.063v166.97A23.094,23.094,0,0,1,125.665,213.1H23.063A23.125,23.125,0,0,1,0,190.033V23.063A23.094,23.094,0,0,1,23.063,0H125.712A23.084,23.084,0,0,1,148.728,23.063Z" transform="translate(1304 686.867)"/>
    <path id="Path_36" data-name="Path 36" class="cls-2" d="M149.331,28.864v166.97A17.911,17.911,0,0,1,131.466,213.7H28.864A17.911,17.911,0,0,1,11,195.835V28.864A17.911,17.911,0,0,1,28.864,11H131.513A17.9,17.9,0,0,1,149.331,28.864Z" transform="translate(1298.199 681.066)"/>
    <path id="Path_37" data-name="Path 37" class="cls-2" d="M80.349,86.2c-19.424,0-35.162,11.815-35.162,26.418a21.583,21.583,0,0,0,5.057,13.658L44.1,133.649H59.034A42.767,42.767,0,0,0,80.3,139.037c19.424,0,35.162-11.815,35.162-26.418S99.772,86.2,80.349,86.2Z" transform="translate(1280.742 641.406)"/>
    <path id="Path_38" data-name="Path 38" class="cls-1" d="M74.758,138.816a45.07,45.07,0,0,1-21.881-5.388H33.5l8.176-9.783a23.768,23.768,0,0,1-4.4-13.564C37.281,94.2,54.105,81.3,74.805,81.3s37.525,12.9,37.525,28.781S95.458,138.816,74.758,138.816ZM43.614,128.7H54.153l.567.331a40.652,40.652,0,0,0,20.086,5.1c18.053,0,32.8-10.775,32.8-24.055s-14.7-24.055-32.8-24.055c-18.053,0-32.8,10.775-32.8,24.055a19.327,19.327,0,0,0,4.537,12.193l1.229,1.512Z" transform="translate(1286.332 643.99)"/>
    <path id="Path_39" data-name="Path 39" class="cls-2" d="M140.1,157.582H106.5l.851-9.452.945-11.106.9-10.255,6.758-73.017L123.325,41.7l7.325,12.051Z" transform="translate(1247.832 664.875)"/>
    <path id="Path_40" data-name="Path 40" class="cls-1" d="M139.853,154.882H101.1l9.736-107L120.477,32.1l9.641,15.785.047.567Zm-33.6-4.726H134.7L125.534,49.444l-5.057-8.271-5.057,8.271Z" transform="translate(1250.68 669.938)"/>
    <path id="Path_41" data-name="Path 41" class="cls-2" d="M194.783,157.937a21.408,21.408,0,0,0,4.206-12.618c0-14.6-15.5-26.418-34.594-26.418S129.8,130.715,129.8,145.318s15.5,26.418,34.594,26.418a41.732,41.732,0,0,0,21.409-5.671h11.579Z" transform="translate(1235.544 624.16)"/>
    <path id="Path_42" data-name="Path 42" class="cls-1" d="M161.757,171.463c-20.369,0-36.957-12.9-36.957-28.781S141.388,113.9,161.757,113.9s36.957,12.9,36.957,28.781a23.826,23.826,0,0,1-3.97,13l3.214,10.114H183.781A43.533,43.533,0,0,1,161.757,171.463Zm0-52.837c-17.77,0-32.231,10.775-32.231,24.055s14.462,24.055,32.231,24.055a38.873,38.873,0,0,0,20.18-5.34l.567-.331h9.027l-1.985-6.191.709-.945a19,19,0,0,0,3.734-11.248C193.989,129.449,179.527,118.626,161.757,118.626Z" transform="translate(1238.181 626.797)"/>
    <path id="Path_43" data-name="Path 43" class="cls-3" d="M27.9,338.1h6.38a7.622,7.622,0,0,1,4.537,1.087,3.9,3.9,0,0,1,1.371,3.261,4.453,4.453,0,0,1-.425,2.032,2.986,2.986,0,0,1-1.418,1.323v.047a3.242,3.242,0,0,1,1.89,1.276,4.486,4.486,0,0,1,.662,2.6,4.087,4.087,0,0,1-1.465,3.45c-.945.8-2.552,1.182-4.726,1.182H27.9Zm6.947,6.38a1.96,1.96,0,0,0,1.276-.331,1.191,1.191,0,0,0,.378-.992,1.393,1.393,0,0,0-.378-1.04,1.878,1.878,0,0,0-1.276-.331H32.012v2.741h2.836Zm.142,6a2.469,2.469,0,0,0,1.465-.378,1.565,1.565,0,0,0,.473-1.134,1.255,1.255,0,0,0-.425-1.04,2.666,2.666,0,0,0-1.465-.331H32.059v2.883Z" transform="translate(1289.286 508.554)"/>
    <path id="Path_44" data-name="Path 44" class="cls-3" d="M67.937,354.3l-.8-2.93H61.746l-.8,2.93H56.5L61.746,338h5.482l5.246,16.3Zm-5.2-6.427h3.45l-1.654-6H64.44Z" transform="translate(1274.202 508.607)"/>
    <path id="Path_45" data-name="Path 45" class="cls-3" d="M109.155,342.4a3.343,3.343,0,0,0-1.323,1.465,6.626,6.626,0,0,0,0,4.915,3.343,3.343,0,0,0,1.323,1.465,3.8,3.8,0,0,0,1.938.473,5.362,5.362,0,0,0,1.182-.142v-4.348h4.017v7.042A12.119,12.119,0,0,1,111,354.541a8.4,8.4,0,0,1-3.923-.9,6.6,6.6,0,0,1-2.836-2.741,10.836,10.836,0,0,1,0-9.263,6.6,6.6,0,0,1,2.836-2.741A8.87,8.87,0,0,1,111,338a10.511,10.511,0,0,1,2.694.331,10.071,10.071,0,0,1,2.6.945v4.584H116.1a10.1,10.1,0,0,0-2.552-1.465,6.659,6.659,0,0,0-2.458-.473A3.8,3.8,0,0,0,109.155,342.4Z" transform="translate(1249.573 508.607)"/>
    <path id="Path_46" data-name="Path 46" class="cls-3" d="M138.6,353.285a6.566,6.566,0,0,1-2.6-2.93,11.438,11.438,0,0,1,0-8.885,6.825,6.825,0,0,1,2.6-2.93,7.757,7.757,0,0,1,3.97-1.04,7.321,7.321,0,0,1,3.97,1.04,6.662,6.662,0,0,1,2.647,2.93,10.912,10.912,0,0,1,0,8.885,6.927,6.927,0,0,1-2.647,2.93,7.757,7.757,0,0,1-3.97,1.04A8.252,8.252,0,0,1,138.6,353.285Zm5.718-3.355a3.527,3.527,0,0,0,1.134-1.56,7.312,7.312,0,0,0,0-4.915,3.62,3.62,0,0,0-1.134-1.56,2.829,2.829,0,0,0-1.749-.52,3.169,3.169,0,0,0-1.749.52,3.93,3.93,0,0,0-1.134,1.56,6.4,6.4,0,0,0-.378,2.458,7.46,7.46,0,0,0,.378,2.458,3.62,3.62,0,0,0,1.134,1.56,2.741,2.741,0,0,0,1.749.52A2.42,2.42,0,0,0,144.316,349.929Z" transform="translate(1232.748 508.871)"/>
    <path id="Path_47" data-name="Path 47" class="cls-3" d="M172.146,354.3,166.9,338h4.442l3.4,12h.095l3.45-12h4.442l-5.246,16.3Z" transform="translate(1215.977 508.607)"/>
    <path id="Path_48" data-name="Path 48" class="cls-3" d="M199.834,354.594a4.062,4.062,0,0,1-1.134-.189v-3.734l.567.047a4.921,4.921,0,0,0,.52.047,3.6,3.6,0,0,0,.662.047,3.393,3.393,0,0,0,.8-.095c.189-.047.331-.236.473-.473a2.779,2.779,0,0,0,.189-1.229V338.1h4.159v11.815a5.1,5.1,0,0,1-.567,2.458,3.841,3.841,0,0,1-1.7,1.654,5.755,5.755,0,0,1-2.647.567Z" transform="translate(1199.206 508.554)"/>
    <path id="Path_49" data-name="Path 49" class="cls-3" d="M227.637,354.3l-.8-2.93h-5.388l-.8,2.93H216.2l5.246-16.3h5.482l5.246,16.3Zm-5.246-6.427h3.45l-1.654-6h-.095Z" transform="translate(1189.976 508.607)"/>
    <path id="Path_50" data-name="Path 50" class="cls-3" d="M253.1,354.3V338h5.813l3.355,10.681,3.4-10.681h5.813v16.3h-4.112V343.719h-.142L263.97,354.3h-3.4l-3.261-10.586h-.142V354.3Z" transform="translate(1170.516 508.607)"/>
    <rect id="Rectangle_5" data-name="Rectangle 5" class="cls-3" width="144.285" height="4.726" transform="translate(1306.883 832.949)"/>
    <path id="Path_14576" data-name="Path 14576" class="cls-1" d="M12.188-11.953a6.533,6.533,0,0,1-1.646,4.371A17.771,17.771,0,0,1,5.777-3.891H12.07V0H1.148V-4.512A31.582,31.582,0,0,0,6.223-8.244a4.749,4.749,0,0,0,1.84-3.182A1.193,1.193,0,0,0,7.6-12.463,2.114,2.114,0,0,0,6.34-12.8a8.078,8.078,0,0,0-2.643.533,12.424,12.424,0,0,0-2.549,1.2v-4.371a13.326,13.326,0,0,1,2.684-1A11.326,11.326,0,0,1,6.668-16.8a7.373,7.373,0,0,1,2.783.5,4.31,4.31,0,0,1,1.992,1.594A4.777,4.777,0,0,1,12.188-11.953ZM19.934.234A4.934,4.934,0,0,1,16.688-.838,6.291,6.291,0,0,1,14.76-3.826a14.441,14.441,0,0,1-.627-4.482,14.51,14.51,0,0,1,.621-4.477,6.217,6.217,0,0,1,1.922-2.977,4.969,4.969,0,0,1,3.258-1.066,5.064,5.064,0,0,1,3.293,1.072A6.323,6.323,0,0,1,25.2-12.773a13.979,13.979,0,0,1,.645,4.465A14.2,14.2,0,0,1,25.2-3.826,6.285,6.285,0,0,1,23.238-.838,5.082,5.082,0,0,1,19.934.234Zm0-3.574a1.194,1.194,0,0,0,1.02-.492,3.42,3.42,0,0,0,.5-1.553A23.513,23.513,0,0,0,21.6-8.309a22.059,22.059,0,0,0-.146-2.889,3.357,3.357,0,0,0-.5-1.523,1.194,1.194,0,0,0-1.014-.475,1.219,1.219,0,0,0-1.037.475,3.285,3.285,0,0,0-.5,1.506,22.9,22.9,0,0,0-.141,2.906A23.889,23.889,0,0,0,18.4-5.35a3.287,3.287,0,0,0,.5,1.535A1.222,1.222,0,0,0,19.934-3.34ZM27.785,0V-3.891h3.141v-8.66l-3.141,2.52V-14.2l3.164-2.355h4.09V-3.891h3.117V0ZM44.73-16.8a5.593,5.593,0,0,1,3.141.908,6.088,6.088,0,0,1,2.156,2.52A8.36,8.36,0,0,1,50.8-9.715a10.574,10.574,0,0,1-1.465,5.449A18.407,18.407,0,0,1,45.949,0H40.793V-.141q1.254-.867,2.168-1.641a12.563,12.563,0,0,0,1.723-1.793,9.515,9.515,0,0,0,1.336-2.3A4.47,4.47,0,0,1,43.91-5.4a5.468,5.468,0,0,1-2.543-.586,4.324,4.324,0,0,1-1.8-1.77,5.81,5.81,0,0,1-.668-2.895,6.563,6.563,0,0,1,.785-3.264,5.45,5.45,0,0,1,2.115-2.145A5.909,5.909,0,0,1,44.73-16.8Zm-1.8,6.246a2.658,2.658,0,0,0,.545,1.8,1.83,1.83,0,0,0,1.447.621,1.708,1.708,0,0,0,1.389-.615,2.821,2.821,0,0,0,.51-1.834,2.922,2.922,0,0,0-.521-1.875,1.684,1.684,0,0,0-1.377-.645,1.8,1.8,0,0,0-1.43.656A2.819,2.819,0,0,0,42.926-10.559Z" transform="translate(1393 886)"/>
  </g>
</svg>
