<svg id="Group_2" data-name="Group 2" xmlns="http://www.w3.org/2000/svg" viewBox="0 0 155.625 155.625">
  <defs>
    <style>
      .cls-1 {
        fill: #fff;
      }
    </style>
  </defs>
  <ellipse id="Ellipse_1" data-name="Ellipse 1" cx="77.812" cy="77.812" rx="77.812" ry="77.812"/>
  <g id="Group_1" data-name="Group 1" transform="translate(11.814 11.814)">
    <ellipse id="Ellipse_2" data-name="Ellipse 2" class="cls-1" cx="62.739" cy="62.739" rx="62.739" ry="62.739" transform="translate(3.259 3.259)"/>
    <path id="Path_1" data-name="Path 1" d="M327.133,352.993c.041-1.181-.367-1.752-1.426-1.793-1.059,0-1.467.57-1.507,1.711v.407l2.933.041Z" transform="translate(-243.902 -259.903)"/>
    <path id="Path_2" data-name="Path 2" d="M283.6,388.947a1.168,1.168,0,0,0,1.3,1.181,1.691,1.691,0,0,0,1.63-.978V387.2C285.189,387.154,283.6,387.48,283.6,388.947Z" transform="translate(-219.843 -281.232)"/>
    <path id="Path_3" data-name="Path 3" d="M263.433,353.052c0-1.181-.407-1.752-1.467-1.752s-1.467.57-1.467,1.752v.407h2.933Z" transform="translate(-206.153 -259.962)"/>
    <path id="Path_4" data-name="Path 4" d="M225.574,155.552a.056.056,0,0,1,0-.081l1.955-1.67h.041a.04.04,0,0,1,.041.041l8.026,9.492a12,12,0,0,1-1.018,1.018,8.412,8.412,0,0,1-1.018.774Z" transform="translate(-185.445 -142.923)"/>
    <path id="Path_5" data-name="Path 5" d="M245.611,181.415h0l-.041.041h-.081l-1.589-1.793v-.041a13.285,13.285,0,0,0,2.037-1.507,13.759,13.759,0,0,0,1.752-1.915h.041l1.589,1.793v.081l-.041.041a17.3,17.3,0,0,1-1.711,1.915C246.874,180.641,245.611,181.374,245.611,181.415Z" transform="translate(-196.316 -156.197)"/>
    <path id="Path_6" data-name="Path 6" d="M252.97,188.048l-1.67-1.956a10.968,10.968,0,0,0,1.1-.815,7.137,7.137,0,0,0,.937-.978l1.711,2.037a16.767,16.767,0,0,1,2.852,4.97l5.622,20.329c-.856.2-1.711.448-2.607.693L255.292,192v-.041A10.164,10.164,0,0,0,252.97,188.048Z" transform="translate(-200.702 -160.997)"/>
    <path id="Path_7" data-name="Path 7" d="M193.057,127.1a65.957,65.957,0,1,0,65.957,65.957A65.965,65.965,0,0,0,193.057,127.1Zm29.088,111.341c0,3.381-2.933,6.274-5.7,7.863-5.092,2.933-13.4,4.685-22.244,4.685h-2.281c-8.84,0-17.151-1.752-22.244-4.685-2.77-1.589-5.7-4.481-5.7-7.863V181.772c.163-2.281.693-4.359,2.852-8.148.448-.774.856-1.385,1.222-1.915a10.373,10.373,0,0,0,.733-1.222,3.947,3.947,0,0,1-1.63-3.422,3.126,3.126,0,0,1,.611-1.874,4.01,4.01,0,0,1-.815-2.444V160.14c0-2.2,1.63-3.911,4.155-4.359,1.3-.244,2.77-.489,4.441-.693a2.937,2.937,0,0,1-1.344-.856l-1.589-1.793a2.785,2.785,0,0,1-.733-2.078,1.845,1.845,0,0,1,.122-.652l-6.885-8.148a2.912,2.912,0,0,1,.367-4.074l1.955-1.67a2.934,2.934,0,0,1,4.074.326l6.8,8.066h.407a2.773,2.773,0,0,1,2,.978l1.589,1.793a2.767,2.767,0,0,1,.611,2.689l.774.9a18.557,18.557,0,0,1,2.363,3.585c2.444-.122,4.807-.163,7.089-.163a136.755,136.755,0,0,1,22,1.711c2.526.489,4.155,2.2,4.155,4.359v2.607a4.01,4.01,0,0,1-.815,2.444,2.958,2.958,0,0,1,.611,1.874,3.9,3.9,0,0,1-1.63,3.422,10.371,10.371,0,0,0,.733,1.222c.367.53.774,1.141,1.222,1.915,2.159,3.789,2.689,5.866,2.852,8.148v56.75Z" transform="translate(-127.1 -127.1)"/>
    <path id="Path_8" data-name="Path 8" d="M276.835,196.828c-.122-2.037-.57-3.789-2.567-7.211a18.849,18.849,0,0,0-1.141-1.752,5.443,5.443,0,0,1-1.263-2.933,1,1,0,0,1,.489-1.059c.041-.041.122-.041.163-.081a1.577,1.577,0,0,0,1.1-1.793c0-.733-.652-1.018-1.059-1.222-.163-.081-.448-.2-.489-.326a3.924,3.924,0,0,1,.122-.815l.774-.407a1.747,1.747,0,0,0,.9-1.548v-2.607c0-1.1-.9-1.915-2.322-2.2a131.808,131.808,0,0,0-21.592-1.67c-2.73,0-5.622.081-8.433.244a18.7,18.7,0,0,0-2.689-4.481l-1.793-2.118a4.668,4.668,0,0,0,.407-.53.654.654,0,0,0,.2-.448.711.711,0,0,0-.163-.489l-1.589-1.793a.653.653,0,0,0-.937-.041l-.041.041s-.122.163-.285.367l-7.944-9.411a.708.708,0,0,0-.448-.244.649.649,0,0,0-.489.163l-1.956,1.67a.7.7,0,0,0-.081.978l8.026,9.533c-.285.2-.489.326-.489.326l-.041.041a.653.653,0,0,0-.041.937l1.589,1.793a.971.971,0,0,0,.448.244h.041a.523.523,0,0,0,.407-.163c.081-.041.244-.163.489-.285l1.711,2.037h0a8.373,8.373,0,0,1,1.507,2.2c-3.381.285-6.518.693-8.963,1.141-1.426.285-2.322,1.1-2.322,2.2v2.607a1.747,1.747,0,0,0,.9,1.548l.774.407a3.922,3.922,0,0,1,.122.815c0,.081-.285.244-.489.326-.407.2-1.059.489-1.059,1.222a1.614,1.614,0,0,0,1.1,1.793c.081.041.122.041.163.081a1,1,0,0,1,.489,1.059,5.443,5.443,0,0,1-1.263,2.933c-.326.489-.733,1.059-1.141,1.752-1.956,3.422-2.4,5.174-2.567,7.211h0v56.506c0,2.444,2.485,4.726,4.6,5.948,4.685,2.689,12.792,4.4,21.144,4.4h2.2c8.352,0,16.459-1.67,21.144-4.4,2.118-1.222,4.6-3.5,4.6-5.948l.041-56.546Zm-1.018,56.546c0,1.63-1.63,3.667-4.074,5.092-4.563,2.607-12.466,4.237-20.655,4.237h-2.2c-8.189,0-16.092-1.63-20.655-4.237-2.444-1.426-4.074-3.463-4.074-5.092V196.91c.122-1.915.53-3.5,2.4-6.763a15.635,15.635,0,0,1,1.1-1.711,6.206,6.206,0,0,0,1.426-3.463,1.975,1.975,0,0,0-1.018-1.956l-.244-.122c-.326-.122-.489-.2-.489-.856,0-.122.2-.2.489-.367.407-.2.978-.448,1.018-1.1a5.479,5.479,0,0,0-.2-1.426l-.041-.2-1.1-.611a.734.734,0,0,1-.367-.652v-2.607c0-.856,1.141-1.141,1.507-1.222a88.045,88.045,0,0,1,9.248-1.141,2.83,2.83,0,0,1,.2.53l.856,3.055a83,83,0,0,1-10.348-1.018.248.248,0,1,0-.081.489,79.911,79.911,0,0,0,10.592,1.018l.326,1.181a76.183,76.183,0,0,1-10.837-1.059.248.248,0,0,0-.081.489,79.994,79.994,0,0,0,11.04,1.059l4.155,15.033c-.407.122-.774.244-1.181.326-14.259,4.237-16.214,6.029-16.214,6.07h0v53.491c0,.489.856,1.956,2.974,3.137,4.237,2.444,11.733,3.952,19.555,3.952h2.281c7.822,0,15.318-1.507,19.555-3.952,2.118-1.222,2.974-2.648,2.974-3.137V196.991c-.081-1.344-.326-2.607-2.118-5.744-.244-.448-.489-.815-.733-1.181h0c-.041,0-8.148-1.3-23.3,2.444l-3.829-13.892c2.241.041,4.4.081,6.355.081,6.763,0,15.97-.2,21.551-1.263.122-.041.244-.163.2-.285s-.163-.244-.285-.2c-5.541,1.019-14.707,1.263-21.47,1.263-2,0-4.237,0-6.518-.081l-.326-1.181c2.4.041,4.726.081,6.844.081,6.763,0,15.97-.2,21.551-1.263.122-.041.244-.163.2-.285s-.163-.244-.285-.2c-5.541,1.018-14.707,1.263-21.47,1.263-2.159,0-4.522-.041-6.966-.081l-1.1-4.033c2.689-.163,5.459-.244,8.066-.244a129.693,129.693,0,0,1,21.429,1.67c.367.081,1.507.367,1.507,1.222v2.607a.771.771,0,0,1-.367.652l-1.1.611-.041.2a5.237,5.237,0,0,0-.2,1.426,1.413,1.413,0,0,0,1.018,1.1c.285.122.489.244.489.367,0,.652-.163.733-.489.856l-.244.122a1.975,1.975,0,0,0-1.018,1.956,6.206,6.206,0,0,0,1.426,3.463q.489.733,1.1,1.711c1.874,3.3,2.281,4.848,2.4,6.763v56.465ZM247.87,221.028c0,3.83-2.159,6.07-8.026,6.07h-8.922V205.872h8.311c5.622,0,7.7,2.078,7.7,5.7a4.377,4.377,0,0,1-2.4,4.359v.081C246.566,216.587,247.87,218.054,247.87,221.028Zm17.966,17.559a3.563,3.563,0,0,0,1.793-.57l.407.774a3.506,3.506,0,0,1-2.2.774,2.225,2.225,0,0,1-2.526-2.4v-2.118a2.3,2.3,0,0,1,2.444-2.607c1.711,0,2.444.978,2.444,2.607v1.3h-3.911v1.018C264.328,238.057,264.736,238.586,265.836,238.586Zm-1.67,11.692a4.569,4.569,0,0,0,1.874.53c1.059,0,1.426-.489,1.426-1.222,0-.774-.57-.978-1.426-1.181-1.019-.244-2.078-.57-2.078-1.874,0-1.344.937-1.955,2.2-1.955a4.012,4.012,0,0,1,1.956.53l-.326.774a3.461,3.461,0,0,0-1.63-.448c-.733,0-1.263.244-1.263.978,0,.693.652.9,1.467,1.1,1.1.285,2,.611,2,1.956s-.774,2.159-2.363,2.159a4.575,4.575,0,0,1-2.241-.652Zm-.9-23.181-1.059-3.83H255.2l-1.059,3.83h-5.826l6.8-21.225h7.129l6.8,21.225Zm-3.259,18.5a2.238,2.238,0,0,0-1.548.733,3.164,3.164,0,0,1,.081.652v4.644h-1.018v-4.4c0-1.181-.448-1.589-1.385-1.589a2.238,2.238,0,0,0-1.548.733v5.3h-.978v-6.926h.815l.122.856a2.685,2.685,0,0,1,1.955-.937,1.786,1.786,0,0,1,1.752,1.018,3.106,3.106,0,0,1,2.078-1.018c1.426,0,2.078,1.059,2.078,2.363v4.644H261.4v-4.4C261.436,246.042,260.865,245.594,260.01,245.594Zm-5.092-14.1v-1.263h1.1V231.5Zm1.059,1.019v6.926h-1.018v-6.926Zm4.2,6.07a1.687,1.687,0,0,0,1.467-.733l.652.57a2.369,2.369,0,0,1-2.118,1.1,2.319,2.319,0,0,1-2.526-2.607v-1.874a2.548,2.548,0,0,1,4.644-1.507l-.652.611a1.667,1.667,0,0,0-1.467-.774c-1.1,0-1.507.57-1.507,1.752v1.752C258.666,238.016,259.073,238.586,260.173,238.586Zm-10.959-6.07,1.589,5.744h.041l1.589-5.744h1.1l-2.118,6.926h-1.222l-2.118-6.926Zm0,12.1c1.67,0,2.444.815,2.444,2.322v4.685h-.815l-.122-.733a2.213,2.213,0,0,1-1.874.815,1.938,1.938,0,0,1-2.118-2c0-2.037,2.281-2.607,3.952-2.607v-.407c0-.693-.326-1.181-1.467-1.181a5.052,5.052,0,0,0-1.874.448l-.285-.815A5.01,5.01,0,0,1,249.214,244.616Zm-9.329-6.029a3.563,3.563,0,0,0,1.793-.57l.407.774a3.506,3.506,0,0,1-2.2.774,2.225,2.225,0,0,1-2.526-2.4v-2.118a2.3,2.3,0,0,1,2.444-2.607c1.711,0,2.444.978,2.444,2.607v1.3h-3.911v1.018C238.337,238.057,238.744,238.586,239.885,238.586Zm2.444,14.585a3.145,3.145,0,0,0,.611.081c.856,0,1.1-.489,1.1-1.181V244.7h1.018v7.17c0,1.507-.57,2.322-2.037,2.322a2.417,2.417,0,0,1-.937-.2Zm1.67-9.492v-1.263h1.1v1.263Zm.9-9.166v4.929h-1.018v-6.926h.815l.122,1.1a2.506,2.506,0,0,1,1.915-1.181,2.064,2.064,0,0,1,.53.081l-.163.937a2.384,2.384,0,0,0-.53-.081A1.942,1.942,0,0,0,244.9,234.512Zm-11.04,1.711c-1.018-.244-2.078-.57-2.078-1.874,0-1.344.937-1.956,2.2-1.956a4.013,4.013,0,0,1,1.955.53l-.326.774a3.461,3.461,0,0,0-1.63-.448c-.733,0-1.263.244-1.263.978,0,.693.652.9,1.467,1.1,1.1.285,2,.611,2,1.955s-.774,2.159-2.363,2.159a4.575,4.575,0,0,1-2.241-.652l.367-.774a4.569,4.569,0,0,0,1.874.53c1.059,0,1.426-.489,1.426-1.222C235.281,236.672,234.711,236.468,233.855,236.223Z" transform="translate(-183.99 -142.034)"/>
    <path id="Path_9" data-name="Path 9" d="M261.815,316.052c0-1.222-.611-1.752-2.444-1.752H255.5v3.748h3.87C261.163,318.048,261.815,317.315,261.815,316.052Z" transform="translate(-203.19 -238.036)"/>
    <path id="Path_10" data-name="Path 10" d="M261.266,297.193c0-1.141-.611-1.793-2.159-1.793H255.4v3.544h3.707C260.655,298.985,261.266,298.374,261.266,297.193Z" transform="translate(-203.131 -226.835)"/>
    <path id="Path_11" data-name="Path 11" d="M307.159,295.9,305,303.763h4.481l-2.159-7.863Z" transform="translate(-232.524 -227.132)"/>
  </g>
</svg>
