<svg xmlns="http://www.w3.org/2000/svg" width="148.728" height="213.096" viewBox="0 0 148.728 213.096">
  <g id="baservicejamlogo" transform="translate(-485 -686.936)">
    <path id="Path_12" data-name="Path 12" d="M148.728,23.063v166.97A23.094,23.094,0,0,1,125.665,213.1H23.063A23.125,23.125,0,0,1,0,190.033V23.063A23.094,23.094,0,0,1,23.063,0H125.712A23.084,23.084,0,0,1,148.728,23.063Z" transform="translate(485 686.936)" fill="#f49719"/>
    <path id="Path_13" data-name="Path 13" d="M149.331,28.864v166.97A17.911,17.911,0,0,1,131.466,213.7H28.864A17.911,17.911,0,0,1,11,195.835V28.864A17.911,17.911,0,0,1,28.864,11H131.513A17.9,17.9,0,0,1,149.331,28.864Z" transform="translate(479.199 681.135)" fill="#f0f0f0"/>
    <ellipse id="Ellipse_3" data-name="Ellipse 3" cx="29.49" cy="27.033" rx="29.49" ry="27.033" transform="translate(499.708 735.329) rotate(-45)" fill="#f0f0f0"/>
    <path id="Path_14" data-name="Path 14" d="M80.67,95.114a34.452,34.452,0,0,1-14.745-3.4A27.487,27.487,0,0,1,52.692,78.479C47.682,67.8,48.2,56.266,54.157,46.956A31.234,31.234,0,0,1,80.622,32.4a34.452,34.452,0,0,1,14.745,3.4A27.487,27.487,0,0,1,108.6,49.036c5.01,10.681,4.49,22.212-1.465,31.57A31.239,31.239,0,0,1,80.67,95.114Zm0-57.988a26.583,26.583,0,0,0-22.5,12.335c-5.057,7.94-5.482,17.817-1.182,26.986A22.691,22.691,0,0,0,67.909,87.364a30.266,30.266,0,0,0,12.76,2.93,26.583,26.583,0,0,0,22.5-12.335c5.057-7.94,5.482-17.817,1.182-26.986A22.692,22.692,0,0,0,93.43,40.056,30.428,30.428,0,0,0,80.67,37.126Z" transform="translate(459.01 669.849)" fill="#f49719"/>
    <path id="Path_15" data-name="Path 15" d="M112.02,126.4,108,133.158a2.2,2.2,0,0,0-.284,1.087v45.89L97.7,184.2l10.019,3.45v12.524a2.067,2.067,0,0,0,2.079,2.079h52.175a2.067,2.067,0,0,0,2.079-2.079V134.245a2.2,2.2,0,0,0-.284-1.087l-4.017-6.758Z" transform="translate(433.473 620.273)" fill="#f0f0f0"/>
    <path id="Path_16" data-name="Path 16" d="M154.427,202.031H102.2a4.488,4.488,0,0,1-4.49-4.49v-10.87L83.3,181.709l14.414-5.86V131.661a4.655,4.655,0,0,1,.614-2.268l4.679-7.892h50.568l4.679,7.892a4.311,4.311,0,0,1,.614,2.268v65.928A4.437,4.437,0,0,1,154.427,202.031Zm-51.939-4.726h51.655v-65.6l-3.261-5.529H105.749l-3.261,5.529v47.4l-5.624,2.268,5.624,1.938v13.989Z" transform="translate(441.068 622.857)" fill="#f49719"/>
    <path id="Path_17" data-name="Path 17" d="M173.2,72.1H120.979a2.067,2.067,0,0,0-2.079,2.079V88.31a2.067,2.067,0,0,0,2.079,2.079h52.175a2.067,2.067,0,0,0,2.079-2.079V85.38l7.42-3.686-7.42-3.97V74.179A2,2,0,0,0,173.2,72.1Z" transform="translate(422.292 648.911)" fill="#f0f0f0"/>
    <path id="Path_18" data-name="Path 18" d="M170.512,90.216H118.29a4.488,4.488,0,0,1-4.49-4.49V71.642a4.448,4.448,0,0,1,4.49-4.442h52.175a4.478,4.478,0,0,1,4.49,4.442v2.127l10.208,5.482-10.208,5.057v1.465A4.437,4.437,0,0,1,170.512,90.216ZM118.573,85.49h51.655V81.378l4.632-2.268-4.632-2.5V71.879H118.573Z" transform="translate(424.982 651.495)" fill="#f49719"/>
    <path id="Path_19" data-name="Path 19" d="M22.9,338.1h6.38a7.622,7.622,0,0,1,4.537,1.087,3.9,3.9,0,0,1,1.371,3.261,4.453,4.453,0,0,1-.425,2.032,2.986,2.986,0,0,1-1.418,1.323v.047a3.242,3.242,0,0,1,1.89,1.276,4.486,4.486,0,0,1,.662,2.6,4.087,4.087,0,0,1-1.465,3.45c-.945.8-2.552,1.182-4.726,1.182H22.9Zm6.947,6.38a1.96,1.96,0,0,0,1.276-.331,1.191,1.191,0,0,0,.378-.992,1.393,1.393,0,0,0-.378-1.04,1.878,1.878,0,0,0-1.276-.331H27.012v2.741h2.836Zm.142,6a2.469,2.469,0,0,0,1.465-.378,1.565,1.565,0,0,0,.473-1.134,1.255,1.255,0,0,0-.425-1.04,2.666,2.666,0,0,0-1.465-.331H27.059v2.883Z" transform="translate(472.923 508.623)" fill="#f4981c"/>
    <path id="Path_20" data-name="Path 20" d="M62.937,354.3l-.8-2.93H56.746l-.8,2.93H51.5L56.746,338h5.482l5.246,16.3Zm-5.2-6.427h3.45l-1.654-6H59.44Z" transform="translate(457.839 508.676)" fill="#f4981c"/>
    <path id="Path_21" data-name="Path 21" d="M101.836,354.094a17.97,17.97,0,0,1-2.6-.756v-4.49h.095a12.519,12.519,0,0,0,2.552,1.182,6.956,6.956,0,0,0,2.363.473,2.411,2.411,0,0,0,1.418-.378,1.233,1.233,0,0,0,.52-.992.974.974,0,0,0-.331-.8,3.364,3.364,0,0,0-.8-.52c-.331-.142-.8-.284-1.418-.473a18.632,18.632,0,0,1-2.363-.851,4.118,4.118,0,0,1-1.607-1.418,4.338,4.338,0,0,1-.662-2.6,4.922,4.922,0,0,1,.709-2.741,4.187,4.187,0,0,1,1.985-1.607,7.331,7.331,0,0,1,2.788-.52,8.794,8.794,0,0,1,2.458.331,10.168,10.168,0,0,1,2.363.9v4.064h-.095a11.938,11.938,0,0,0-2.458-1.229,6.916,6.916,0,0,0-2.316-.52,1.921,1.921,0,0,0-.992.236.777.777,0,0,0-.378.709.933.933,0,0,0,.284.662,1.779,1.779,0,0,0,.709.425c.284.095.709.236,1.229.378a14.767,14.767,0,0,1,2.5.945,4.439,4.439,0,0,1,1.7,1.56,5.1,5.1,0,0,1,.709,2.883,5.53,5.53,0,0,1-.756,3.025,4.629,4.629,0,0,1-2.079,1.843,7.21,7.21,0,0,1-3.119.614C103.49,354.33,102.686,354.283,101.836,354.094Z" transform="translate(432.788 508.887)" fill="#f4981c"/>
    <path id="Path_22" data-name="Path 22" d="M127.5,354.3V338h11.248v3.828h-7.136v2.5h6.711v3.592h-6.711v2.5h7.136V354.3Z" transform="translate(417.757 508.676)" fill="#f4981c"/>
    <path id="Path_23" data-name="Path 23" d="M166.332,354.352l-2.977-5.908h-1.843v5.86H157.4V338h5.955a6.993,6.993,0,0,1,4.821,1.418,5.157,5.157,0,0,1,1.607,4.017,5.35,5.35,0,0,1-.614,2.741,4.194,4.194,0,0,1-1.938,1.654l3.828,6.522Zm-4.821-9.027h1.843a2.782,2.782,0,0,0,1.843-.473,1.717,1.717,0,0,0,.52-1.371,1.921,1.921,0,0,0-.236-.992,1.46,1.46,0,0,0-.709-.567,3.793,3.793,0,0,0-1.418-.189h-1.843Z" transform="translate(401.988 508.676)" fill="#f4981c"/>
    <path id="Path_24" data-name="Path 24" d="M190.346,354.3,185.1,338h4.442l3.4,12h.095l3.45-12h4.442l-5.246,16.3Z" transform="translate(387.379 508.676)" fill="#f4981c"/>
    <path id="Path_25" data-name="Path 25" d="M221.8,354.3V338h4.112v16.3Z" transform="translate(368.023 508.676)" fill="#f4981c"/>
    <path id="Path_26" data-name="Path 26" d="M239.175,353.743A6.6,6.6,0,0,1,236.34,351a10.836,10.836,0,0,1,0-9.263A6.6,6.6,0,0,1,239.175,339a8.87,8.87,0,0,1,3.923-.9,10.511,10.511,0,0,1,2.694.331,10.071,10.071,0,0,1,2.6.945v4.679h-.047a9.782,9.782,0,0,0-2.6-1.512,7.2,7.2,0,0,0-2.5-.52,3.859,3.859,0,0,0-1.985.473,3.438,3.438,0,0,0-1.371,1.465,6.626,6.626,0,0,0,0,4.915,3.438,3.438,0,0,0,1.371,1.465,3.859,3.859,0,0,0,1.985.473,6.992,6.992,0,0,0,2.5-.52,9.783,9.783,0,0,0,2.6-1.512h.047v4.679a12.119,12.119,0,0,1-5.293,1.276A11.135,11.135,0,0,1,239.175,353.743Z" transform="translate(360.903 508.623)" fill="#f4981c"/>
    <path id="Path_27" data-name="Path 27" d="M268.9,354.3V338h11.248v3.828h-7.136v2.5h6.711v3.592h-6.711v2.5h7.136V354.3Z" transform="translate(343.183 508.676)" fill="#f4981c"/>
    <path id="Path_28" data-name="Path 28" d="M81.734,402.594A4.064,4.064,0,0,1,80.6,402.4v-3.734l.567.047a4.925,4.925,0,0,0,.52.047,3.6,3.6,0,0,0,.662.047,3.4,3.4,0,0,0,.8-.094c.189-.047.331-.236.473-.473a2.779,2.779,0,0,0,.189-1.229V386.1h4.159v11.815a5.1,5.1,0,0,1-.567,2.458,3.842,3.842,0,0,1-1.7,1.654,5.755,5.755,0,0,1-2.647.567Z" transform="translate(442.492 483.308)" fill="#f4981c"/>
    <path id="Path_29" data-name="Path 29" d="M109.484,402.3l-.8-2.93h-5.388l-.8,2.93H98l5.246-16.3h5.482l5.246,16.3Zm-5.246-6.427h3.45l-1.654-6h-.095Z" transform="translate(433.315 483.361)" fill="#f4981c"/>
    <path id="Path_30" data-name="Path 30" d="M135,402.3V386h5.813l3.355,10.681,3.4-10.681h5.86v16.3H149.32V391.718h-.142L145.917,402.3h-3.4l-3.261-10.586h-.142V402.3Z" transform="translate(413.801 483.361)" fill="#f4981c"/>
    <rect id="Rectangle_4" data-name="Rectangle 4" width="144.285" height="4.726" transform="translate(487.883 833.018)" fill="#f4981c"/>
    <path id="Path_14578" data-name="Path 14578" d="M12.188-11.953a6.533,6.533,0,0,1-1.646,4.371A17.771,17.771,0,0,1,5.777-3.891H12.07V0H1.148V-4.512A31.582,31.582,0,0,0,6.223-8.244a4.749,4.749,0,0,0,1.84-3.182A1.193,1.193,0,0,0,7.6-12.463,2.114,2.114,0,0,0,6.34-12.8a8.078,8.078,0,0,0-2.643.533,12.424,12.424,0,0,0-2.549,1.2v-4.371a13.326,13.326,0,0,1,2.684-1A11.326,11.326,0,0,1,6.668-16.8a7.373,7.373,0,0,1,2.783.5,4.31,4.31,0,0,1,1.992,1.594A4.777,4.777,0,0,1,12.188-11.953ZM19.934.234A4.934,4.934,0,0,1,16.688-.838,6.291,6.291,0,0,1,14.76-3.826a14.441,14.441,0,0,1-.627-4.482,14.51,14.51,0,0,1,.621-4.477,6.217,6.217,0,0,1,1.922-2.977,4.969,4.969,0,0,1,3.258-1.066,5.064,5.064,0,0,1,3.293,1.072A6.323,6.323,0,0,1,25.2-12.773a13.979,13.979,0,0,1,.645,4.465A14.2,14.2,0,0,1,25.2-3.826,6.285,6.285,0,0,1,23.238-.838,5.082,5.082,0,0,1,19.934.234Zm0-3.574a1.194,1.194,0,0,0,1.02-.492,3.42,3.42,0,0,0,.5-1.553A23.513,23.513,0,0,0,21.6-8.309a22.059,22.059,0,0,0-.146-2.889,3.357,3.357,0,0,0-.5-1.523,1.194,1.194,0,0,0-1.014-.475,1.219,1.219,0,0,0-1.037.475,3.285,3.285,0,0,0-.5,1.506,22.9,22.9,0,0,0-.141,2.906A23.889,23.889,0,0,0,18.4-5.35a3.287,3.287,0,0,0,.5,1.535A1.222,1.222,0,0,0,19.934-3.34ZM27.785,0V-3.891h3.141v-8.66l-3.141,2.52V-14.2l3.164-2.355h4.09V-3.891h3.117V0ZM44.73-16.8a5.593,5.593,0,0,1,3.141.908,6.088,6.088,0,0,1,2.156,2.52A8.36,8.36,0,0,1,50.8-9.715a10.574,10.574,0,0,1-1.465,5.449A18.407,18.407,0,0,1,45.949,0H40.793V-.141q1.254-.867,2.168-1.641a12.563,12.563,0,0,0,1.723-1.793,9.515,9.515,0,0,0,1.336-2.3A4.47,4.47,0,0,1,43.91-5.4a5.468,5.468,0,0,1-2.543-.586,4.324,4.324,0,0,1-1.8-1.77,5.81,5.81,0,0,1-.668-2.895,6.563,6.563,0,0,1,.785-3.264,5.45,5.45,0,0,1,2.115-2.145A5.909,5.909,0,0,1,44.73-16.8Zm-1.8,6.246a2.658,2.658,0,0,0,.545,1.8,1.83,1.83,0,0,0,1.447.621,1.708,1.708,0,0,0,1.389-.615,2.821,2.821,0,0,0,.51-1.834,2.922,2.922,0,0,0-.521-1.875,1.684,1.684,0,0,0-1.377-.645,1.8,1.8,0,0,0-1.43.656A2.819,2.819,0,0,0,42.926-10.559Z" transform="translate(574 886)" fill="#f49719"/>
  </g>
</svg>
