<?xml version="1.0" encoding="utf-8"?>
<!-- Generator: Adobe Illustrator 23.1.1, SVG Export Plug-In . SVG Version: 6.00 Build 0)  -->
<svg version="1.1" id="Capa_1" xmlns="http://www.w3.org/2000/svg" xmlns:xlink="http://www.w3.org/1999/xlink" x="0px" y="0px"
	 viewBox="0 0 148.7 213.1" style="enable-background:new 0 0 148.7 213.1;" xml:space="preserve">
<style type="text/css">
	.st0{fill:#F49719;}
	.st1{fill:#F4981C;}
</style>
<g id="baservicejamlogo" transform="translate(-485 -686.936)">
	<path class="st0" d="M599.9,725.3v-2.1c0-2.5-2-4.4-4.5-4.4h-27.9c-2.7-5.7-7.4-10.3-13.1-13c-4.6-2.2-9.6-3.4-14.7-3.4
		c-10.7,0-20.7,5.5-26.5,14.6c-6,9.3-6.5,20.8-1.5,31.5c2.7,5.8,7.4,10.5,13.2,13.2c4.3,2.1,9,3.2,13.8,3.4v33.8l-14.4,5.9l14.4,5
		v10.9c0,0,0,0,0,0c0,2.5,2,4.5,4.5,4.5h52.2c0,0,0,0,0,0c2.5,0,4.4-2,4.4-4.4v-65.9c0-0.8-0.2-1.6-0.6-2.3l-4.7-7.9h-25.5
		c0.3-0.9,0.6-1.8,0.8-2.6h25.5c0,0,0,0,0,0c2.5,0,4.4-2,4.4-4.4v-1.5l10.2-5.1L599.9,725.3z M595.2,754.6v65.6h-51.7l0,0v-14
		l-5.6-1.9l5.6-2.3v-47.4l3.3-5.5H592L595.2,754.6z M564,744.4h-19.9l-4.7,7.9c-0.4,0.7-0.6,1.5-0.6,2.3v5.6
		c-4.1-0.2-8.1-1.1-11.9-2.9c-4.8-2.3-8.7-6.1-10.9-10.9c-4.3-9.2-3.9-19,1.2-27c4.9-7.7,13.4-12.4,22.5-12.3c4.4,0,8.8,1,12.8,2.9
		c4.1,1.9,7.5,5,9.8,8.8h-18.9c0,0,0,0,0,0c-2.5,0-4.5,2-4.5,4.4v14.1c0,0,0,0,0,0c0,2.5,2,4.5,4.5,4.5H565
		C564.7,742.6,564.4,743.5,564,744.4z M595.2,732.9v4.1h-51.7v-13.6h51.7v4.7l4.6,2.5L595.2,732.9z"/>
	<path id="Path_19" class="st1" d="M495.8,846.7h6.4c1.6-0.1,3.2,0.3,4.5,1.1c1,0.8,1.5,2,1.4,3.3c0,0.7-0.1,1.4-0.4,2
		c-0.3,0.6-0.8,1.1-1.4,1.3v0c0.8,0.2,1.4,0.6,1.9,1.3c0.5,0.8,0.7,1.7,0.7,2.6c0.1,1.3-0.4,2.6-1.5,3.5c-0.9,0.8-2.6,1.2-4.7,1.2
		h-6.8V846.7z M502.8,853.1c0.5,0,0.9-0.1,1.3-0.3c0.3-0.3,0.4-0.6,0.4-1c0-0.4-0.1-0.8-0.4-1c-0.4-0.3-0.8-0.4-1.3-0.3h-2.8v2.7
		L502.8,853.1L502.8,853.1z M502.9,859.1c0.5,0,1-0.1,1.5-0.4c0.3-0.3,0.5-0.7,0.5-1.1c0-0.4-0.1-0.8-0.4-1c-0.4-0.2-1-0.4-1.5-0.3
		h-3v2.9H502.9z"/>
	<path id="Path_20" class="st1" d="M520.8,863L520,860h-5.4l-0.8,2.9h-4.4l5.2-16.3h5.5l5.2,16.3H520.8z M515.6,856.5h3.5l-1.7-6
		h-0.1L515.6,856.5z"/>
	<path id="Path_21" class="st1" d="M534.6,863c-0.9-0.2-1.8-0.4-2.6-0.8v-4.5h0.1c0.8,0.5,1.7,0.9,2.6,1.2c0.8,0.3,1.6,0.5,2.4,0.5
		c0.5,0,1-0.1,1.4-0.4c0.3-0.2,0.5-0.6,0.5-1c0-0.3-0.1-0.6-0.3-0.8c-0.2-0.2-0.5-0.4-0.8-0.5c-0.3-0.1-0.8-0.3-1.4-0.5
		c-0.8-0.2-1.6-0.5-2.4-0.9c-0.7-0.3-1.2-0.8-1.6-1.4c-0.5-0.8-0.7-1.7-0.7-2.6c0-1,0.2-1.9,0.7-2.7c0.5-0.7,1.2-1.3,2-1.6
		c0.9-0.4,1.8-0.5,2.8-0.5c0.8,0,1.7,0.1,2.5,0.3c0.8,0.2,1.6,0.5,2.4,0.9v4.1H542c-0.8-0.5-1.6-0.9-2.5-1.2
		c-0.7-0.3-1.5-0.5-2.3-0.5c-0.3,0-0.7,0.1-1,0.2c-0.2,0.1-0.4,0.4-0.4,0.7c0,0.2,0.1,0.5,0.3,0.7c0.2,0.2,0.4,0.3,0.7,0.4
		c0.3,0.1,0.7,0.2,1.2,0.4c0.9,0.2,1.7,0.6,2.5,0.9c0.7,0.4,1.3,0.9,1.7,1.6c0.5,0.9,0.8,1.9,0.7,2.9c0,1.1-0.2,2.1-0.8,3
		c-0.5,0.8-1.2,1.5-2.1,1.8c-1,0.4-2,0.6-3.1,0.6C536.3,863.2,535.5,863.2,534.6,863z"/>
	<path id="Path_22" class="st1" d="M545.3,863v-16.3h11.2v3.8h-7.1v2.5h6.7v3.6h-6.7v2.5h7.1v3.9H545.3z"/>
	<path id="Path_23" class="st1" d="M568.3,863l-3-5.9h-1.8v5.9h-4.1v-16.3h6c1.7-0.1,3.4,0.4,4.8,1.4c1.1,1,1.7,2.5,1.6,4
		c0,1-0.2,1.9-0.6,2.7c-0.5,0.7-1.1,1.3-1.9,1.7l3.8,6.5H568.3z M563.5,854h1.8c0.7,0.1,1.3-0.1,1.8-0.5c0.4-0.4,0.6-0.9,0.5-1.4
		c0-0.3-0.1-0.7-0.2-1c-0.2-0.3-0.4-0.5-0.7-0.6c-0.5-0.2-0.9-0.2-1.4-0.2h-1.8V854z"/>
	<path id="Path_24" class="st1" d="M577.7,863l-5.2-16.3h4.4l3.4,12h0.1l3.4-12h4.4l-5.2,16.3H577.7z"/>
	<path id="Path_25" class="st1" d="M589.8,863v-16.3h4.1V863H589.8z"/>
	<path id="Path_26" class="st1" d="M600.1,862.4c-1.2-0.6-2.2-1.6-2.8-2.7c-1.4-2.9-1.4-6.3,0-9.3c0.6-1.2,1.6-2.1,2.8-2.7
		c1.2-0.6,2.6-0.9,3.9-0.9c0.9,0,1.8,0.1,2.7,0.3c0.9,0.2,1.8,0.5,2.6,0.9v4.7h0c-0.8-0.6-1.7-1.1-2.6-1.5c-0.8-0.3-1.6-0.5-2.5-0.5
		c-0.7,0-1.4,0.1-2,0.5c-0.6,0.3-1.1,0.9-1.4,1.5c-0.6,1.6-0.6,3.3,0,4.9c0.3,0.6,0.8,1.1,1.4,1.5c0.6,0.3,1.3,0.5,2,0.5
		c0.9,0,1.7-0.2,2.5-0.5c0.9-0.4,1.8-0.9,2.6-1.5h0v4.7c-1.6,0.8-3.5,1.3-5.3,1.3C602.6,863.3,601.3,862.9,600.1,862.4z"/>
	<path id="Path_27" class="st1" d="M612.1,863v-16.3h11.2v3.8h-7.1v2.5h6.7v3.6h-6.7v2.5h7.1v3.9H612.1z"/>
	<path id="Path_28" class="st1" d="M524.2,885.9c-0.4,0-0.8-0.1-1.1-0.2V882l0.6,0c0.2,0,0.3,0,0.5,0c0.2,0,0.4,0.1,0.7,0
		c0.3,0,0.5,0,0.8-0.1c0.2,0,0.3-0.2,0.5-0.5c0.2-0.4,0.2-0.8,0.2-1.2v-10.9h4.2v11.8c0,0.9-0.2,1.7-0.6,2.5c-0.4,0.7-1,1.3-1.7,1.7
		c-0.8,0.4-1.7,0.6-2.6,0.6H524.2z"/>
	<path id="Path_29" class="st1" d="M542.8,885.7l-0.8-2.9h-5.4l-0.8,2.9h-4.5l5.2-16.3h5.5l5.2,16.3H542.8z M537.6,879.2h3.5l-1.7-6
		h-0.1L537.6,879.2z"/>
	<path id="Path_30" class="st1" d="M548.8,885.7v-16.3h5.8L558,880l3.4-10.7h5.9v16.3h-4.1v-10.6H563l-3.3,10.6h-3.4l-3.3-10.6h-0.1
		v10.6H548.8z"/>
	<rect id="Rectangle_4" x="487.9" y="833" class="st1" width="144.3" height="4.7"/>
	<path id="Path_14578" class="st0" d="M586.2,874c0,1.6-0.6,3.2-1.6,4.4c-1.4,1.5-3,2.7-4.8,3.7h6.3v3.9h-10.9v-4.5
		c1.8-1.1,3.5-2.3,5.1-3.7c1-0.8,1.7-1.9,1.8-3.2c0-0.4-0.1-0.8-0.5-1c-0.4-0.2-0.8-0.4-1.3-0.3c-0.9,0-1.8,0.2-2.6,0.5
		c-0.9,0.3-1.7,0.7-2.5,1.2v-4.4c0.9-0.4,1.8-0.8,2.7-1c0.9-0.2,1.9-0.4,2.8-0.4c1,0,1.9,0.2,2.8,0.5c0.8,0.3,1.5,0.9,2,1.6
		C586,872.1,586.2,873.1,586.2,874z M593.9,886.2c-1.2,0-2.3-0.3-3.2-1.1c-0.9-0.8-1.6-1.8-1.9-3c-0.4-1.5-0.7-3-0.6-4.5
		c0-1.5,0.2-3,0.6-4.5c0.3-1.2,1-2.2,1.9-3c0.9-0.7,2.1-1.1,3.3-1.1c1.2,0,2.4,0.3,3.3,1.1c0.9,0.8,1.6,1.8,2,3
		c0.5,1.4,0.7,3,0.6,4.5c0,1.5-0.2,3-0.6,4.5c-0.4,1.2-1,2.2-2,3C596.3,885.9,595.1,886.3,593.9,886.2z M593.9,882.7
		c0.4,0,0.8-0.2,1-0.5c0.3-0.5,0.5-1,0.5-1.6c0.1-1,0.2-1.9,0.1-2.9c0-1,0-1.9-0.1-2.9c0-0.5-0.2-1.1-0.5-1.5
		c-0.2-0.3-0.6-0.5-1-0.5c-0.4,0-0.8,0.2-1,0.5c-0.3,0.5-0.5,1-0.5,1.5c-0.1,1-0.2,1.9-0.1,2.9c0,1,0,2,0.1,3c0,0.5,0.2,1.1,0.5,1.5
		C593.1,882.5,593.5,882.7,593.9,882.7z M601.8,886v-3.9h3.1v-8.7l-3.1,2.5v-4.2l3.2-2.4h4.1v12.7h3.1v3.9H601.8z M618.7,869.2
		c1.1,0,2.2,0.3,3.1,0.9c0.9,0.6,1.7,1.5,2.2,2.5c0.5,1.1,0.8,2.4,0.8,3.7c0,1.9-0.5,3.8-1.5,5.4c-0.9,1.6-2.1,3-3.4,4.3h-5.2v-0.1
		c0.8-0.6,1.6-1.1,2.2-1.6c0.6-0.5,1.2-1.1,1.7-1.8c0.6-0.7,1-1.5,1.3-2.3c-0.7,0.3-1.4,0.5-2.1,0.5c-0.9,0-1.8-0.2-2.5-0.6
		c-0.8-0.4-1.4-1-1.8-1.8c-0.5-0.9-0.7-1.9-0.7-2.9c0-1.1,0.2-2.3,0.8-3.3c0.5-0.9,1.2-1.6,2.1-2.1
		C616.7,869.4,617.7,869.2,618.7,869.2z M616.9,875.4c0,0.6,0.2,1.3,0.5,1.8c0.4,0.4,0.9,0.6,1.4,0.6c0.5,0,1-0.2,1.4-0.6
		c0.4-0.5,0.6-1.2,0.5-1.8c0-0.7-0.1-1.3-0.5-1.9c-0.3-0.4-0.8-0.7-1.4-0.6c-0.6,0-1.1,0.2-1.4,0.7
		C617.1,874.1,616.9,874.8,616.9,875.4L616.9,875.4z"/>
</g>
</svg>
