<svg xmlns="http://www.w3.org/2000/svg" viewBox="0 0 148.728 213.096">
  <defs>
    <style>
      .cls-1 {
        fill: #ccd73f;
      }

      .cls-2 {
        fill: #f0f0f0;
      }

      .cls-3 {
        fill: #cbd73e;
      }
    </style>
  </defs>
  <g id="basusjamlogo" transform="translate(-886 -686.971)">
    <path id="Path_55" data-name="Path 55" class="cls-1" d="M148.728,23.063v166.97A23.094,23.094,0,0,1,125.665,213.1H23.063A23.125,23.125,0,0,1,0,190.033V23.063A23.094,23.094,0,0,1,23.063,0H125.712A23.084,23.084,0,0,1,148.728,23.063Z" transform="translate(886 686.971)"/>
    <path id="Path_56" data-name="Path 56" class="cls-2" d="M149.331,28.864v166.97A17.911,17.911,0,0,1,131.466,213.7H28.864A17.911,17.911,0,0,1,11,195.835V28.864A17.911,17.911,0,0,1,28.864,11H131.513A17.9,17.9,0,0,1,149.331,28.864Z" transform="translate(880.199 681.169)"/>
    <ellipse id="Ellipse_4" data-name="Ellipse 4" class="cls-2" cx="32.373" cy="29.679" rx="32.373" ry="29.679" transform="translate(924.77 743.505) rotate(-45)"/>
    <path id="Path_57" data-name="Path 57" class="cls-1" d="M136.785,111.638a37.613,37.613,0,0,1-16.068-3.686A29.888,29.888,0,0,1,106.35,93.585c-5.482-11.673-4.868-24.2,1.607-34.405A34.113,34.113,0,0,1,136.833,43.3,37.613,37.613,0,0,1,152.9,46.986a29.888,29.888,0,0,1,14.367,14.367c5.482,11.673,4.868,24.2-1.607,34.405A34,34,0,0,1,136.785,111.638Zm0-63.612a29.333,29.333,0,0,0-24.859,13.658c-5.624,8.79-6.1,19.707-1.323,29.868a25.086,25.086,0,0,0,12.1,12.1,32.95,32.95,0,0,0,14.084,3.261,29.333,29.333,0,0,0,24.859-13.658c5.624-8.79,6.1-19.707,1.323-29.868a25.086,25.086,0,0,0-12.1-12.1A32.95,32.95,0,0,0,136.785,48.026Z" transform="translate(831.873 664.134)"/>
    <path id="Path_58" data-name="Path 58" class="cls-2" d="M98.731,120.525A44.8,44.8,0,0,0,49.013,85.458a44.844,44.844,0,0,0-2.5,26.7,43.61,43.61,0,0,0,4.112,11.39l-7.42,8.743,14.131.8a44.757,44.757,0,0,0,38.9,14.131A44.844,44.844,0,0,0,98.731,120.525Z" transform="translate(863.216 642.109)"/>
    <path id="Path_59" data-name="Path 59" class="cls-1" d="M84.833,147.3h0a47.382,47.382,0,0,1-34.075-14.556L32.8,131.7l9.547-11.153a49.189,49.189,0,0,1-3.639-10.586,46.657,46.657,0,0,1,2.647-28.12l.52-1.229,1.323-.189A46.12,46.12,0,0,1,49.436,80a47.243,47.243,0,0,1,46.126,37.336,46.657,46.657,0,0,1-2.647,28.12l-.52,1.229-1.323.189A46.118,46.118,0,0,1,84.833,147.3ZM42.583,127.544l10.35.567.662.709a42.555,42.555,0,0,0,31.239,13.753h0c1.418,0,2.836-.095,4.253-.236A42.435,42.435,0,0,0,75.949,94.084a42.773,42.773,0,0,0-30.766-9.121,42.022,42.022,0,0,0-1.843,24.008,43.09,43.09,0,0,0,3.923,10.823l.756,1.418Z" transform="translate(868.701 644.779)"/>
    <path id="Path_60" data-name="Path 60" class="cls-2" d="M199.758,121.669a53.6,53.6,0,0,0-64.321,65.361,53.339,53.339,0,0,0,32-2.268,38.341,38.341,0,0,0,9.5-4.868l20.227.189-9.783-9.027A53.825,53.825,0,0,0,199.758,121.669Z" transform="translate(815.451 623.573)"/>
    <path id="Path_61" data-name="Path 61" class="cls-1" d="M145.166,188.27a57.439,57.439,0,0,1-13-1.512l-1.371-.331-.331-1.371a56.026,56.026,0,0,1,33.791-65.881,55.408,55.408,0,0,1,20.464-3.875,57.439,57.439,0,0,1,13,1.512l1.371.331.331,1.371a55.852,55.852,0,0,1-11.39,49.812l12.618,11.626-25.615-.236a38.539,38.539,0,0,1-9.358,4.679A56.823,56.823,0,0,1,145.166,188.27Zm-10.492-5.813a52.012,52.012,0,0,0,10.492,1.087A50.823,50.823,0,0,0,163.881,180a34.8,34.8,0,0,0,8.979-4.584l.614-.425,14.887.142-6.995-6.475,1.607-1.749a51.106,51.106,0,0,0,12.193-45.842,52.012,52.012,0,0,0-10.492-1.087,51.259,51.259,0,0,0-50,62.478Z" transform="translate(818.104 626.162)"/>
    <path id="Path_62" data-name="Path 62" class="cls-3" d="M37,338.1h6.38a7.622,7.622,0,0,1,4.537,1.087,3.9,3.9,0,0,1,1.371,3.261,4.453,4.453,0,0,1-.425,2.032,2.986,2.986,0,0,1-1.418,1.323v.047a3.242,3.242,0,0,1,1.89,1.276,4.486,4.486,0,0,1,.662,2.6,4.087,4.087,0,0,1-1.465,3.45c-.945.8-2.552,1.182-4.726,1.182H37Zm6.995,6.38a1.96,1.96,0,0,0,1.276-.331,1.191,1.191,0,0,0,.378-.992,1.393,1.393,0,0,0-.378-1.04,1.878,1.878,0,0,0-1.276-.331H41.159v2.741h2.836Zm.142,6A2.469,2.469,0,0,0,45.6,350.1a1.565,1.565,0,0,0,.473-1.134,1.255,1.255,0,0,0-.425-1.04,2.666,2.666,0,0,0-1.465-.331H41.206v2.883Z" transform="translate(866.486 508.657)"/>
    <path id="Path_63" data-name="Path 63" class="cls-3" d="M77.137,354.3l-.8-2.93H70.946l-.8,2.93H65.7L70.946,338h5.482l5.246,16.3Zm-5.246-6.427h3.45l-1.654-6h-.095Z" transform="translate(851.35 508.71)"/>
    <path id="Path_64" data-name="Path 64" class="cls-3" d="M115.936,354.094a17.97,17.97,0,0,1-2.6-.756v-4.49h.095a12.52,12.52,0,0,0,2.552,1.182,6.956,6.956,0,0,0,2.363.473,2.411,2.411,0,0,0,1.418-.378,1.233,1.233,0,0,0,.52-.992.974.974,0,0,0-.331-.8,3.364,3.364,0,0,0-.8-.52c-.331-.142-.8-.284-1.418-.473a18.632,18.632,0,0,1-2.363-.851,4.118,4.118,0,0,1-1.607-1.418,4.338,4.338,0,0,1-.662-2.6,4.922,4.922,0,0,1,.709-2.741,4.187,4.187,0,0,1,1.985-1.607,7.331,7.331,0,0,1,2.788-.52,8.794,8.794,0,0,1,2.458.331,10.168,10.168,0,0,1,2.363.9v4.064h-.095a11.938,11.938,0,0,0-2.458-1.229,6.916,6.916,0,0,0-2.316-.52,1.921,1.921,0,0,0-.992.236.777.777,0,0,0-.378.709.933.933,0,0,0,.284.662,1.779,1.779,0,0,0,.709.425c.284.095.709.236,1.229.378a14.767,14.767,0,0,1,2.5.945,4.439,4.439,0,0,1,1.7,1.56,5.1,5.1,0,0,1,.709,2.883,5.53,5.53,0,0,1-.756,3.025,4.629,4.629,0,0,1-2.079,1.843,7.209,7.209,0,0,1-3.119.614C117.637,354.33,116.786,354.283,115.936,354.094Z" transform="translate(826.351 508.921)"/>
    <path id="Path_65" data-name="Path 65" class="cls-3" d="M142.46,352.892a7.1,7.1,0,0,1-1.56-4.962V338.1h4.112v9.972a2.511,2.511,0,0,0,.567,1.749,2,2,0,0,0,1.607.614,2.149,2.149,0,0,0,1.7-.614,2.53,2.53,0,0,0,.614-1.749V338.1h4.112v9.736a7.443,7.443,0,0,1-1.56,5.057c-1.04,1.181-2.647,1.749-4.868,1.749A6.347,6.347,0,0,1,142.46,352.892Z" transform="translate(811.69 508.657)"/>
    <path id="Path_66" data-name="Path 66" class="cls-3" d="M175.436,354.094a17.969,17.969,0,0,1-2.6-.756v-4.49h.095a12.519,12.519,0,0,0,2.552,1.182,6.956,6.956,0,0,0,2.363.473,2.411,2.411,0,0,0,1.418-.378,1.233,1.233,0,0,0,.52-.992.974.974,0,0,0-.331-.8,3.365,3.365,0,0,0-.8-.52c-.331-.142-.8-.284-1.418-.473a18.633,18.633,0,0,1-2.363-.851,4.118,4.118,0,0,1-1.607-1.418,4.338,4.338,0,0,1-.662-2.6,4.922,4.922,0,0,1,.709-2.741,4.187,4.187,0,0,1,1.985-1.607,7.331,7.331,0,0,1,2.788-.52,8.794,8.794,0,0,1,2.458.331,10.168,10.168,0,0,1,2.363.9v4.064h-.095a11.937,11.937,0,0,0-2.458-1.229,6.916,6.916,0,0,0-2.316-.52,1.921,1.921,0,0,0-.992.236.777.777,0,0,0-.378.709.933.933,0,0,0,.284.662,1.779,1.779,0,0,0,.709.425c.284.095.709.236,1.229.378a14.768,14.768,0,0,1,2.5.945,4.439,4.439,0,0,1,1.7,1.56,5.1,5.1,0,0,1,.709,2.883,5.53,5.53,0,0,1-.756,3.025,4.629,4.629,0,0,1-2.079,1.843,7.21,7.21,0,0,1-3.119.614C177.137,354.33,176.334,354.283,175.436,354.094Z" transform="translate(794.971 508.921)"/>
    <path id="Path_67" data-name="Path 67" class="cls-3" d="M199.834,354.594a4.062,4.062,0,0,1-1.134-.189v-3.734l.567.047a4.921,4.921,0,0,0,.52.047,3.6,3.6,0,0,0,.662.047,3.393,3.393,0,0,0,.8-.095c.189-.047.331-.236.473-.473a2.779,2.779,0,0,0,.189-1.229V338.1h4.159v11.815a5.1,5.1,0,0,1-.567,2.458,3.841,3.841,0,0,1-1.7,1.654,5.755,5.755,0,0,1-2.647.567Z" transform="translate(781.206 508.657)"/>
    <path id="Path_68" data-name="Path 68" class="cls-3" d="M227.637,354.3l-.8-2.93h-5.388l-.8,2.93H216.2l5.246-16.3h5.482l5.246,16.3Zm-5.246-6.427h3.45l-1.654-6h-.095Z" transform="translate(771.977 508.71)"/>
    <path id="Path_69" data-name="Path 69" class="cls-3" d="M253.1,354.3V338h5.813l3.355,10.681,3.4-10.681h5.813v16.3h-4.112V343.719h-.142L263.97,354.3h-3.4l-3.261-10.586h-.142V354.3Z" transform="translate(752.516 508.71)"/>
    <rect id="Rectangle_6" data-name="Rectangle 6" class="cls-3" width="144.285" height="4.726" transform="translate(888.883 833.052)"/>
    <path id="Path_14577" data-name="Path 14577" class="cls-1" d="M12.188-11.953a6.533,6.533,0,0,1-1.646,4.371A17.771,17.771,0,0,1,5.777-3.891H12.07V0H1.148V-4.512A31.582,31.582,0,0,0,6.223-8.244a4.749,4.749,0,0,0,1.84-3.182A1.193,1.193,0,0,0,7.6-12.463,2.114,2.114,0,0,0,6.34-12.8a8.078,8.078,0,0,0-2.643.533,12.424,12.424,0,0,0-2.549,1.2v-4.371a13.326,13.326,0,0,1,2.684-1A11.326,11.326,0,0,1,6.668-16.8a7.373,7.373,0,0,1,2.783.5,4.31,4.31,0,0,1,1.992,1.594A4.777,4.777,0,0,1,12.188-11.953ZM19.934.234A4.934,4.934,0,0,1,16.688-.838,6.291,6.291,0,0,1,14.76-3.826a14.441,14.441,0,0,1-.627-4.482,14.51,14.51,0,0,1,.621-4.477,6.217,6.217,0,0,1,1.922-2.977,4.969,4.969,0,0,1,3.258-1.066,5.064,5.064,0,0,1,3.293,1.072A6.323,6.323,0,0,1,25.2-12.773a13.979,13.979,0,0,1,.645,4.465A14.2,14.2,0,0,1,25.2-3.826,6.285,6.285,0,0,1,23.238-.838,5.082,5.082,0,0,1,19.934.234Zm0-3.574a1.194,1.194,0,0,0,1.02-.492,3.42,3.42,0,0,0,.5-1.553A23.513,23.513,0,0,0,21.6-8.309a22.059,22.059,0,0,0-.146-2.889,3.357,3.357,0,0,0-.5-1.523,1.194,1.194,0,0,0-1.014-.475,1.219,1.219,0,0,0-1.037.475,3.285,3.285,0,0,0-.5,1.506,22.9,22.9,0,0,0-.141,2.906A23.889,23.889,0,0,0,18.4-5.35a3.287,3.287,0,0,0,.5,1.535A1.222,1.222,0,0,0,19.934-3.34ZM27.785,0V-3.891h3.141v-8.66l-3.141,2.52V-14.2l3.164-2.355h4.09V-3.891h3.117V0ZM44.73-16.8a5.593,5.593,0,0,1,3.141.908,6.088,6.088,0,0,1,2.156,2.52A8.36,8.36,0,0,1,50.8-9.715a10.574,10.574,0,0,1-1.465,5.449A18.407,18.407,0,0,1,45.949,0H40.793V-.141q1.254-.867,2.168-1.641a12.563,12.563,0,0,0,1.723-1.793,9.515,9.515,0,0,0,1.336-2.3A4.47,4.47,0,0,1,43.91-5.4a5.468,5.468,0,0,1-2.543-.586,4.324,4.324,0,0,1-1.8-1.77,5.81,5.81,0,0,1-.668-2.895,6.563,6.563,0,0,1,.785-3.264,5.45,5.45,0,0,1,2.115-2.145A5.909,5.909,0,0,1,44.73-16.8Zm-1.8,6.246a2.658,2.658,0,0,0,.545,1.8,1.83,1.83,0,0,0,1.447.621,1.708,1.708,0,0,0,1.389-.615,2.821,2.821,0,0,0,.51-1.834,2.922,2.922,0,0,0-.521-1.875,1.684,1.684,0,0,0-1.377-.645,1.8,1.8,0,0,0-1.43.656A2.819,2.819,0,0,0,42.926-10.559Z" transform="translate(975 886)"/>
  </g>
</svg>
