<?xml version="1.0" encoding="utf-8"?>
<!-- Generator: Adobe Illustrator 23.0.3, SVG Export Plug-In . SVG Version: 6.00 Build 0)  -->
<svg version="1.1" id="Capa_1" xmlns="http://www.w3.org/2000/svg" xmlns:xlink="http://www.w3.org/1999/xlink" x="0px" y="0px"
	 viewBox="0 0 350 110" style="enable-background:new 0 0 350 110;" xml:space="preserve">
<style type="text/css">
	.st0{clip-path:url(#SVGID_2_);fill:#B27AB3;stroke:#842183;stroke-width:10;stroke-miterlimit:10;}
	.st1{clip-path:url(#SVGID_4_);}
	.st2{fill:#B27AB3;}
	.st3{fill:#832382;stroke:#FFFFFF;stroke-miterlimit:10;}
</style>
<g>
	<g>
		<defs>
			<rect id="SVGID_1_" x="-813.3" y="237" width="1706.3" height="580.7"/>
		</defs>
		<clipPath id="SVGID_2_">
			<use xlink:href="#SVGID_1_"  style="overflow:visible;"/>
		</clipPath>
		<path class="st0" d="M340.7,104.5h19l8.7,10.5l8.7-10.5h61.8c4.4,0,7.9-4.3,7.9-9.5V31.5c0-5.2-3.5-9.5-7.9-9.5h-98.2
			c-4.4,0-7.9,4.3-7.9,9.5V95C332.8,100.2,336.3,104.5,340.7,104.5z"/>
	</g>
	<g>
		<defs>
			<rect id="SVGID_3_" x="-813.3" y="237" width="1706.3" height="580.7"/>
		</defs>
		<clipPath id="SVGID_4_">
			<use xlink:href="#SVGID_3_"  style="overflow:visible;"/>
		</clipPath>
		<g class="st1">
			<path class="st2" d="M454-35.3H337.5c-2.6,0-4.7,2.1-4.7,4.7V1c0,2.6,2.1,4.7,4.7,4.7H454c2.6,0,4.7-2.1,4.7-4.7v-6.5l16.6-8.2
				l-16.6-8.9v-7.9C458.7-33.2,456.6-35.3,454-35.3z"/>
			<path class="st3" d="M454,10.9H337.5c-5.5,0-10-4.5-10-10v-31.5c0-5.5,4.5-10,10-10H454c5.5,0,10,4.5,10,10v4.8l22.8,12.2
				L464-2.3V1C464,6.5,459.5,10.9,454,10.9z M338,0.4h115.4v-9.2l10.3-5.1l-10.3-5.6V-30H338V0.4z"/>
		</g>
	</g>
</g>
<g>
	<rect x="1.4" y="88.1" width="347.3" height="16.9"/>
	<path d="M36.7,53.6c0,8.1-3.6,13.7-9.7,13.7c-5.3,0-9.7-5.6-9.7-13c0-7.6,3.9-13.3,9.7-13.3C33.3,40.9,36.7,46.8,36.7,53.6
		 M1.4,79.6h14.7v-9.1h0.2c2,5.7,8.5,10.3,15.9,10.3c13.7,0,21.1-12.5,21.1-27.6c0-12.3-7-25.8-19.8-25.8c-6.4,0-11.8,2.1-15.9,7.7
		h-0.2v-29L1.3,11.3L1.4,79.6L1.4,79.6z"/>
	<path d="M72.8,63.5c0-4.9,4.3-6.8,9.7-6.8c2.4,0,4.7,0.2,6.7,0.3c0,6-3.8,12-9.8,12C75.7,69,72.8,67,72.8,63.5 M105,79.6
		c-0.7-4-0.9-8-0.9-12v-19c0-15.6-10.2-21.2-22-21.2c-6.8,0-12.8,1.1-18.4,3.6L64,43c4.4-2.7,9.6-3.8,14.7-3.8
		c5.8,0,10.5,1.9,10.6,8.8c-2-0.4-4.9-0.7-7.4-0.7c-8.5,0-23.9,1.9-23.9,17.4c0,11.1,8.2,16.1,17.3,16.1c6.6,0,11-2.8,14.6-9.2H90
		c0,2.6,0.3,5.3,0.4,8C90.4,79.6,105,79.6,105,79.6z"/>
	<path d="M163.6,79.6H149v-9.4h-0.2c-3.2,7.3-9.6,10.6-16.8,10.6c-12.6,0-17.7-9.8-17.7-20.4V28.7h16v24.6c0,9.6,3,12.8,7.4,12.8
		c6.6,0,9.9-5,9.9-16V28.7h16V79.6z"/>
	<path d="M181.1,40.9h-9.4V28.7h9.7v-3.2c0-15.2,6.5-20.5,19.2-20.5c3.5,0,6.1,0.6,8.2,1l-1,12.1c-1.3-0.5-2.7-0.8-5-0.8
		c-4.1,0-5.7,3.1-5.7,8.1v3.2h11.3v12.2h-11.3v38.7h-16V40.9z"/>
	<path d="M228.1,49.3c0.4-5.9,3.1-10.7,8.9-10.7c6.4,0,8.9,4.8,8.9,10.7H228.1z M260.2,59.3V56c0-15.2-6.2-28.6-23.3-28.6
		c-14.4,0-24.7,9.8-24.7,26.6s11.6,26.7,26.9,26.7c5.9,0,11.8-1,16.9-3.2V65.1c-4.8,2.8-9.8,3.9-14.1,3.9c-7.8,0-12.7-2.7-13.6-9.8
		C228.3,59.3,260.2,59.3,260.2,59.3z"/>
	<path d="M269,65.5c3.7,1.8,9.2,3.5,15,3.5c3.3,0,6.5-0.6,6.5-4.1c0-8.6-22.7-2.5-22.7-21c0-11.7,10.5-16.5,19.7-16.5
		c5.5,0,11.1,0.7,16.2,2.9l-1.2,12.2c-3.4-2.2-8.4-3.4-12.4-3.4c-3.5,0-7.4,0.7-7.4,3.5c0,7.9,23.8,1.7,23.8,21.1
		c0,13.6-11.1,17-21.6,17c-7.2,0-12.1-0.8-16.8-2.4L269,65.5z"/>
	<path d="M311.1,28.7h9.4V11.6l15.7-5.4v22.5h11.2v12.2h-11.2v18.8c0,6.2,1.3,9.3,6.4,9.3c1.6,0,3.3-0.4,4.9-0.7l0.5,11.5
		c-3,0.4-6,1-10,1c-14.3,0-17.7-7-17.7-19.1V40.9h-9.1V28.7z"/>
</g>
</svg>
