<?xml version="1.0" encoding="utf-8"?>
<!-- Generator: Adobe Illustrator 23.0.3, SVG Export Plug-In . SVG Version: 6.00 Build 0)  -->
<svg version="1.1" xmlns="http://www.w3.org/2000/svg" xmlns:xlink="http://www.w3.org/1999/xlink" x="0px" y="0px"
	 viewBox="0 0 456 456" style="enable-background:new 0 0 456 456;" xml:space="preserve">
<style type="text/css">
	.st0{display:none;}
	.st1{display:inline;opacity:0.5;fill:#FFFFFF;}
	.st2{display:inline;}
	.st3{display:inline;fill:url(#SVGID_1_);}
	.st4{display:inline;fill:url(#SVGID_2_);}
	.st5{display:inline;fill:url(#SVGID_3_);}
	.st6{display:inline;fill:url(#SVGID_4_);}
	.st7{display:inline;fill:url(#SVGID_5_);}
	.st8{display:inline;fill:url(#SVGID_6_);}
	.st9{display:inline;fill:url(#SVGID_7_);}
	.st10{display:inline;fill:url(#SVGID_8_);}
	.st11{display:inline;fill:url(#SVGID_9_);}
	.st12{display:inline;fill:url(#SVGID_10_);}
	.st13{display:inline;fill:#FFFFFF;}
</style>
<g id="Capa_2" class="st0">
</g>
<g id="Capa_1" class="st0">
	<rect x="987" y="-2349" class="st1" width="871" height="871"/>
	<rect x="987" y="-2349" class="st1" width="871" height="871"/>
	<rect x="987" y="-1338" class="st1" width="871" height="871"/>
	<rect x="987" y="-1338" class="st1" width="871" height="871"/>
	<rect x="-207" y="-1338" class="st1" width="871" height="871"/>
	<rect x="-207" y="-1338" class="st1" width="871" height="871"/>
	<rect x="-2175" y="-209" class="st1" width="871" height="871"/>
	<rect x="-2175" y="-209" class="st1" width="871" height="871"/>
	<rect x="-207" y="-2349" class="st1" width="871" height="871"/>
	<rect x="-207" y="-2349" class="st1" width="871" height="871"/>
	<rect x="-1335" y="-1338" class="st1" width="871" height="871"/>
	<rect x="-1335" y="-1338" class="st1" width="871" height="871"/>
	<rect x="-1335" y="-2349" class="st1" width="871" height="871"/>
	<rect x="-1335" y="-2349" class="st1" width="871" height="871"/>
	<rect x="-2472" y="-1338" class="st1" width="871" height="871"/>
	<rect x="-2472" y="-1338" class="st1" width="871" height="871"/>
	<rect x="-2472" y="-2349" class="st1" width="871" height="871"/>
	<rect x="-2472" y="-2349" class="st1" width="871" height="871"/>
	<g class="st2">
		<text transform="matrix(1 0 0 1 -2017.8752 -2538.6167)"><tspan x="0" y="0" style="fill:#3E81C5; font-family:'OpenSans-Bold'; font-size:15.5428px;">CÁTEDRA FLESLER</tspan><tspan x="151.2" y="0" style="fill:#4D4D4D; font-family:'OpenSans-Bold'; font-size:15.5428px;"> </tspan><tspan x="156.1" y="0" style="fill:#744099; font-family:'OpenSans-Bold'; font-size:15.5428px;">/ FADU</tspan><tspan x="214.7" y="0" style="fill:#4D4D4D; font-family:'OpenSans-Bold'; font-size:15.5428px;"> </tspan><tspan x="219.7" y="0" style="fill:#D4377D; font-family:'OpenSans-Bold'; font-size:15.5428px;">/ UBA</tspan></text>
	</g>
</g>
<g id="Capa_5" class="st0">
</g>
<g id="Capa_6" class="st0">
	<linearGradient id="SVGID_1_" gradientUnits="userSpaceOnUse" x1="969.6111" y1="-2228.1763" x2="1860.2123" y2="-1605.7487">
		<stop  offset="0" style="stop-color:#ED2525"/>
		<stop  offset="0.25" style="stop-color:#F7BF14"/>
		<stop  offset="0.5" style="stop-color:#0AACE2"/>
		<stop  offset="0.75" style="stop-color:#604199"/>
		<stop  offset="1" style="stop-color:#E42525"/>
	</linearGradient>
	<path class="st3" d="M1012.7-2321.2v818.2H1831v-818.2H1012.7z M1795.5-1538.5h-747v-747h747V-1538.5z"/>
	<linearGradient id="SVGID_2_" gradientUnits="userSpaceOnUse" x1="2739.6111" y1="-1217.1763" x2="3630.2124" y2="-594.7487">
		<stop  offset="0" style="stop-color:#ED2525"/>
		<stop  offset="0.25" style="stop-color:#F7BF14"/>
		<stop  offset="0.5" style="stop-color:#0AACE2"/>
		<stop  offset="0.75" style="stop-color:#604199"/>
		<stop  offset="1" style="stop-color:#E42525"/>
	</linearGradient>
	<path class="st4" d="M2782.7-1310.2V-492H3601v-818.2H2782.7z M3565.5-527.5h-747v-747h747V-527.5z"/>
	<linearGradient id="SVGID_3_" gradientUnits="userSpaceOnUse" x1="969.6111" y1="-1217.1763" x2="1860.2123" y2="-594.7487">
		<stop  offset="0" style="stop-color:#ED2525"/>
		<stop  offset="0.25" style="stop-color:#F7BF14"/>
		<stop  offset="0.5" style="stop-color:#0AACE2"/>
		<stop  offset="0.75" style="stop-color:#604199"/>
		<stop  offset="1" style="stop-color:#E42525"/>
	</linearGradient>
	<path class="st5" d="M1012.7-1310.2V-492H1831v-818.2H1012.7z M1795.5-527.5h-747v-747h747V-527.5z"/>
	<linearGradient id="SVGID_4_" gradientUnits="userSpaceOnUse" x1="-224.3889" y1="-1217.1763" x2="666.2123" y2="-594.7487">
		<stop  offset="0" style="stop-color:#ED2525"/>
		<stop  offset="0.25" style="stop-color:#F7BF14"/>
		<stop  offset="0.5" style="stop-color:#0AACE2"/>
		<stop  offset="0.75" style="stop-color:#604199"/>
		<stop  offset="1" style="stop-color:#E42525"/>
	</linearGradient>
	<path class="st6" d="M-181.3-1310.2V-492H637v-818.2H-181.3z M601.5-527.5h-747v-747h747V-527.5z"/>
	<linearGradient id="SVGID_5_" gradientUnits="userSpaceOnUse" x1="-2192.3889" y1="-88.1763" x2="-1301.7877" y2="534.2513">
		<stop  offset="0" style="stop-color:#ED2525"/>
		<stop  offset="0.25" style="stop-color:#F7BF14"/>
		<stop  offset="0.5" style="stop-color:#0AACE2"/>
		<stop  offset="0.75" style="stop-color:#604199"/>
		<stop  offset="1" style="stop-color:#E42525"/>
	</linearGradient>
	<path class="st7" d="M-2149.3-181.2V637h818.3v-818.2H-2149.3z M-1366.5,601.5h-747v-747h747V601.5z"/>
	<linearGradient id="SVGID_6_" gradientUnits="userSpaceOnUse" x1="-224.3889" y1="-2228.1763" x2="666.2123" y2="-1605.7487">
		<stop  offset="0" style="stop-color:#ED2525"/>
		<stop  offset="0.25" style="stop-color:#F7BF14"/>
		<stop  offset="0.5" style="stop-color:#0AACE2"/>
		<stop  offset="0.75" style="stop-color:#604199"/>
		<stop  offset="1" style="stop-color:#E42525"/>
	</linearGradient>
	<path class="st8" d="M-181.3-2321.2v818.2H637v-818.2H-181.3z M601.5-1538.5h-747v-747h747V-1538.5z"/>
	<linearGradient id="SVGID_7_" gradientUnits="userSpaceOnUse" x1="-1352.3889" y1="-1217.1763" x2="-461.7877" y2="-594.7487">
		<stop  offset="0" style="stop-color:#ED2525"/>
		<stop  offset="0.25" style="stop-color:#F7BF14"/>
		<stop  offset="0.5" style="stop-color:#0AACE2"/>
		<stop  offset="0.75" style="stop-color:#604199"/>
		<stop  offset="1" style="stop-color:#E42525"/>
	</linearGradient>
	<path class="st9" d="M-1309.3-1310.2V-492H-491v-818.2H-1309.3z M-526.5-527.5h-747v-747h747V-527.5z"/>
	<linearGradient id="SVGID_8_" gradientUnits="userSpaceOnUse" x1="-2489.3889" y1="-1217.1763" x2="-1598.7877" y2="-594.7487">
		<stop  offset="0" style="stop-color:#ED2525"/>
		<stop  offset="0.25" style="stop-color:#F7BF14"/>
		<stop  offset="0.5" style="stop-color:#0AACE2"/>
		<stop  offset="0.75" style="stop-color:#604199"/>
		<stop  offset="1" style="stop-color:#E42525"/>
	</linearGradient>
	<path class="st10" d="M-2446.3-1310.2V-492h818.3v-818.2H-2446.3z M-1663.5-527.5h-747v-747h747V-527.5z"/>
	<linearGradient id="SVGID_9_" gradientUnits="userSpaceOnUse" x1="-2489.3889" y1="-2228.1763" x2="-1598.7877" y2="-1605.7487">
		<stop  offset="0" style="stop-color:#ED2525"/>
		<stop  offset="0.25" style="stop-color:#F7BF14"/>
		<stop  offset="0.5" style="stop-color:#0AACE2"/>
		<stop  offset="0.75" style="stop-color:#604199"/>
		<stop  offset="1" style="stop-color:#E42525"/>
	</linearGradient>
	<path class="st11" d="M-2446.3-2321.2v818.2h818.3v-818.2H-2446.3z M-1663.5-1538.5h-747v-747h747V-1538.5z"/>
	<linearGradient id="SVGID_10_" gradientUnits="userSpaceOnUse" x1="-1352.3889" y1="-2228.1763" x2="-461.7877" y2="-1605.7487">
		<stop  offset="0" style="stop-color:#ED2525"/>
		<stop  offset="0.25" style="stop-color:#F7BF14"/>
		<stop  offset="0.5" style="stop-color:#0AACE2"/>
		<stop  offset="0.75" style="stop-color:#604199"/>
		<stop  offset="1" style="stop-color:#E42525"/>
	</linearGradient>
	<path class="st12" d="M-1309.3-2321.2v818.2H-491v-818.2H-1309.3z M-526.5-1538.5h-747v-747h747V-1538.5z"/>
</g>
<g id="Capa_3" class="st0">
	<rect x="1072.3" y="-616.6" class="st13" width="233.6" height="61.2"/>
	
		<text transform="matrix(1 0 0 1 1093.4609 -573.0957)" style="display:inline;fill:#744099; font-family:'OpenSans-Bold'; font-size:35.4176px; letter-spacing:1;">ana falú</text>
	<rect x="-121.7" y="-616.6" class="st13" width="233.6" height="61.2"/>
	
		<text transform="matrix(1 0 0 1 -100.5391 -573.0957)" style="display:inline;fill:#744099; font-family:'OpenSans-Bold'; font-size:35.4176px; letter-spacing:1;">ana falú</text>
	<rect x="267" y="-616.6" class="st13" width="295" height="61.2"/>
	
		<text transform="matrix(1 0 0 1 283.4609 -573.0957)" style="display:inline;fill:#744099; font-family:'OpenSans-Bold'; font-size:35.4176px; letter-spacing:1;">inés moisset</text>
	<rect x="155" y="-2261.6" class="st13" width="418.6" height="61.2"/>
	
		<text transform="matrix(1 0 0 1 173.4609 -2218.0957)" style="display:inline;fill:#744099; font-family:'OpenSans-Bold'; font-size:35.4176px; letter-spacing:1;">ana laura martin</text>
	<rect x="-1249.7" y="-616.6" class="st13" width="349.6" height="61.2"/>
	
		<text transform="matrix(1 0 0 1 -1228.5391 -573.0957)" style="display:inline;fill:#744099; font-family:'OpenSans-Bold'; font-size:35.4176px; letter-spacing:1;">rafael blanco</text>
	<rect x="-1242.1" y="-2261.6" class="st13" width="294.1" height="61.2"/>
	
		<text transform="matrix(1 0 0 1 -1220.4854 -2218.0952)" style="display:inline;fill:#744099; font-family:'OpenSans-Bold'; font-size:35.4176px; letter-spacing:1;">julia  kratje</text>
	<rect x="-2386.6" y="-616.6" class="st13" width="693.7" height="61.2"/>
	
		<text transform="matrix(1 0 0 1 -2365.5391 -573.0957)" style="display:inline;fill:#744099; font-family:'OpenSans-Bold'; font-size:35.4176px; letter-spacing:2;">carolina quiroga, zaida muxi</text>
	<rect x="-2387.3" y="-1627.6" class="st13" width="313.6" height="61.2"/>
	
		<text transform="matrix(1 0 0 1 -2368.5391 -1584.0957)" style="display:inline;fill:#744099; font-family:'OpenSans-Bold'; font-size:35.4176px; letter-spacing:1;">Diana Maffia</text>
</g>
<g id="Capa_4">
	<g>
		<path d="M228,14C109.8,14,14,109.8,14,228s95.8,214,214,214s214-95.8,214-214S346.2,14,228,14z M228,413.5
			c-102.4,0-185.5-83-185.5-185.5c0-102.4,83-185.5,185.5-185.5s185.5,83,185.5,185.5C413.5,330.4,330.4,413.5,228,413.5z"/>
		<path d="M153.4,140.3c-0.4,1.8-0.6,3.2-0.6,4.2c0,1,0,1.8,0.1,2.3c3.4,0,6.1,0.4,8.1,1.3v53.7c0,2.3-0.6,3.9-1.8,4.9
			c-1.2,1-3,1.6-5.4,2c-0.4,1.4-0.6,2.7-0.6,3.9c0,1.2,0,2.1,0,2.7h35.5c10.9,0,19.9-3.3,27-9.9c7.1-6.6,10.6-15.8,10.6-27.6
			c0-11.8-3.7-21-11.1-27.6c-7.4-6.6-16.9-9.9-28.3-9.9H153.4z M206.5,177.8c0,9.8-1.8,17.3-5.4,22.5c-3.6,5.2-8.9,7.7-15.9,7.7
			h-5.9v-60.5h5C199.1,147.4,206.5,157.6,206.5,177.8z"/>
		<path d="M231,146.6c0.2,0,0.9,0,2,0c1.1,0,2.5,0.3,4.4,0.8l21.3,35.6v18.7c0,1.7-0.5,3.1-1.4,4.1c-1,1-1.9,1.7-2.8,2
			c-0.9,0.3-2.2,0.6-3.9,0.9c-0.2,1.7-0.3,3.1-0.3,4.2c0,1.1,0,1.9,0,2.4h37.2c0.3-1.9,0.5-4.1,0.5-6.6c-4.2,0-7.2-0.3-9-0.8v-24.8
			l17.8-29.6c1-1.5,1.8-2.7,2.3-3.3c1.3-1.8,3.7-3,7-3.5c0.5-2,0.8-4.1,0.9-6.3h-22.6c-0.4,1.9-0.7,4-0.8,6.3c2.5,0.1,4.5,0.4,6,0.9
			l-11,19c-2.2,3.6-3.7,7-4.5,10h-0.5l-11.9-21.8c-0.8-1.3-1.2-2.5-1.2-3.6c0-2.6,2.5-4.2,7.6-4.6c0-1.7-0.3-3.8-0.8-6.3h-37
			C230.4,142,230.6,144.1,231,146.6z"/>
		<path d="M160.8,301.2c-1.2,1-3,1.6-5.4,2c-0.5,1.4-0.7,2.7-0.7,3.9c0,1.2,0,2.1,0,2.7h60.1c0.1-2.3,0.1-5.3,0.1-9.1
			c0-3.8-0.2-8.2-0.6-13.3c-1.5-0.4-3-0.6-4.5-0.6c-1.5,0-2.7,0-3.6,0.1v0.3l-0.6,5.5c-0.2,0.9-0.5,2.2-0.9,3.7
			c-0.5,1.6-1,2.7-1.6,3.4c-1.5,1.7-3.6,2.5-6.5,2.5h-15.6v-26.4l15.2,1h5.1V267h-5.1l-15.2,1.6V242h15.4c3.6,0,6,1.3,7.1,3.9
			c0.7,1.4,1.3,4.9,1.8,10.6c3.3,0,5.9-0.1,7.7-0.2c0.5-4.9,0.7-9.3,0.7-13.2c0-3.9,0-6.6,0-8.2H155c-0.4,1.6-0.6,3-0.6,4.1
			c0,1.1,0,1.9,0,2.4c3.5,0,6.3,0.4,8.2,1.3v53.7C162.6,298.6,162,300.2,160.8,301.2z"/>
		<path d="M295.8,309.8v-23.5c0-1.8,0.5-3.2,1.4-4.2c0.9-1,3-1.9,6.3-2.8c0.4-1.8,0.6-3.3,0.6-4.6c0-1.3,0-2.2,0-2.7h-33.9
			c-0.3,1.9-0.5,4.3-0.5,7.3c4.2,0,7.6,0.4,10.1,1.3v18.8c-3.3,1.5-6.7,2.3-10.1,2.3c-6.5,0-11.6-2.5-15.3-7.4
			c-3.7-4.9-5.5-12.2-5.5-21.8c0-9.6,2-16.9,5.9-21.9c3.9-5,9-7.5,15.3-7.5c4.8,0,8.8,1.3,12,4c3.2,2.7,5.3,6.5,6.3,11.3
			c1.8,0.1,3.1,0.1,4,0.1c0.9,0,1.5,0,1.9,0c1.5-7.5,2.4-14.6,2.8-21.2c-8.6-2.7-17.6-4-26.9-4c-11.1,0-20.7,3.6-28.8,10.9
			c-8.1,7.3-12.2,16.8-12.2,28.6c0,11.8,3.6,21.2,10.7,28.1c7.1,7,15.8,10.4,26,10.4c6.1,0,12-1.5,17.6-4.6l2.4,3.1H295.8z"/>
		<path d="M81.9,214.4c0.3-2.9-0.2-5.2-1.6-6.9c-1.3-1.7-3.4-2.7-6.3-3c-2.7-0.3-4.8,0.2-6.4,1.6c-1.6,1.3-2.6,3.3-2.9,6l-0.5,5.3
			l17.2,1.8L81.9,214.4z M80.1,214.6l-0.3,2.4l-13.7-1.4l0.3-2.9c0.2-2.2,1-3.8,2.2-4.8c1.3-1,3-1.4,5.2-1.2c2.3,0.2,4,1,5,2.3
			C80,210.3,80.4,212.2,80.1,214.6z"/>
		<rect x="75" y="187.2" transform="matrix(0.2067 -0.9784 0.9784 0.2067 -131.3021 229.6912)" width="2" height="17.2"/>
		<path d="M73.7,185.9c1.2,0.4,2.3,0.3,3.2-0.1s1.9-1.3,3-2.7c0.7-1,1.3-1.7,1.8-2.1c0.5-0.4,0.9-0.7,1.4-0.8
			c0.4-0.1,0.9-0.1,1.5,0.1c0.9,0.3,1.4,0.8,1.7,1.6s0.2,1.8-0.2,3.1c-0.2,0.8-0.6,1.5-1,2.3c-0.4,0.7-0.9,1.4-1.4,2l1.8,0.6
			c0.8-0.9,1.5-2.3,2.1-4.3c0.6-1.8,0.6-3.4,0.1-4.7c-0.5-1.3-1.5-2.2-2.9-2.6c-1.1-0.3-2.1-0.3-3.1,0.1c-0.9,0.4-1.9,1.4-3.1,3
			c-0.7,0.9-1.3,1.6-1.7,2c-0.5,0.4-0.9,0.7-1.3,0.8c-0.4,0.1-0.9,0.1-1.5-0.1c-0.8-0.2-1.3-0.7-1.6-1.4s-0.2-1.6,0.1-2.6
			c0.4-1.3,1.1-2.5,2.1-3.7l-1.5-1.1c-1,1.2-1.8,2.6-2.3,4.2c-0.5,1.6-0.5,3,0,4.1C71.5,184.7,72.4,185.5,73.7,185.9z"/>
		<polygon points="95.6,164.5 93.9,163.8 90.9,170.8 85.1,168.2 87.9,161.7 86.3,161 83.4,167.5 78.3,165.3 81.4,158.3 79.8,157.6 
			75.9,166.4 91.7,173.3 		"/>
		<path d="M100.5,145.8c1,0.5,1.6,0.9,1.8,1l0,0.1L85,147.5l-1.2,1.9l14.8,8.9l1-1.6l-8.4-5c-1.2-0.7-2.6-1.5-4.1-2.2l0-0.1
			l17.3-0.6l1.2-2l-14.8-8.9l-1,1.6l8.5,5.1C98.7,144.9,99.5,145.3,100.5,145.8z"/>
		<path d="M84,146.6l0.6-1c-0.4-0.3-0.6-0.7-0.7-1c-0.1-0.3,0-0.6,0.2-0.9c0.1-0.2,0.3-0.4,0.6-0.6s0.6-0.3,0.9-0.5s0.6-0.4,0.9-0.6
			c0.3-0.2,0.5-0.4,0.7-0.7c0.4-0.6,0.5-1.3,0.2-1.9c-0.2-0.7-0.7-1.3-1.5-1.9l-0.6,1c0.4,0.4,0.6,0.7,0.7,1
			c0.1,0.3,0.1,0.6-0.1,0.9c-0.1,0.2-0.3,0.4-0.6,0.6c-0.3,0.2-0.6,0.3-0.9,0.5c-0.3,0.2-0.6,0.4-0.9,0.6c-0.3,0.2-0.5,0.5-0.7,0.8
			c-0.4,0.6-0.4,1.3-0.2,1.9C82.7,145.4,83.2,146,84,146.6z"/>
		<path d="M102.8,135.6c2.2,1.8,4.3,2.7,6.4,2.6c2.1-0.1,3.9-1.1,5.5-3.1c1.6-1.9,2.2-3.9,1.9-6c-0.3-2.1-1.6-4-3.7-5.8
			c-2.1-1.8-4.3-2.6-6.4-2.5c-2.1,0.1-3.9,1.1-5.5,3c-1.6,2-2.3,4-2,6S100.6,133.8,102.8,135.6z M102.4,125c1.2-1.5,2.6-2.2,4.1-2.2
			c1.5,0,3.2,0.8,5,2.2c1.8,1.5,2.9,3,3.2,4.5c0.3,1.5-0.1,3-1.4,4.5c-1.2,1.5-2.6,2.2-4.2,2.2c-1.6,0-3.2-0.7-5.1-2.2
			c-1.8-1.5-2.8-3-3.1-4.5C100.7,127.9,101.2,126.4,102.4,125z"/>
		<polygon points="134.1,115.3 135.7,114 131.5,108.8 129.2,97 127.5,98.4 129.5,107.9 120.4,104.2 118.8,105.6 130,110.2 		"/>
		<polygon points="161.2,97.3 160.3,95.7 153.7,99.4 150.6,93.9 156.8,90.4 156,88.8 149.7,92.3 147,87.5 153.7,83.8 152.8,82.2 
			144.4,86.9 152.8,102 		"/>
		<path d="M163.7,84.9c0.9,0.5,2.3,0.6,4,0.6c1.2-0.1,2.1-0.1,2.8,0c0.6,0.1,1.1,0.3,1.5,0.5s0.7,0.7,0.9,1.2
			c0.3,0.8,0.3,1.6-0.1,2.3c-0.4,0.7-1.3,1.3-2.5,1.9c-0.8,0.3-1.6,0.6-2.4,0.7s-1.6,0.2-2.4,0.2l0.7,1.8c1.2,0.1,2.8-0.3,4.7-1.1
			c1.7-0.7,3-1.7,3.6-2.9s0.7-2.5,0.2-3.9c-0.5-1.1-1.1-1.8-2-2.3c-0.9-0.4-2.3-0.6-4.2-0.5c-1.1,0.1-2,0-2.6-0.1
			c-0.6-0.1-1.1-0.3-1.4-0.5c-0.3-0.3-0.6-0.7-0.9-1.2c-0.3-0.7-0.3-1.4,0.1-2.1c0.4-0.7,1.1-1.2,2-1.6c1.2-0.5,2.6-0.8,4.2-0.8
			l-0.1-1.9c-1.6,0-3.1,0.3-4.7,0.9c-1.5,0.6-2.6,1.5-3.2,2.6c-0.6,1.1-0.7,2.3-0.2,3.5C162.1,83.7,162.8,84.5,163.7,84.9z"/>
		<polygon points="181.7,72.6 186,87.5 187.9,86.9 183.6,72 188.8,70.5 188.4,68.8 175.9,72.4 176.4,74.1 		"/>
		<path d="M200,82.5c1.3,0.9,3,1.3,5,0.9c2.1-0.3,3.6-1.1,4.6-2.4c1-1.3,1.3-2.9,1-4.9l-1.7-11l-2,0.3l1.7,11.1
			c0.2,1.4,0,2.6-0.6,3.5c-0.7,0.9-1.7,1.4-3.1,1.7c-1.5,0.2-2.7,0-3.6-0.6c-0.9-0.6-1.5-1.7-1.7-3.1l-1.7-11.1l-2,0.3l1.7,11
			C197.9,80.1,198.7,81.5,200,82.5z"/>
		<path d="M224,81.4c2.9,0,5.1-0.8,6.6-2.4c1.5-1.5,2.3-3.7,2.2-6.6c0-2.7-0.8-4.7-2.3-6.2c-1.5-1.5-3.6-2.2-6.3-2.1l-5.3,0.1
			l0.3,17.2L224,81.4z M223.9,65.9c2.2,0,3.9,0.5,5.1,1.6c1.1,1.1,1.7,2.8,1.8,5.1c0,2.3-0.5,4.1-1.7,5.2s-3,1.8-5.4,1.8l-2.4,0
			L220.9,66L223.9,65.9z"/>
		
			<rect x="233.1" y="72.4" transform="matrix(8.908717e-02 -0.996 0.996 8.908717e-02 147.1204 307.6058)" width="17.2" height="2"/>
		<path d="M256.7,84.5c2.4,0.5,4.5,0.1,6.2-1.2c1.7-1.3,2.8-3.3,3.3-6c0.5-2.7,0.3-5-0.8-6.8c-1.1-1.8-2.8-3-5.2-3.4
			c-2.5-0.5-4.6-0.1-6.2,1.1c-1.7,1.2-2.8,3.2-3.3,6c-0.6,2.8-0.3,5.1,0.7,6.9C252.4,82.8,254.2,84,256.7,84.5z M252.7,74.6
			c0.5-2.3,1.3-3.9,2.5-4.9c1.2-1,2.8-1.3,4.6-0.9c1.9,0.4,3.2,1.2,3.9,2.6c0.7,1.4,0.8,3.2,0.4,5.5c-0.5,2.3-1.3,3.9-2.5,4.9
			c-1.2,1-2.7,1.3-4.6,0.9c-1.9-0.4-3.2-1.2-3.9-2.6C252.4,78.7,252.3,76.9,252.7,74.6z"/>
		<path d="M279.1,89.4c1.3-0.5,2.2-1.4,2.7-2.8c0.4-1.1,0.4-2.1,0-3.1s-1.4-2-2.9-3.2c-0.9-0.7-1.5-1.3-1.9-1.8
			c-0.4-0.5-0.6-0.9-0.7-1.4c-0.1-0.4,0-0.9,0.2-1.5c0.3-0.8,0.7-1.3,1.5-1.5c0.7-0.2,1.6-0.2,2.6,0.2c1.3,0.4,2.5,1.2,3.6,2.2
			l1.2-1.5c-1.2-1.1-2.6-1.9-4.2-2.4c-1.6-0.5-2.9-0.6-4.1-0.2c-1.2,0.4-2,1.3-2.4,2.5c-0.4,1.2-0.4,2.3,0,3.2c0.4,1,1.3,2,2.6,3
			c1,0.8,1.6,1.4,2.1,1.9c0.4,0.5,0.7,0.9,0.8,1.4c0.1,0.4,0.1,0.9-0.1,1.5c-0.3,0.9-0.8,1.4-1.6,1.7c-0.8,0.3-1.8,0.2-3.1-0.2
			c-0.8-0.3-1.5-0.6-2.3-1s-1.4-0.9-2-1.4l-0.6,1.8c0.9,0.9,2.3,1.6,4.2,2.3C276.3,89.8,277.8,89.9,279.1,89.4z"/>
		<path d="M306.3,101.3c2.1-0.5,3.8-2,5.3-4.5c1.3-2.3,1.7-4.5,1.2-6.5c-0.5-2-2-3.7-4.3-5l-4.6-2.6l-8.6,15l4.1,2.4
			C301.9,101.3,304.2,101.8,306.3,101.3z M304.7,85.1l2.5,1.4c1.9,1.1,3.1,2.4,3.5,4c0.4,1.5,0.1,3.3-1.1,5.3
			c-1.1,2-2.5,3.2-4.2,3.6s-3.5,0-5.6-1.2l-2.1-1.2L304.7,85.1z"/>
		<polygon points="320.5,114.2 321.6,112.8 315.5,108.2 319.4,103.1 325.1,107.4 326.1,106 320.4,101.7 323.8,97.3 329.9,101.8 
			330.9,100.4 323.3,94.6 312.9,108.4 		"/>
		<path d="M339.9,133.2c0.7,0.6,1.5,1.1,2.4,1.6l6.2-5.6l-3.9-4.4l-1.3,1.2l2.6,2.9l-3.9,3.5c-1-0.7-1.8-1.4-2.6-2.3
			c-1.5-1.6-2.1-3.3-2-4.9c0.1-1.7,1.1-3.3,2.8-4.8c1.6-1.5,3.3-2.2,5.1-2.2c1.7,0,3.3,0.8,4.7,2.4c1,1.1,1.7,2.4,2.3,4l1.8-0.6
			c-0.6-1.6-1.5-3.1-2.7-4.5c-1.2-1.4-2.5-2.3-4-2.8c-1.4-0.5-2.9-0.6-4.4-0.2c-1.5,0.4-2.9,1.1-4.2,2.3c-2.1,1.9-3.2,3.9-3.4,6
			c-0.2,2.1,0.6,4.2,2.3,6.1C338.4,131.9,339.1,132.6,339.9,133.2z"/>
		<polygon points="351.6,149 353.1,148 348.8,141.7 354,138.1 358,144 359.5,143 355.4,137.1 360,134 364.3,140.2 365.8,139.2 
			360.3,131.3 346.1,141.1 		"/>
		<path d="M366.3,134.5c1,0.1,1.8,0.2,2.4,0.2l0.2-0.1l-1.4-2c-0.6,0.1-1.3,0.1-2.1,0.2c-0.8,0-1.5,0-2.1,0l-0.2,0.2l0.7,1.1
			C364.5,134.2,365.3,134.4,366.3,134.5z"/>
		<path d="M356.1,156.5l8.7-4.5c1.3-0.6,2.6-1.4,4.1-2.3l0,0.1l-8.5,15l1,2l15.3-7.9l-0.9-1.7l-8.8,4.5c-0.4,0.2-1.2,0.6-2.2,1.2
			c-1,0.6-1.6,0.9-1.8,1l0-0.1l8.5-15l-1-2l-15.3,7.9L356.1,156.5z"/>
		<polygon points="367.7,183.1 369.3,182.5 366.8,175.4 372.7,173.2 375.2,179.9 376.8,179.3 374.4,172.6 379.6,170.7 382.2,177.9 
			383.9,177.3 380.6,168.2 364.4,174.1 		"/>
		<path d="M370.1,191.8l7-1.6l0.8,3.5l-6,5.7l0.5,2.3l6.5-6.3c1.3,2.1,3.1,2.9,5.3,2.3c1.6-0.4,2.7-1.1,3.2-2.3
			c0.6-1.2,0.6-2.8,0.1-4.8l-1.1-4.6l-16.8,3.9L370.1,191.8z M385.2,188.3l0.6,2.5c0.3,1.4,0.3,2.6,0,3.3c-0.3,0.8-1.1,1.3-2.2,1.5
			c-1.1,0.3-2,0.1-2.7-0.4c-0.7-0.5-1.2-1.5-1.5-2.8l-0.6-2.7L385.2,188.3z"/>
		<path d="M381.9,205.7c-2.8,0.3-4.9,1.1-6.4,2.7s-2,3.5-1.8,6.1c0.2,2.5,1.2,4.3,2.9,5.6c1.7,1.2,3.9,1.7,6.7,1.5
			c2.8-0.3,4.9-1.1,6.3-2.7c1.4-1.5,2-3.5,1.8-6c-0.2-2.5-1.2-4.4-2.9-5.7S384.6,205.5,381.9,205.7z M387.4,208.9
			c1.3,0.9,2,2.3,2.2,4.2c0.2,1.9-0.3,3.4-1.4,4.5c-1.1,1.1-2.8,1.7-5.1,1.9c-2.3,0.2-4.1-0.1-5.4-1c-1.3-0.9-2-2.2-2.2-4.1
			c-0.2-1.9,0.3-3.4,1.4-4.5c1.1-1.1,2.8-1.8,5.2-2C384.3,207.6,386.1,208,387.4,208.9z"/>
		<path d="M72,231.4c-0.7,0.6-1,1.5-0.9,2.7c0,1.1,0.4,2,1.1,2.6s1.7,0.9,3,0.8c1.3-0.1,2.2-0.4,2.9-1.1c0.7-0.6,1-1.5,0.9-2.7
			c-0.1-1.2-0.4-2-1.1-2.6c-0.7-0.6-1.7-0.8-3-0.8C73.6,230.4,72.7,230.8,72,231.4z"/>
		<path d="M71.8,259.6c-0.6-3,1.1-4.9,5.1-5.6c1.9-0.4,3.5-0.3,4.7,0.3c1.2,0.6,2,1.6,2.2,3c0.1,0.6,0.1,1.3,0,2.1
			c-0.1,0.7-0.3,1.4-0.4,2.2l3.3,0.6c0.5-1.9,0.6-3.7,0.3-5.5c-0.3-1.7-1-3.1-2-4.2c-1-1.1-2.2-1.9-3.8-2.3s-3.2-0.4-5.1-0.1
			c-2.9,0.6-5.1,1.7-6.4,3.4c-1.3,1.7-1.7,3.8-1.2,6.4c0.3,1.8,1,3.4,1.9,4.7l3.2-0.6C72.6,262.3,72,260.8,71.8,259.6z"/>
		<path d="M90.1,269.6L70.7,269l1.3,4l4.5-0.1l2,6.3l-3.7,2.6l1.3,3.9l15.4-11.7L90.1,269.6z M87,273.4c-0.4,0.3-2.3,1.6-5.7,4
			l-1.4-4.5c4.4,0,7.1-0.1,8.2-0.2C87.8,272.9,87.5,273.1,87,273.4z"/>
		<path d="M91.5,269.5l0.8,2.4c0.6,0.4,1.4,1,2.5,1.7c1.1,0.7,2,1.2,2.5,1.5l0.2-0.1l-1.3-4c-1-0.2-2.4-0.8-4.4-1.6L91.5,269.5z"/>
		<polygon points="96.7,295.1 99.6,293.8 93.9,281.3 91,282.7 93,287.2 79.4,293.3 81,296.8 94.6,290.7 		"/>
		<polygon points="97.5,310.8 100.2,309.2 97.1,303.9 100.6,301.9 103.9,307.6 106.6,306 101.3,296.9 85.7,306.2 91,315.2 
			93.7,313.5 90.4,307.9 94.4,305.5 		"/>
		<path d="M114.8,321.2c0.3-2.3-0.5-4.6-2.3-6.9l-3.5-4.5l-14.4,11l3.1,4.1c1.9,2.6,4.1,4,6.4,4.4c2.3,0.4,4.6-0.3,7-2.1
			C113.3,325.4,114.6,323.5,114.8,321.2z M108.6,324c-3.2,2.4-5.9,2.1-8.1-0.8l-1-1.3l9.4-7.2l1.2,1.6
			C112.2,319.1,111.7,321.6,108.6,324z"/>
		<path d="M123.4,339.1c1-0.2,1.9-0.6,2.6-1.4c1.3-1.3,1.9-2.7,1.7-4.1c-0.2-1.5-1.1-3.1-2.9-4.8l-3.7-3.8l-12.9,12.7l2.7,2.7l5-4.9
			l1.4,1.5l-1.9,8l3,3c0.3-1.4,0.9-4.5,1.9-9.4C121.4,339.1,122.4,339.3,123.4,339.1z M121.3,335.8c-0.7-0.1-1.5-0.6-2.3-1.5
			l-0.9-0.9l3.5-3.4l0.8,0.8c0.9,0.9,1.4,1.7,1.5,2.3c0.2,0.7-0.1,1.3-0.7,1.9C122.7,335.7,122,335.9,121.3,335.8z"/>
		<path d="M120.5,350l3.2,2.6l3.7-2.6l5.2,4.1l-1.7,4.2l3.2,2.6l6.3-18.3l-3.7-2.9L120.5,350z M136.5,344.6c-0.2,0.5-1,2.7-2.5,6.5
			l-3.7-3c3.6-2.5,5.9-4,6.7-4.7C136.8,343.7,136.7,344.1,136.5,344.6z"/>
		<polygon points="156.5,357.1 162.3,360.3 163.8,357.5 154.7,352.5 145.9,368.3 149.2,370.2 152.7,363.9 158.1,366.9 159.6,364.2 
			154.2,361.2 		"/>
		<polygon points="171.3,360.9 167.7,359.4 160.6,376.1 170.9,380.5 172.2,377.6 165.4,374.7 		"/>
		<polygon points="176.4,382.4 186.4,385.5 187.4,382.5 181,380.5 182.4,376.1 188.3,377.9 189.2,374.9 183.4,373.1 184.5,369.2 
			190.8,371.2 191.8,368.2 181.8,365.1 		"/>
		<path d="M201.4,370c-1.9-0.4-3.4-0.2-4.7,0.5c-1.2,0.7-2,1.8-2.3,3.4c-0.2,0.8-0.1,1.6,0.1,2.3c0.2,0.7,0.5,1.3,1,1.9
			c0.5,0.6,1.2,1.2,2.2,2c1.1,0.8,1.7,1.3,2.1,1.7c0.3,0.3,0.6,0.6,0.7,1c0.1,0.3,0.2,0.6,0.1,1c-0.1,0.6-0.4,1.1-0.9,1.3
			c-0.5,0.2-1.2,0.3-2,0.1c-0.7-0.1-1.4-0.4-2.2-0.8c-0.8-0.4-1.7-1-2.8-1.7l-0.7,3.5c1.3,1,2.9,1.7,4.8,2.1
			c2.1,0.4,3.8,0.3,5.1-0.4c1.3-0.7,2.2-1.8,2.5-3.5c0.2-1.2,0.1-2.2-0.3-3.1c-0.5-0.9-1.4-1.9-2.9-3.1c-1.1-0.8-1.9-1.4-2.1-1.7
			c-0.3-0.3-0.5-0.6-0.6-0.9c-0.1-0.3-0.1-0.6-0.1-0.9c0.1-0.5,0.4-0.9,0.8-1.2c0.4-0.3,1-0.3,1.7-0.2c0.6,0.1,1.2,0.3,1.8,0.6
			s1.3,0.7,2.2,1.3l1.8-2.7c-0.8-0.6-1.7-1.1-2.5-1.5C203.2,370.5,202.4,370.2,201.4,370z"/>
		<polygon points="214.6,372.2 210.8,371.9 209.1,390 220.3,391 220.6,387.8 213.2,387.2 		"/>
		<polygon points="229.9,388 229.9,383.3 236,383.2 236,380.1 229.8,380.1 229.8,376.1 236.4,376.1 236.4,372.9 225.9,373 
			226.1,391.2 236.6,391.1 236.5,387.9 		"/>
		<path d="M253.5,379.5c0.5-0.9,0.7-1.9,0.5-2.9c-0.2-1.8-1-3.1-2.3-3.8s-3.1-1-5.6-0.7l-5.2,0.6l2.2,18l3.8-0.5l-0.8-6.9l2-0.2
			l5.1,6.4l4.2-0.5c-1-1.1-3-3.5-6.2-7.2C252.3,381.1,253,380.4,253.5,379.5z M249.5,379.1c-0.5,0.5-1.4,0.8-2.6,0.9l-1.2,0.1
			l-0.6-4.9l1.2-0.1c1.2-0.1,2.2-0.1,2.8,0.2c0.6,0.3,1,0.9,1.1,1.7C250.3,378,250.1,378.7,249.5,379.1z"/>
		<polygon points="268.8,386.4 272.1,385.5 273.7,366.2 270.4,367.1 		"/>
		<polygon points="296.4,365.6 290.8,368.1 288.9,363.8 294.9,361.1 293.6,358.3 284.1,362.5 291.5,379.1 294.9,377.5 292,371 
			297.7,368.5 		"/>
		<path d="M301,354.2l3.7,19l3.6-2.1l-1-4.4l5.7-3.3l3.3,3.1l3.6-2.1l-14.8-12.5L301,354.2z M310.5,361l-4.1,2.4
			c-1-4.3-1.6-6.9-1.9-8c0.2,0.2,0.5,0.5,0.9,0.9C305.8,356.7,307.5,358.2,310.5,361z"/>
		<path d="M324.4,341c-2.3-0.2-4.6,0.6-6.9,2.4l-4.5,3.5l11.1,14.3l4.1-3.2c2.5-2,4-4.1,4.4-6.4c0.4-2.3-0.4-4.6-2.2-7
			C328.6,342.5,326.7,341.3,324.4,341z M326.5,355.4l-1.3,1L318,347l1.6-1.3c2.7-2.1,5.3-1.6,7.7,1.5
			C329.7,350.4,329.5,353.1,326.5,355.4z"/>
		<path d="M346.9,332.4l-8.4-8.2l-2.7,2.7l7.9,7.8c1,1,1.5,1.9,1.6,2.8c0.1,0.9-0.3,1.7-1.2,2.6c-0.9,0.9-1.8,1.4-2.7,1.3
			c-0.9-0.1-1.8-0.6-2.8-1.6l-7.9-7.8l-2.7,2.7l8.3,8.2c1.5,1.5,3.1,2.1,4.9,2.1c1.8-0.1,3.5-1,5.1-2.6c1.1-1.1,1.8-2.2,2.2-3.4
			c0.4-1.2,0.5-2.3,0.2-3.5C348.5,334.4,347.8,333.4,346.9,332.4z"/>
		<polygon points="349.3,310.2 360.1,326.3 362.1,323.5 351.3,307.4 		"/>
		<path d="M374.1,290l-10.5-5.2l-1.7,3.4l10,4.9c1.3,0.6,2.1,1.3,2.4,2.1c0.3,0.8,0.2,1.8-0.3,2.9c-0.6,1.2-1.3,1.9-2.1,2.1
			s-1.9,0-3.1-0.6l-10-4.9l-1.7,3.4l10.5,5.2c1.9,0.9,3.6,1.1,5.3,0.4c1.6-0.6,3-2,4-4.1c0.7-1.4,1-2.7,1.1-4c0-1.3-0.3-2.4-0.9-3.4
			C376.2,291.4,375.3,290.6,374.1,290z"/>
		<path d="M381.9,271.5c-1.1-0.4-2.1-0.4-2.9-0.2c-0.8,0.3-1.5,0.9-2.2,1.9l-0.1,0c0.1-0.8,0-1.6-0.5-2.3c-0.5-0.7-1.3-1.2-2.3-1.6
			c-1.5-0.5-2.8-0.3-3.9,0.5c-1.1,0.9-2,2.5-2.8,5l-1.8,5.3l17.2,5.8l2.2-6.4c0.7-1.9,0.7-3.6,0.2-5.1
			C384.5,273,383.5,272.1,381.9,271.5z M374.2,276.7l-0.7,2.1l-3.8-1.3l0.6-1.9c0.4-1,0.8-1.8,1.2-2.1c0.5-0.4,1-0.5,1.7-0.2
			c0.7,0.2,1.1,0.6,1.3,1.2C374.6,274.9,374.5,275.7,374.2,276.7z M381.6,278.9l-0.8,2.4l-4.5-1.5l0.8-2.3c0.7-2,1.8-2.8,3.2-2.3
			c0.8,0.3,1.3,0.7,1.5,1.3S382,277.9,381.6,278.9z"/>
		<path d="M390.8,256l0.8-4.1l-19.1,2.6l-0.9,4.6l16.6,10l0.8-4.1l-4-2.2l1.3-6.5L390.8,256z M382,261.3c-3.8-2.1-6.2-3.4-7.2-3.9
			c0.3,0,0.7,0,1.3-0.1c0.5,0,2.8-0.3,6.9-0.7L382,261.3z"/>
		<path d="M381,232.6c-0.7,0.6-1.1,1.4-1.2,2.6c-0.1,1.1,0.2,2,0.9,2.7c0.6,0.6,1.6,1,2.9,1.1c1.3,0.1,2.2-0.2,3-0.8
			c0.7-0.6,1.1-1.4,1.2-2.6c0.1-1.1-0.2-2-0.9-2.7c-0.7-0.7-1.6-1-2.9-1.1C382.7,231.8,381.7,232,381,232.6z"/>
	</g>
</g>
</svg>
