<svg width="990" height="1361" viewBox="0 0 990 1361" fill="none" xmlns="http://www.w3.org/2000/svg">
<rect width="990" height="1361" fill="#F4F4F5"/>
<path d="M5 845.293V547.798C5 534.932 9.48752 524.325 18.4939 516.009C27.469 507.693 37.7307 503.551 49.2476 503.551H150.954C173.674 503.551 194.606 506.187 213.748 511.427C232.891 516.7 249.617 524.984 263.833 536.344C278.08 547.704 289.252 562.108 297.411 579.588C305.538 597.067 309.963 617.81 310.622 641.879C310.967 646.618 311.124 652.298 311.124 658.919C311.124 665.541 311.124 672.915 311.124 681.043C311.124 688.857 311.124 695.981 311.124 702.414C311.124 708.847 310.936 714.464 310.622 719.203C307.578 811.746 255.203 858.034 153.465 858.034H17.7094C13.975 858.034 10.9311 856.841 8.54608 854.488C6.19249 852.071 5 849.027 5 845.293ZM150.954 782.248C172.984 782.248 188.926 776.913 198.748 766.212C208.57 755.542 213.654 739.507 213.999 718.167C214.344 713.429 214.596 707.906 214.752 701.629C214.909 695.353 215.003 688.324 215.003 680.51C215.003 672.727 214.909 665.698 214.752 659.39C214.564 653.114 214.313 647.622 213.999 642.852C212.995 600.519 191.122 579.337 148.412 579.337H72.1245C79.9071 579.337 86.5286 582.129 91.9575 587.715C97.3865 593.301 100.085 599.326 100.085 605.76V766.463C100.085 770.888 101.529 774.591 104.416 777.666C107.303 780.71 111.1 782.248 115.87 782.248H150.954V782.248Z" fill="#F2594B"/>
<path d="M984.997 750.211C984.997 770.891 980.164 788.339 970.499 802.587C960.833 816.834 948.532 828.351 933.626 837.169C918.688 845.987 902.087 852.357 883.792 856.249C865.497 860.14 847.672 862.085 830.381 862.085C813.749 862.085 796.552 860.391 778.759 857.002C760.966 853.613 744.585 847.933 729.679 839.962C714.773 831.991 702.314 821.478 692.304 808.424C682.293 795.369 676.801 779.176 675.766 759.845C675.766 756.801 676.864 754.259 679.061 752.22C681.257 750.18 683.893 749.176 686.937 749.176H754.564C756.604 749.176 758.361 749.364 759.899 749.678C761.436 750.023 762.849 750.525 764.229 751.215C766.614 752.565 769.47 754.95 772.891 758.339C778.32 769.197 786.385 776.572 797.054 780.463C807.724 784.354 818.833 786.3 830.35 786.3C835.434 786.3 841.27 785.955 847.892 785.295C854.513 784.605 860.601 783.193 866.187 780.965C871.773 778.768 876.606 775.536 880.685 771.299C884.765 767.063 886.773 761.571 886.773 754.762C886.773 745.598 883.384 739.008 876.606 734.929C869.827 730.849 862.704 727.648 855.235 725.263C849.461 723.223 842.588 721.278 834.649 719.426C826.678 717.575 817.452 715.598 806.939 713.589C791.343 710.545 776.248 706.56 761.688 701.633C747.095 696.738 734.135 690.179 722.775 682.051C711.415 673.923 702.251 663.662 695.316 651.298C688.35 638.933 684.898 623.745 684.898 605.795C684.898 583.42 691.08 564.183 703.444 548.085C715.808 531.986 732.001 519.684 752.022 511.212C773.707 502.393 798.623 498 826.772 498C837.944 498 849.555 498.941 861.606 500.793C873.625 502.644 885.33 505.72 896.69 509.956C908.05 514.193 918.625 519.779 928.479 526.745C938.301 533.712 946.774 542.091 953.898 551.913C965.415 566.851 971.691 581.914 972.727 597.165C972.727 599.895 971.628 602.437 969.431 604.79C967.203 607.175 964.756 608.368 962.057 608.368H890.884C883.761 608.368 878.175 605.324 874.095 599.205C872.055 592.081 866.783 585.993 858.342 580.909C849.178 576.171 838.666 573.786 826.804 573.786C821.72 573.786 816.542 574.131 811.301 574.79C806.029 575.48 801.197 576.987 796.803 579.372C792.378 581.757 788.832 584.895 786.134 588.786C783.403 592.677 782.054 597.698 782.054 603.786C782.054 613.295 787.138 620.92 797.305 626.663C807.473 632.092 826.458 637.678 854.262 643.452C870.204 646.496 886.052 650.136 901.805 654.373C917.558 658.609 931.554 664.635 943.762 672.417C955.969 680.231 965.885 690.304 973.511 702.669C981.168 715.033 984.997 730.88 984.997 750.211Z" fill="#F2594B"/>
<path d="M431.645 666.299L487.912 585.994L438.769 509.926C434.344 502.457 428.256 498.723 420.473 498.723H343.181C340.451 498.723 338.003 499.821 335.807 502.018C333.61 504.214 332.512 506.693 332.512 509.392C332.512 511.432 333.014 513.472 334.049 515.48L431.645 666.299Z" fill="#F2594B"/>
<path d="M654.182 502.018C651.986 499.821 649.507 498.723 646.808 498.723H573.062C565.593 498.723 559.662 502.457 555.269 509.926L325.401 836.919C324.397 838.268 323.863 840.151 323.863 842.504C323.863 844.889 324.867 847.431 326.907 850.13C329.606 852.17 332.148 853.174 334.533 853.174H411.825C418.949 853.174 424.88 849.785 429.618 843.007C429.618 843.007 657.446 511.432 657.446 509.392C657.478 506.693 656.379 504.246 654.182 502.018Z" fill="#F2594B"/>
<path d="M664.603 836.423L555.396 681.055L498.941 762.74L557.813 843.013C562.551 849.792 568.482 853.181 575.606 853.181H655.44C658.139 853.181 660.68 852.177 663.065 850.137C665.105 847.438 666.109 844.896 666.109 842.511C666.109 840.472 665.607 838.432 664.603 836.423Z" fill="#F2594B"/>
</svg>
