<?xml version="1.0" encoding="utf-8"?>
<!-- Generator: Adobe Illustrator 24.0.1, SVG Export Plug-In . SVG Version: 6.00 Build 0)  -->
<svg version="1.1" id="Capa_1" xmlns="http://www.w3.org/2000/svg" xmlns:xlink="http://www.w3.org/1999/xlink" x="0px" y="0px"
	 viewBox="0 0 990 1361" style="enable-background:new 0 0 990 1361;" xml:space="preserve">
<style type="text/css">
	.st0{fill:#F2594B;}
</style>
<path class="st0" d="M5,845.3V547.8c0-12.9,4.5-23.5,13.5-31.8c9-8.3,19.2-12.5,30.8-12.5H151c22.7,0,43.7,2.6,62.8,7.9
	c19.1,5.3,35.9,13.6,50.1,24.9c14.2,11.4,25.4,25.8,33.6,43.2c8.1,17.5,12.6,38.2,13.2,62.3c0.3,4.7,0.5,10.4,0.5,17
	c0,6.6,0,14,0,22.1c0,7.8,0,14.9,0,21.4s-0.2,12-0.5,16.8c-3,92.5-55.4,138.8-157.2,138.8H17.7c-3.7,0-6.8-1.2-9.2-3.5
	C6.2,852.1,5,849,5,845.3z M151,782.2c22,0,38-5.3,47.8-16c9.8-10.7,14.9-26.7,15.3-48c0.3-4.7,0.6-10.3,0.8-16.5
	c0.2-6.3,0.3-13.3,0.3-21.1c0-7.8-0.1-14.8-0.3-21.1c-0.2-6.3-0.4-11.8-0.8-16.5c-1-42.3-22.9-63.5-65.6-63.5H72.1
	c7.8,0,14.4,2.8,19.8,8.4c5.4,5.6,8.1,11.6,8.1,18v160.7c0,4.4,1.4,8.1,4.3,11.2c2.9,3,6.7,4.6,11.5,4.6H151L151,782.2z"/>
<path class="st0" d="M985,750.2c0,20.7-4.8,38.1-14.5,52.4c-9.7,14.2-22,25.8-36.9,34.6c-14.9,8.8-31.5,15.2-49.8,19.1
	c-18.3,3.9-36.1,5.8-53.4,5.8c-16.6,0-33.8-1.7-51.6-5.1c-17.8-3.4-34.2-9.1-49.1-17c-14.9-8-27.4-18.5-37.4-31.5
	c-10-13.1-15.5-29.2-16.5-48.6c0-3,1.1-5.6,3.3-7.6c2.2-2,4.8-3,7.9-3h67.6c2,0,3.8,0.2,5.3,0.5c1.5,0.3,3,0.8,4.3,1.5
	c2.4,1.3,5.2,3.7,8.7,7.1c5.4,10.9,13.5,18.2,24.2,22.1c10.7,3.9,21.8,5.8,33.3,5.8c5.1,0,10.9-0.3,17.5-1
	c6.6-0.7,12.7-2.1,18.3-4.3c5.6-2.2,10.4-5.4,14.5-9.7c4.1-4.2,6.1-9.7,6.1-16.5c0-9.2-3.4-15.8-10.2-19.8
	c-6.8-4.1-13.9-7.3-21.4-9.7c-5.8-2-12.6-4-20.6-5.8c-8-1.9-17.2-3.8-27.7-5.8c-15.6-3-30.7-7-45.3-12
	c-14.6-4.9-27.6-11.5-38.9-19.6c-11.4-8.1-20.5-18.4-27.5-30.8c-7-12.4-10.4-27.6-10.4-45.5c0-22.4,6.2-41.6,18.5-57.7
	c12.4-16.1,28.6-28.4,48.6-36.9c21.7-8.8,46.6-13.2,74.8-13.2c11.2,0,22.8,0.9,34.8,2.8c12,1.9,23.7,4.9,35.1,9.2
	c11.4,4.2,21.9,9.8,31.8,16.8c9.8,7,18.3,15.3,25.4,25.2c11.5,14.9,17.8,30,18.8,45.3c0,2.7-1.1,5.3-3.3,7.6
	c-2.2,2.4-4.7,3.6-7.4,3.6h-71.2c-7.1,0-12.7-3-16.8-9.2c-2-7.1-7.3-13.2-15.8-18.3c-9.2-4.7-19.7-7.1-31.5-7.1
	c-5.1,0-10.3,0.3-15.5,1c-5.3,0.7-10.1,2.2-14.5,4.6c-4.4,2.4-8,5.5-10.7,9.4c-2.7,3.9-4.1,8.9-4.1,15c0,9.5,5.1,17.1,15.3,22.9
	c10.2,5.4,29.2,11,57,16.8c15.9,3,31.8,6.7,47.5,10.9c15.8,4.2,29.7,10.3,42,18c12.2,7.8,22.1,17.9,29.7,30.3
	C981.2,715,985,730.9,985,750.2z"/>
<path class="st0" d="M431.6,666.3l56.3-80.3l-49.1-76.1c-4.4-7.5-10.5-11.2-18.3-11.2h-77.3c-2.7,0-5.2,1.1-7.4,3.3
	c-2.2,2.2-3.3,4.7-3.3,7.4c0,2,0.5,4.1,1.5,6.1L431.6,666.3z"/>
<path class="st0" d="M654.2,502c-2.2-2.2-4.7-3.3-7.4-3.3h-73.7c-7.5,0-13.4,3.7-17.8,11.2l-229.9,327c-1,1.3-1.5,3.2-1.5,5.6
	c0,2.4,1,4.9,3,7.6c2.7,2,5.2,3,7.6,3h77.3c7.1,0,13.1-3.4,17.8-10.2c0,0,227.8-331.6,227.8-333.6
	C657.5,506.7,656.4,504.2,654.2,502z"/>
<path class="st0" d="M664.6,836.4L555.4,681.1l-56.5,81.7l58.9,80.3c4.7,6.8,10.7,10.2,17.8,10.2h79.8c2.7,0,5.2-1,7.6-3
	c2-2.7,3-5.2,3-7.6C666.1,840.5,665.6,838.4,664.6,836.4z"/>
</svg>
