<svg width="315" height="450" viewBox="0 0 315 450" fill="none" xmlns="http://www.w3.org/2000/svg">
<rect width="315" height="450" fill="#F4F4F5"/>
<path d="M242.022 260.919H228.254C227.317 260.919 226.53 260.607 225.918 259.995C225.306 259.389 225 258.633 225 257.759V214.745C224.956 214.283 224.813 213.927 224.582 213.758C223.957 213.29 223.232 213.365 222.601 213.821L212.601 221.498C212.088 221.929 211.451 222.153 210.739 222.153C209.696 222.153 208.784 221.647 208.034 220.648L201.769 212.665C201.376 212.003 201.207 211.366 201.207 210.697C201.207 209.442 201.707 208.461 202.662 207.861L225.993 189.878C226.63 189.315 227.58 189.016 228.767 189.016H242.028C243.027 189.016 243.846 189.328 244.464 189.934C245.045 190.34 245.389 191.114 245.389 192.17V257.765C245.389 258.727 245.064 259.489 244.427 260.038C243.846 260.613 243.021 260.919 242.022 260.919ZM223.694 211.997C224.325 211.997 224.913 212.196 225.444 212.596C226.018 213.027 226.349 213.727 226.443 214.676V257.765C226.443 258.246 226.605 258.639 226.936 258.97C227.268 259.308 227.699 259.47 228.248 259.47H242.016C242.628 259.47 243.09 259.308 243.427 258.97C243.658 258.764 243.921 258.464 243.921 257.765V192.17C243.921 191.327 243.615 191.108 243.515 191.039C243.09 190.627 242.628 190.465 242.016 190.465H228.754C227.93 190.465 227.305 190.646 226.905 190.996L203.487 209.042C202.9 209.417 202.656 209.929 202.656 210.697C202.656 211.116 202.756 211.491 202.969 211.853L209.184 219.767C209.971 220.81 211.002 220.948 211.695 220.367L221.739 212.652C222.351 212.209 223.007 211.997 223.694 211.997Z" fill="#F2594B"/>
<path d="M282.909 260.916H268.735C267.929 260.916 267.249 260.641 266.705 260.097C266.162 259.56 265.887 258.873 265.887 258.067C265.887 257.361 266.074 256.762 266.449 256.299L279.454 238.428C279.079 238.466 278.592 238.441 278.224 238.334C275.013 238.122 271.877 237.372 268.91 236.104C265.912 234.83 263.232 233.1 260.952 230.957C258.672 228.815 256.829 226.254 255.48 223.343C254.125 220.426 253.438 217.259 253.438 213.929C253.438 209.02 254.706 204.578 257.198 200.73C259.684 196.901 263.038 193.803 267.174 191.529C271.659 189.181 277.118 188 283.415 188C285.988 188 288.593 188.187 291.16 188.562C293.734 188.943 296.226 189.618 298.569 190.586C300.917 191.554 303.116 192.847 305.121 194.434C307.133 196.033 308.894 198.038 310.35 200.393C312.767 204.129 313.997 208.451 313.997 213.223C313.997 215.304 313.735 217.321 313.21 219.233C312.692 221.125 311.992 222.962 311.137 224.68C310.287 226.379 309.3 228.071 308.207 229.72C307.12 231.351 305.958 232.994 304.74 234.612L287.131 258.698C286.132 260.166 284.708 260.916 282.909 260.916ZM279.617 236.885L279.767 236.891C280.279 236.891 280.704 237.11 280.978 237.516C281.303 238.016 281.234 238.597 280.785 239.04L267.598 257.174C267.411 257.405 267.33 257.686 267.33 258.061C267.33 258.479 267.455 258.798 267.723 259.067C267.992 259.341 268.317 259.466 268.729 259.466H282.902C284.214 259.466 285.207 258.942 285.951 257.861L303.578 233.749C304.784 232.144 305.933 230.52 307.001 228.915C308.063 227.322 309.019 225.679 309.844 224.03C310.662 222.393 311.33 220.651 311.817 218.852C312.305 217.065 312.548 215.172 312.548 213.223C312.548 208.732 311.399 204.678 309.119 201.168C307.745 198.944 306.096 197.064 304.215 195.571C302.316 194.072 300.23 192.841 298.013 191.929C295.783 191.011 293.403 190.361 290.948 189.999C288.449 189.637 285.913 189.449 283.408 189.449C277.349 189.449 272.115 190.58 267.848 192.81C263.938 194.959 260.752 197.894 258.403 201.524C256.061 205.134 254.874 209.307 254.874 213.936C254.874 217.053 255.518 220.013 256.779 222.743C258.054 225.485 259.784 227.896 261.933 229.908C264.088 231.932 266.624 233.575 269.466 234.78C272.308 235.992 275.313 236.704 278.392 236.898L278.573 236.935C278.698 236.979 278.861 236.998 279.054 236.998C279.354 236.998 279.454 236.966 279.454 236.966L279.617 236.885ZM283.614 224.68C280.391 224.68 277.736 223.674 275.719 221.687C273.695 219.701 272.671 217.059 272.671 213.829C272.671 210.6 273.714 207.97 275.781 206.015C277.836 204.072 280.472 203.085 283.621 203.085C286.769 203.085 289.405 204.072 291.46 206.015C293.528 207.97 294.571 210.6 294.571 213.829C294.571 217.053 293.546 219.695 291.523 221.687C289.492 223.674 286.838 224.68 283.614 224.68ZM283.614 204.535C280.816 204.535 278.573 205.365 276.774 207.071C274.988 208.763 274.113 210.975 274.113 213.829C274.113 216.69 274.969 218.926 276.731 220.651C278.492 222.387 280.741 223.224 283.614 223.224C286.482 223.224 288.73 222.381 290.498 220.651C292.26 218.92 293.115 216.69 293.115 213.829C293.115 210.975 292.247 208.763 290.454 207.071C288.655 205.365 286.419 204.535 283.614 204.535Z" fill="#F2594B"/>
<path d="M2 257.657V198.44C2 195.879 2.89325 193.768 4.686 192.113C6.47251 190.457 8.51512 189.633 10.8076 189.633H31.0525C35.575 189.633 39.7415 190.158 43.5518 191.201C47.3622 192.25 50.6916 193.899 53.5213 196.16C56.3572 198.422 58.5809 201.289 60.205 204.768C61.8229 208.247 62.7036 212.376 62.8348 217.167C62.9035 218.111 62.9348 219.241 62.9348 220.559C62.9348 221.877 62.9348 223.345 62.9348 224.963C62.9348 226.518 62.9348 227.936 62.9348 229.217C62.9348 230.498 62.8973 231.616 62.8348 232.559C62.2289 250.98 51.8035 260.193 31.5523 260.193H4.52984C3.7865 260.193 3.18059 259.956 2.70586 259.488C2.23737 259.007 2 258.401 2 257.657ZM31.0525 245.108C35.4376 245.108 38.6108 244.046 40.566 241.916C42.5212 239.792 43.5331 236.6 43.6018 232.353C43.6705 231.41 43.7205 230.31 43.7517 229.061C43.7829 227.812 43.8017 226.412 43.8017 224.857C43.8017 223.308 43.7829 221.909 43.7517 220.653C43.7142 219.404 43.6643 218.311 43.6018 217.361C43.4019 208.935 39.0481 204.718 30.5466 204.718H15.3613C16.9104 204.718 18.2284 205.274 19.3091 206.386C20.3897 207.498 20.9269 208.697 20.9269 209.978V241.966C20.9269 242.847 21.2143 243.584 21.789 244.196C22.3636 244.802 23.1195 245.108 24.0689 245.108H31.0525V245.108Z" fill="#F2594B"/>
<path d="M197.073 238.731C197.073 242.847 196.111 246.32 194.187 249.156C192.263 251.992 189.814 254.284 186.847 256.04C183.874 257.795 180.569 259.063 176.928 259.838C173.286 260.612 169.738 260.999 166.296 260.999C162.985 260.999 159.562 260.662 156.021 259.987C152.479 259.313 149.218 258.182 146.251 256.596C143.284 255.009 140.804 252.916 138.811 250.318C136.819 247.719 135.726 244.496 135.52 240.648C135.52 240.042 135.738 239.536 136.175 239.13C136.613 238.724 137.137 238.524 137.743 238.524H151.205C151.611 238.524 151.96 238.562 152.266 238.624C152.573 238.693 152.854 238.793 153.128 238.93C153.603 239.199 154.172 239.674 154.852 240.348C155.933 242.51 157.538 243.978 159.662 244.752C161.786 245.527 163.997 245.914 166.29 245.914C167.302 245.914 168.464 245.845 169.782 245.714C171.1 245.577 172.312 245.296 173.423 244.852C174.535 244.415 175.497 243.772 176.309 242.928C177.121 242.085 177.521 240.992 177.521 239.636C177.521 237.812 176.846 236.501 175.497 235.689C174.148 234.876 172.73 234.239 171.243 233.765C170.094 233.359 168.726 232.971 167.146 232.603C165.559 232.234 163.723 231.841 161.63 231.441C158.525 230.835 155.521 230.042 152.622 229.061C149.718 228.087 147.138 226.781 144.877 225.163C142.616 223.545 140.792 221.503 139.411 219.042C138.024 216.58 137.337 213.557 137.337 209.984C137.337 205.53 138.568 201.701 141.029 198.497C143.49 195.292 146.713 192.844 150.699 191.157C155.015 189.402 159.975 188.527 165.578 188.527C167.802 188.527 170.113 188.715 172.511 189.083C174.904 189.452 177.234 190.064 179.495 190.907C181.756 191.751 183.861 192.862 185.823 194.249C187.778 195.636 189.464 197.304 190.882 199.259C193.175 202.232 194.424 205.231 194.63 208.266C194.63 208.81 194.412 209.316 193.974 209.784C193.531 210.259 193.044 210.496 192.507 210.496H178.339C176.921 210.496 175.81 209.89 174.998 208.672C174.591 207.254 173.542 206.043 171.862 205.031C170.038 204.087 167.945 203.613 165.584 203.613C164.572 203.613 163.541 203.681 162.498 203.813C161.449 203.95 160.487 204.25 159.612 204.725C158.732 205.199 158.026 205.824 157.489 206.599C156.945 207.373 156.676 208.373 156.676 209.584C156.676 211.477 157.688 212.995 159.712 214.138C161.736 215.219 165.515 216.331 171.05 217.48C174.223 218.086 177.377 218.81 180.513 219.654C183.649 220.497 186.435 221.696 188.865 223.245C191.295 224.801 193.269 226.806 194.786 229.267C196.311 231.728 197.073 234.883 197.073 238.731Z" fill="#F2594B"/>
<path d="M86.9241 222.028L98.1241 206.043L88.3421 190.902C87.4613 189.415 86.2495 188.672 84.7004 188.672H69.3152C68.7718 188.672 68.2845 188.891 67.8473 189.328C67.41 189.765 67.1914 190.258 67.1914 190.796C67.1914 191.202 67.2913 191.608 67.4975 192.008L86.9241 222.028Z" fill="#F2594B"/>
<path d="M131.22 189.328C130.782 188.891 130.289 188.672 129.752 188.672H115.072C113.586 188.672 112.405 189.415 111.531 190.902L65.7748 255.991C65.5749 256.259 65.4688 256.634 65.4688 257.102C65.4688 257.577 65.6686 258.083 66.0747 258.62C66.6119 259.026 67.1178 259.226 67.5926 259.226H82.9777C84.3957 259.226 85.5763 258.552 86.5195 257.202C86.5195 257.202 131.869 191.202 131.869 190.796C131.875 190.258 131.657 189.771 131.22 189.328Z" fill="#F2594B"/>
<path d="M133.292 255.887L111.554 224.961L100.316 241.221L112.035 257.199C112.978 258.548 114.159 259.223 115.577 259.223H131.468C132.005 259.223 132.511 259.023 132.986 258.617C133.392 258.08 133.592 257.574 133.592 257.099C133.592 256.693 133.492 256.287 133.292 255.887Z" fill="#F2594B"/>
</svg>
