<?xml version="1.0" encoding="utf-8"?>
<!-- Generator: Adobe Illustrator 18.0.0, SVG Export Plug-In . SVG Version: 6.00 Build 0)  -->
<!DOCTYPE svg PUBLIC "-//W3C//DTD SVG 1.1//EN" "http://www.w3.org/Graphics/SVG/1.1/DTD/svg11.dtd">
<svg version="1.1"
	 id="svg3049" xmlns:dc="http://purl.org/dc/elements/1.1/" xmlns:sodipodi="http://sodipodi.sourceforge.net/DTD/sodipodi-0.dtd" xmlns:rdf="http://www.w3.org/1999/02/22-rdf-syntax-ns#" xmlns:svg="http://www.w3.org/2000/svg" xmlns:inkscape="http://www.inkscape.org/namespaces/inkscape" xmlns:cc="http://creativecommons.org/ns#" sodipodi:docname="bancogaliciahigh.svg" inkscape:version="0.48.1 "
	 xmlns="http://www.w3.org/2000/svg" xmlns:xlink="http://www.w3.org/1999/xlink" x="0px" y="0px" viewBox="0 0 550 160"
	 enable-background="new 0 0 550 160" xml:space="preserve">
<sodipodi:namedview  gridtolerance="10" inkscape:cy="80" guidetolerance="10" inkscape:cx="275" showgrid="false" pagecolor="#ffffff" borderopacity="1" inkscape:zoom="1.5069278" objecttolerance="10" id="namedview3092" bordercolor="#666666" inkscape:pageshadow="2" inkscape:window-height="706" inkscape:window-width="1366" inkscape:pageopacity="0" inkscape:window-x="-8" inkscape:window-y="-8" inkscape:current-layer="svg3049" inkscape:window-maximized="1">
	</sodipodi:namedview>
<g id="g3935">
	<path id="_160380328" inkscape:connector-curvature="0" fill="#1D1D1B" d="M12.598,147.699c0-0.051,0-0.051,0-0.051
		c22.95,0,45.95,0,68.949,0.051C58.547,147.699,35.548,147.699,12.598,147.699z"/>
	<path id="_160380064" inkscape:connector-curvature="0" fill="#1D1D1B" d="M12.598,14.117c0,0,0,0.051,0,0.1
		c0,44.444,0,88.937,0,133.431c0,0,0,0,0,0.051c-0.1,0-0.151,0-0.201,0c0-44.544,0-89.087,0-133.582
		C12.447,14.117,12.497,14.117,12.598,14.117L12.598,14.117z"/>
	<polygon fill="#1D1D1B" points="108.314,147.448 108.315,147.447 108.314,147.447 	"/>
	<path fill="#1D1D1B" d="M280.719,107.531c1.305,2.913,3.263,3.697,6.125,4.5c4.168-0.452,9.928-2.245,12.188-6.062
		c-0.05-3.214-0.075-6.43-0.125-9.594C291.523,96.576,279.011,97.087,280.719,107.531z"/>
	<path id="_160211896" inkscape:connector-curvature="0" fill="#1D1D1B" d="M12.598,14.217c0-0.05,0-0.1,0-0.1
		c22.95,0,45.95,0,68.949,0C58.547,14.117,35.548,14.168,12.598,14.217z"/>
	<path fill="#1D1D1B" d="M146.129,74.429c-0.954-6.278-2.36-11.802-4.219-17.928c-1.356-2.763-2.712-5.524-4.017-8.287
		c-3.716-5.875-7.583-10.897-12.404-15.869c-9.944-8.537-20.539-14.613-33.546-17.023c-0.201-0.201-3.013-0.502-3.214-0.704
		c-2.411-0.201-4.821-0.351-7.182-0.502c-23,0-45.999,0.051-68.949,0.1c0,44.444,0,88.938,0,133.431c22.95,0,45.95,0,68.949,0.051
		l0,0c6.378-0.252,12.656-1.456,18.732-3.265c2.31-0.904,4.619-1.807,6.98-2.661c9.491-4.871,16.622-10.497,24.005-18.33
		c0.201-0.452,0.201-0.452,3.013-4.119c5.574-8.537,9.189-17.125,11.249-27.168c0.25-2.562,0.552-5.122,0.854-7.684
		C146.279,81.109,146.178,77.744,146.129,74.429z M99.024,58.912c-5.424-2.712-12.103-3.115-18.079-3.265
		c0.402,3.716,0.803,17.326,6.529,18.731c-0.302,3.013-0.503,3.214-6.328,46.703c-0.201,0.201-1.758,12.154-1.958,12.504v0
		c-2.812-19.685-6.026-39.522-8.135-59.257c3.113-1.557,4.018-4.922,4.971-8.086c0.604-3.415,1.507-7.181,1.255-10.696
		c-5.975,0.15-12.504,0.754-17.928,3.365c-6.679,0-7.13-9.442-0.15-10.044c5.975,2.31,11.952,3.164,18.33,3.365
		c-0.301-6.278-0.954-12.203-3.314-18.028c0-1.708,0.402-2.662,1.506-3.918c4.018-2.611,7.834-0.904,8.487,3.817
		c-2.461,6.026-2.812,11.499-3.314,17.928c0.1,0.05,0.201,0.1,0.351,0.201c6.128-0.301,12.304-0.854,17.979-3.365
		C106.104,49.521,105.753,58.912,99.024,58.912z"/>
	<g>
		<path fill="#1D1D1B" d="M534.669,14.117c-136.796,0-273.591,0.051-410.336,0.1c2.009,1.657,4.017,3.315,6.026,5.022
			c7.785,7.533,13.659,15.568,18.581,25.209c0.854,2.16,1.708,4.369,2.561,6.579c5.223,16.522,5.474,32.592,0.503,49.214
			c-0.905,2.31-1.808,4.67-2.662,7.031c-2.962,6.076-6.428,11.499-10.345,16.974c-4.268,5.022-6.78,7.382-7.081,7.884
			c-7.231,6.378-14.814,11.4-23.601,15.316c142.169,0,284.337,0.051,426.555,0.1c0-44.442,0-88.886,0-133.279
			C534.77,14.218,534.719,14.168,534.669,14.117z M251.437,119.325c-4.319,1.004-8.336,2.009-12.805,2.511
			c-6.128,0.252-11.249-0.301-17.125-2.009c-11.249-4.67-17.928-12.605-21.293-24.255c-1.708-9.19-1.708-17.024,1.004-26.114
			c1.808-4.469,4.27-8.135,7.182-12.001c5.373-5.374,10.696-8.086,17.877-10.647c10.446-2.261,20.439-1.005,30.633,1.807
			c-1.205,3.365-2.36,6.78-3.515,10.195c-6.83-1.106-6.83-1.106-11.148-1.507l0,0c-1.356,0-2.712,0-4.018,0
			c-8.988,0-16.32,5.172-21.292,12.203c-1.507,3.214-2.21,5.373-2.411,5.575c-1.808,7.281-1.306,13.91,1.104,20.89
			c3.566,6.83,7.433,10.446,14.463,13.157c1.507,0.252,3.014,0.553,4.571,0.854c3.163,0,8.285,0.402,10.997-0.954
			c0-5.624,0.051-11.249,0.1-16.873c0-0.151,0-0.151-12.906-0.352c-0.051-3.566-0.051-7.13-0.051-10.696c0-0.051,0-0.1,0-0.1
			c8.639,0,17.326,0,26.014,0c0,11.902,0.05,23.803,0.1,35.756C256.408,117.617,253.897,118.471,251.437,119.325z M300.094,120.594
			c0-0.301-0.197-0.501-1-5.875c-0.151-0.05-0.243-0.125-0.344-0.125c-5.725,5.223-11.198,8.331-19.031,6.875
			c-5.424-2.059-8.102-4.808-10.562-10.031c-0.954-4.42-1.157-8.069,0.5-12.438c1.104-1.958,2.88-3.487,4.438-5.094
			c7.583-5.072,15.955-5.229,24.844-5.781c-0.201-4.82-0.391-8.734-5.312-10.844c-3.113-0.602-6.687-0.39-9.75,0.312
			c-2.863,0.854-5.657,1.753-8.469,2.656c-1.004-2.611-1.983-5.221-2.938-7.781c6.529-2.605,12.803-5.076,19.25-5.312
			c3.868-0.142,7.82,0.498,11.906,2.438c4.772,3.365,6.57,7.244,7.625,12.969c0.051,12.705,0.105,25.42,0.156,38.125
			C307.64,120.638,303.86,120.594,300.094,120.594z M337.512,120.681c-4.369,0-8.738,0-13.057,0c-0.05-26.516-0.1-52.981-0.1-79.446
			c0-0.1,0-0.201,0-0.301c4.369,0,8.739,0,13.158,0C337.512,67.499,337.512,94.065,337.512,120.681z M351.723,120.781
			c-0.151,0-0.252,0-0.352,0c0-17.476,0-34.952,0-52.428c0.051,0,0.1,0,0.201,0c4.219,0,8.437,0,12.705,0
			c0.051,17.426,0.1,34.852,0.151,52.328C360.16,120.681,355.941,120.732,351.723,120.781z M364.278,52.535
			c-1.707,2.812-3.565,3.917-6.78,4.218l0,0c-6.628-0.803-8.336-7.935-4.218-12.554C359.808,40.08,366.186,45.102,364.278,52.535z
			 M397.673,122.189L397.673,122.189c-8.789-0.804-14.563-3.817-19.535-11.3c-0.752-1.557-1.456-3.113-2.159-4.67
			c-4.721-18.229,4.219-36.961,23.854-39.221c5.474,0,10.597,1.306,15.769,3.013c-0.1,0.754-0.1,0.754-3.113,8.637
			c-1.507-0.15-1.507-0.15-4.871-0.854c-1.959,0-3.918,0-5.876,0c-4.068,1.005-6.829,2.21-9.692,5.323
			c-5.624,8.236-6.579,19.384,2.009,26.014c1.055,0.502,2.159,1.004,3.263,1.506c5.122,0.704,10.044,0.352,15.015-1.205
			c1.055-0.502,1.055-0.502,1.407-0.502c1.055,2.009,2.962,4.62,3.365,6.829C411.031,119.376,404.754,121.384,397.673,122.189z
			 M427.051,120.68c0-17.426,0-34.852,0-52.227c4.268-0.05,8.588-0.1,12.906-0.1c0.051,17.426,0.1,34.852,0.151,52.328
			C435.739,120.68,431.37,120.68,427.051,120.68z M435.086,56.552c-0.653,0.051-1.305,0.1-1.909,0.201
			c-5.574-1.104-8.085-5.875-5.424-11.198c3.215-3.617,8.135-4.018,11.451-0.151C441.615,50.376,440.108,54.644,435.086,56.552z
			 M491.688,120.688c-3.716,0-7.396,0.044-11.062,0.094c-0.351-1.004-0.34-1.008-1.094-6.281c-0.151,0-0.318,0.012-0.469,0.062
			C474.593,119.032,469.529,122,463,122c-10.646-1.557-15.797-10.661-13.688-20.906c4.519-12.304,19.215-12.204,30.062-12.906
			c-0.402-4.67-0.362-8.377-4.781-10.688c-2.009-0.402-1.987-0.424-2.188-0.625c-6.026,0-10.794,1.359-16.469,3.469
			c-1.004-1.607-3.339-6.607-2.938-7.812c5.624-2.661,11.617-4.766,17.844-5.469c2.361,0.1,4.734,0.181,7.094,0.281
			c0.201,0.201,1.679,0.394,5.094,1.75c6.177,4.117,8.034,8.405,8.688,15.688C491.668,96.733,491.688,108.685,491.688,120.688z"/>
		<path fill="#1D1D1B" d="M461.75,108.875c4.671,6.579,13.156,1.217,17.625-2.5c-0.05-3.364-0.094-6.748-0.094-10.062
			C472.151,96.513,456.83,97.978,461.75,108.875z"/>
	</g>
</g>
</svg>
