<?xml version="1.0" encoding="utf-8"?>
<!-- Generator: Adobe Illustrator 24.0.1, SVG Export Plug-In . SVG Version: 6.00 Build 0)  -->
<svg version="1.1" id="Capa_1" xmlns="http://www.w3.org/2000/svg" xmlns:xlink="http://www.w3.org/1999/xlink" x="0px" y="0px"
	 viewBox="0 0 245.2 354.8" style="enable-background:new 0 0 245.2 354.8;" xml:space="preserve">
<style type="text/css">
	.st0{display:none;}
	.st1{fill:#FFFFFF;}
</style>
<g id="Capa_2_1_" class="st0">
	
		<image style="display:inline;overflow:visible;opacity:0.35;enable-background:new    ;" width="1201" height="801" xlink:href="6DEDB4864799C051.jpeg"  transform="matrix(0.7992 0 0 0.7992 -2381.4221 -156.083)">
	</image>
	
		<image style="display:inline;overflow:visible;opacity:0.5;enable-background:new    ;" width="1201" height="801" xlink:href="6DEDB4864799C053.jpeg"  transform="matrix(0.7992 0 0 0.7992 -1531.1523 694.1866)">
	</image>
	
		<image style="display:inline;overflow:visible;opacity:0.35;enable-background:new    ;" width="1201" height="801" xlink:href="6DEDB4864799C051.jpeg"  transform="matrix(0.7992 0 0 0.7992 -1368.3765 -156.083)">
	</image>
	
		<image style="display:inline;overflow:visible;opacity:0.25;enable-background:new    ;" width="1201" height="801" xlink:href="6DEDB4864799C057.jpeg"  transform="matrix(0.7992 0 0 0.7992 -355.4581 -156.083)">
	</image>
</g>
<g id="Layer_1">
	<g>
		<g>
			<path class="st1" d="M53.9,30l138.2,0.1L192,168.3l-138.1-0.2L53.9,30 M47.6,23.6V30l-0.1,138.1v6.4h6.4l138.2,0.1h6.4v-6.4
				l0.1-138.2v-6.4h-6.4L53.9,23.6H47.6L47.6,23.6z"/>
			<g>
				<path class="st1" d="M60.4,73.4V67h10V57h6.4v10h10v6.4h-9.9v10.1h-6.4V73.4H60.4L60.4,73.4z"/>
			</g>
			<g>
				<polygon class="st1" points="142,89.4 136.7,89.4 141,82.7 147.2,84.9 				"/>
				<path class="st1" d="M115.7,119.8l-0.1-18.1l-6.7,15.4h-4.6l-6.7-15.5v18.2h-6.4v-28h7.8l7.6,16.7l7.6-16.7h7.8v28H115.7z"/>
				<path class="st1" d="M133.9,114.6l-2,5.1h-7.3l12-27.9h7.3l11.8,28h-7.6l-2-5.1L133.9,114.6L133.9,114.6z M140.1,98.9l-4.1,10.4
					h8L140.1,98.9z"/>
				<path class="st1" d="M174.9,92.4c2,0.6,3.6,1.3,5.1,2.3l-2.7,5.5c-1.5-0.8-3-1.5-4.7-2.1c-1.7-0.6-3.1-0.8-4.2-0.8
					c-0.9,0-1.7,0.1-2.2,0.5s-0.8,0.8-0.8,1.5c0,0.9,0.4,1.5,1.3,2c0.9,0.5,2.2,1,4.1,1.5c2,0.6,3.6,1.1,4.8,1.7
					c1.3,0.6,2.3,1.4,3.2,2.5c0.9,1.1,1.3,2.6,1.3,4.5c0,1.8-0.5,3.4-1.5,4.6c-1,1.3-2.3,2.2-4,2.9c-1.7,0.6-3.6,1-5.7,1
					c-2.3,0-4.6-0.4-6.9-1.2c-2.2-0.8-4.2-1.9-5.9-3.3l2.7-5.5c1.4,1.2,3.1,2.2,5,3c1.9,0.8,3.6,1.2,5.1,1.2c1.1,0,2-0.2,2.7-0.6
					c0.6-0.4,1-1.1,1-1.8c0-0.9-0.4-1.6-1.3-2.1c-0.9-0.5-2.3-1-4.2-1.5c-1.9-0.6-3.5-1-4.8-1.6c-1.3-0.6-2.3-1.3-3.2-2.4
					s-1.3-2.5-1.3-4.3c0-1.7,0.5-3.2,1.4-4.4s2.2-2.2,3.9-2.9c1.7-0.7,3.6-1,5.9-1C171,91.5,172.9,91.8,174.9,92.4z"/>
			</g>
			<path class="st1" d="M84.3,153.9c-1.8,1.7-4.1,2.4-7.1,2.4c-3.8,0-7-1.5-9.6-4.5l3.3-4.8c1,1,2,1.8,3,2.3c1,0.5,2,0.8,2.9,0.8
				c1,0,1.7-0.3,2.2-0.9c0.6-0.6,0.8-1.4,0.8-2.5v-12.9h-9.7v-5.7h16.7V147C86.9,150,86.1,152.2,84.3,153.9z"/>
			<path class="st1" d="M97.5,150.9l-2,5.1h-7.3l12-27.9h7.3l11.8,27.9h-7.6l-2-5.1H97.5L97.5,150.9z M103.7,135.2l-4.1,10.4h8
				L103.7,135.2z"/>
			<path class="st1" d="M146.3,156.1l-0.1-18.1l-6.7,15.4h-4.6l-6.7-15.4v18.1h-6.4v-28h7.8l7.6,16.7l7.6-16.7h7.8v28H146.3z"/>
			<path class="st1" d="M174.9,128.6c2,0.6,3.6,1.3,5.1,2.3l-2.7,5.5c-1.5-0.8-3-1.5-4.7-2.1c-1.7-0.6-3.1-0.8-4.2-0.8
				c-0.9,0-1.7,0.1-2.2,0.5c-0.6,0.4-0.8,0.8-0.8,1.5c0,0.9,0.4,1.5,1.3,2c0.9,0.5,2.2,1,4.1,1.5c2,0.6,3.6,1.1,4.8,1.7
				c1.3,0.6,2.3,1.4,3.2,2.5c0.9,1.1,1.3,2.6,1.3,4.5c0,1.8-0.5,3.4-1.5,4.6c-1,1.3-2.3,2.2-4,2.9c-1.7,0.6-3.6,1-5.7,1
				c-2.3,0-4.6-0.4-6.9-1.2c-2.2-0.8-4.2-1.9-5.9-3.3l2.7-5.5c1.4,1.2,3.1,2.2,5,3c1.9,0.8,3.6,1.2,5.1,1.2c1.1,0,2-0.2,2.7-0.6
				c0.6-0.4,1-1.1,1-1.8c0-0.9-0.4-1.6-1.3-2.1c-0.9-0.5-2.3-1-4.2-1.5c-1.9-0.6-3.5-1.1-4.8-1.6c-1.3-0.6-2.3-1.3-3.2-2.5
				c-0.9-1.1-1.3-2.5-1.3-4.3c0-1.7,0.5-3.1,1.4-4.4c0.9-1.3,2.2-2.2,3.9-2.9c1.7-0.7,3.6-1.1,5.9-1.1
				C171,127.8,172.9,128.1,174.9,128.6z"/>
		</g>
		<g>
			<path class="st1" d="M55.2,192c0,1.2-0.4,2.2-1.2,2.8c-0.8,0.6-2,1-3.4,1h-1.2v4.3h-1.9v-11.6h3.3c1.5,0,2.5,0.3,3.3,0.9
				C54.8,190,55.2,190.9,55.2,192z M49.4,194.2h1c1,0,1.7-0.1,2.2-0.5c0.5-0.3,0.7-0.8,0.7-1.6c0-0.7-0.2-1.2-0.6-1.5
				c-0.4-0.3-1-0.5-1.9-0.5h-1.3V194.2L49.4,194.2z"/>
			<path class="st1" d="M61.8,191.1c0.3,0,0.7,0,0.9,0.1l-0.2,1.8c-0.3-0.1-0.6-0.1-0.8-0.1c-0.8,0-1.3,0.2-1.8,0.7
				c-0.5,0.5-0.7,1.1-0.7,1.9v4.6h-1.9v-8.8h1.5l0.3,1.5H59c0.3-0.6,0.7-0.9,1.1-1.3C60.7,191.3,61.2,191.1,61.8,191.1z"/>
			<path class="st1" d="M72.1,195.7c0,1.5-0.3,2.6-1.1,3.4c-0.8,0.8-1.8,1.2-3.1,1.2c-0.8,0-1.5-0.2-2.2-0.6
				c-0.6-0.3-1.1-0.9-1.5-1.6s-0.5-1.5-0.5-2.4c0-1.4,0.3-2.5,1.1-3.4c0.7-0.8,1.8-1.2,3.1-1.2c1.3,0,2.3,0.4,3,1.3
				C71.8,193.2,72.1,194.3,72.1,195.7z M65.7,195.7c0,2,0.8,3.1,2.2,3.1s2.2-1.1,2.2-3.1s-0.8-3-2.2-3c-0.8,0-1.3,0.3-1.7,0.8
				C65.9,194,65.7,194.7,65.7,195.7z"/>
			<path class="st1" d="M81.7,200.1h-1.9v-5.4c0-0.7-0.1-1.2-0.3-1.5s-0.6-0.5-1.2-0.5c-0.7,0-1.3,0.2-1.6,0.7
				c-0.4,0.5-0.5,1.3-0.5,2.3v4.4h-1.9v-8.8h1.5l0.3,1.1h0.1c0.2-0.4,0.6-0.8,1.1-1c0.5-0.2,1-0.4,1.5-0.4c1.3,0,2.2,0.5,2.7,1.4
				h0.1c0.3-0.4,0.6-0.8,1.1-1c0.5-0.2,1-0.4,1.6-0.4c1,0,1.8,0.3,2.3,0.8c0.5,0.5,0.7,1.3,0.7,2.4v5.7h-1.9v-5.3
				c0-0.7-0.1-1.2-0.4-1.5s-0.6-0.5-1.2-0.5c-0.7,0-1.3,0.2-1.6,0.7c-0.3,0.4-0.5,1.1-0.5,2.1L81.7,200.1L81.7,200.1z"/>
			<path class="st1" d="M97.7,195.7c0,1.5-0.3,2.6-1.1,3.4c-0.8,0.8-1.8,1.2-3.1,1.2c-0.8,0-1.5-0.2-2.2-0.6
				c-0.6-0.3-1.1-0.9-1.5-1.6s-0.5-1.5-0.5-2.4c0-1.4,0.3-2.5,1.1-3.4c0.7-0.8,1.8-1.2,3.1-1.2c1.3,0,2.3,0.4,3,1.3
				C97.3,193.2,97.7,194.3,97.7,195.7z M91.2,195.7c0,2,0.8,3.1,2.2,3.1c1.5,0,2.2-1.1,2.2-3.1s-0.8-3-2.2-3c-0.8,0-1.3,0.3-1.7,0.8
				C91.4,194,91.2,194.7,91.2,195.7z"/>
			<path class="st1" d="M101.8,200.1l-3.4-8.8h2l1.8,5.1c0.3,0.8,0.5,1.5,0.6,2.1h0.1c0.1-0.4,0.2-1.1,0.6-2.1l1.8-5.1h2l-3.4,8.8
				H101.8z"/>
			<path class="st1" d="M108.5,189c0-0.4,0.1-0.6,0.3-0.8c0.2-0.2,0.4-0.3,0.8-0.3s0.6,0.1,0.8,0.3c0.2,0.2,0.3,0.4,0.3,0.8
				c0,0.3-0.1,0.6-0.3,0.8c-0.2,0.2-0.4,0.3-0.8,0.3s-0.6-0.1-0.8-0.3C108.5,189.5,108.5,189.3,108.5,189z M110.4,200.1h-1.9v-8.8
				h1.9V200.1z"/>
			<path class="st1" d="M116.9,200.3c-1.4,0-2.4-0.4-3.2-1.2c-0.8-0.8-1.2-1.9-1.2-3.3c0-1.5,0.3-2.6,1-3.4c0.7-0.8,1.7-1.3,2.9-1.3
				c1.2,0,2.1,0.4,2.7,1.1c0.6,0.7,1,1.7,1,2.9v1h-5.7c0,0.8,0.3,1.5,0.7,2c0.4,0.5,1.1,0.7,1.8,0.7c0.5,0,1-0.1,1.5-0.1
				c0.4-0.1,0.9-0.3,1.5-0.5v1.5c-0.5,0.2-0.9,0.3-1.4,0.5C118,200.4,117.6,200.3,116.9,200.3z M116.6,192.6c-0.6,0-1.1,0.2-1.4,0.6
				s-0.6,0.9-0.6,1.7h4c0-0.7-0.2-1.3-0.6-1.7C117.6,192.8,117.2,192.6,116.6,192.6z"/>
			<path class="st1" d="M130.2,200.1h-1.9v-5.4c0-0.7-0.1-1.2-0.4-1.5s-0.7-0.5-1.3-0.5c-0.8,0-1.4,0.2-1.8,0.7s-0.6,1.3-0.6,2.4
				v4.4h-1.9v-8.8h1.5l0.3,1.1h0.1c0.3-0.4,0.6-0.8,1.1-1s1-0.3,1.6-0.3c2.1,0,3.1,1.1,3.1,3.2L130.2,200.1L130.2,200.1z"/>
			<path class="st1" d="M135.8,200.3c-1.1,0-2-0.4-2.6-1.2c-0.6-0.8-0.9-1.9-0.9-3.4c0-1.5,0.3-2.6,0.9-3.4c0.6-0.8,1.5-1.2,2.6-1.2
				c1.2,0,2,0.4,2.7,1.3h0.1c-0.1-0.6-0.1-1.1-0.1-1.5v-3.3h1.9v12.4h-1.5l-0.3-1.1h-0.1C137.9,199.8,136.9,200.3,135.8,200.3z
				 M136.3,198.8c0.8,0,1.3-0.2,1.7-0.6c0.3-0.4,0.6-1.1,0.6-2.1v-0.3c0-1.1-0.2-1.9-0.6-2.4c-0.4-0.5-0.9-0.7-1.7-0.7
				c-0.6,0-1.2,0.3-1.5,0.8c-0.4,0.6-0.6,1.3-0.6,2.3c0,1,0.1,1.8,0.5,2.2C135.1,198.5,135.6,198.8,136.3,198.8z"/>
			<path class="st1" d="M150.8,195.7c0,1.5-0.4,2.6-1.1,3.4c-0.8,0.8-1.8,1.2-3.1,1.2c-0.8,0-1.5-0.2-2.2-0.6
				c-0.6-0.3-1.1-0.9-1.5-1.6s-0.5-1.5-0.5-2.4c0-1.4,0.3-2.5,1.1-3.4c0.7-0.8,1.8-1.2,3.1-1.2c1.3,0,2.3,0.4,3,1.3
				C150.5,193.2,150.8,194.3,150.8,195.7z M144.4,195.7c0,2,0.8,3.1,2.2,3.1s2.2-1.1,2.2-3.1s-0.8-3-2.2-3c-0.8,0-1.3,0.3-1.7,0.8
				C144.6,194,144.4,194.7,144.4,195.7z"/>
			<path class="st1" d="M52.2,213.4h4.3v5.8c-0.7,0.2-1.4,0.4-2,0.5c-0.6,0.1-1.3,0.1-2.1,0.1c-1.8,0-3.1-0.5-4.1-1.5
				c-1-1.1-1.4-2.5-1.4-4.4c0-1.9,0.6-3.4,1.6-4.4c1-1,2.6-1.6,4.5-1.6c1.2,0,2.4,0.2,3.4,0.7l-0.7,1.6c-1-0.4-1.9-0.6-2.8-0.6
				c-1.3,0-2.2,0.4-2.9,1.2s-1,1.8-1,3.2c0,1.4,0.3,2.5,1,3.2c0.6,0.8,1.6,1.1,2.8,1.1c0.6,0,1.3-0.1,2-0.2V215h-2.4V213.4
				L52.2,213.4z"/>
			<path class="st1" d="M60.9,219.7H59v-12.4h1.9V219.7z"/>
			<path class="st1" d="M71.4,215.3c0,1.5-0.3,2.6-1.1,3.4c-0.8,0.8-1.8,1.2-3.1,1.2c-0.8,0-1.5-0.2-2.2-0.6
				c-0.6-0.4-1.1-0.9-1.5-1.6c-0.4-0.7-0.5-1.5-0.5-2.4c0-1.4,0.3-2.5,1.1-3.4c0.8-0.8,1.8-1.2,3.1-1.2c1.3,0,2.3,0.4,3,1.3
				C71.1,212.8,71.4,213.9,71.4,215.3z M65.1,215.3c0,2,0.8,3.1,2.2,3.1s2.2-1.1,2.2-3.1c0-2-0.8-3-2.2-3c-0.8,0-1.3,0.3-1.7,0.8
				C65.2,213.5,65.1,214.3,65.1,215.3z"/>
			<path class="st1" d="M78.1,210.7c1.1,0,2,0.4,2.6,1.2c0.6,0.8,0.9,1.9,0.9,3.4c0,1.5-0.3,2.6-0.9,3.4c-0.6,0.8-1.5,1.2-2.6,1.2
				s-2-0.4-2.6-1.2h-0.1l-0.3,1.1h-1.4v-12.4h1.9v2.9c0,0.2,0,0.6,0,1s-0.1,0.7-0.1,0.8h0.1C76,211.2,77,210.7,78.1,210.7z
				 M77.6,212.3c-0.8,0-1.3,0.2-1.6,0.6c-0.4,0.4-0.5,1.2-0.5,2.2v0.1c0,1.1,0.1,1.8,0.5,2.3c0.3,0.5,0.9,0.7,1.7,0.7
				c0.6,0,1.2-0.3,1.5-0.8c0.3-0.6,0.5-1.3,0.5-2.3C79.7,213.3,79,212.3,77.6,212.3z"/>
			<path class="st1" d="M89.3,219.7l-0.3-1.3h-0.1c-0.4,0.6-0.8,0.9-1.3,1.1c-0.4,0.2-1,0.3-1.7,0.3c-0.8,0-1.5-0.2-2-0.7
				c-0.5-0.5-0.7-1.1-0.7-2c0-0.9,0.3-1.6,1-2c0.7-0.5,1.7-0.7,3.1-0.8l1.5-0.1v-0.5c0-0.6-0.1-1-0.4-1.3c-0.3-0.3-0.7-0.4-1.2-0.4
				c-0.4,0-0.9,0.1-1.3,0.2s-0.8,0.3-1.2,0.5l-0.6-1.3c0.5-0.3,1-0.4,1.5-0.6c0.6-0.1,1.1-0.2,1.6-0.2c1.1,0,2,0.2,2.5,0.7
				c0.6,0.5,0.8,1.3,0.8,2.3v6L89.3,219.7L89.3,219.7z M86.5,218.4c0.7,0,1.2-0.2,1.6-0.6c0.4-0.3,0.6-0.9,0.6-1.6v-0.8l-1.1,0.1
				c-0.9,0-1.5,0.2-1.9,0.4c-0.4,0.3-0.6,0.7-0.6,1.2c0,0.4,0.1,0.7,0.4,0.9C85.6,218.3,86,218.4,86.5,218.4z"/>
			<path class="st1" d="M95.1,219.7h-1.9v-12.4h1.9V219.7z"/>
			<path class="st1" d="M108.9,216.6c0,1.1-0.3,1.8-1.1,2.4c-0.8,0.6-1.8,0.9-3.1,0.9s-2.4-0.2-3.2-0.6v-1.8
				c0.6,0.3,1.1,0.4,1.7,0.6c0.6,0.1,1.1,0.2,1.7,0.2c0.8,0,1.3-0.1,1.7-0.4c0.3-0.3,0.6-0.7,0.6-1.1c0-0.4-0.1-0.8-0.5-1.1
				s-1-0.6-2-1.1c-1.1-0.4-1.8-0.9-2.2-1.5c-0.4-0.6-0.6-1.2-0.6-2c0-1,0.4-1.8,1.1-2.3c0.7-0.6,1.6-0.8,2.8-0.8
				c1.1,0,2.2,0.2,3.4,0.7l-0.6,1.5c-1-0.4-2-0.6-2.8-0.6c-0.6,0-1.1,0.1-1.4,0.4s-0.5,0.6-0.5,1.1c0,0.3,0.1,0.6,0.2,0.8
				c0.1,0.2,0.3,0.4,0.6,0.6c0.3,0.2,0.8,0.4,1.6,0.8c0.8,0.4,1.5,0.7,1.9,1s0.7,0.6,0.9,1.1C108.8,215.6,108.9,216,108.9,216.6z"/>
			<path class="st1" d="M114.8,219.8c-1.4,0-2.5-0.4-3.2-1.2s-1.2-1.9-1.2-3.3c0-1.5,0.3-2.6,1-3.4c0.7-0.8,1.7-1.3,2.9-1.3
				c1.2,0,2.1,0.3,2.7,1.1c0.7,0.7,1,1.7,1,2.9v1h-5.7c0,0.8,0.3,1.5,0.7,2c0.4,0.5,1,0.7,1.8,0.7c0.5,0,1-0.1,1.5-0.1
				c0.4-0.1,0.9-0.3,1.5-0.5v1.5c-0.5,0.2-0.9,0.4-1.4,0.5C115.9,219.8,115.4,219.8,114.8,219.8z M114.5,212.1
				c-0.6,0-1.1,0.2-1.4,0.6c-0.3,0.3-0.6,0.9-0.6,1.7h4c0-0.7-0.2-1.3-0.6-1.7C115.5,212.4,115,212.1,114.5,212.1z"/>
			<path class="st1" d="M124.8,210.7c0.3,0,0.7,0,0.9,0.1l-0.2,1.8c-0.3-0.1-0.6-0.1-0.8-0.1c-0.8,0-1.3,0.2-1.8,0.7
				s-0.7,1.1-0.7,1.9v4.6h-1.9v-8.8h1.5l0.3,1.5h0.1c0.3-0.6,0.7-0.9,1.1-1.3C123.8,210.9,124.3,210.7,124.8,210.7z"/>
			<path class="st1" d="M129.4,219.7l-3.4-8.8h2l1.8,5.1c0.3,0.8,0.5,1.5,0.6,2.1h0.1c0.1-0.3,0.2-1,0.6-2.1l1.8-5.1h2l-3.4,8.8
				H129.4z"/>
			<path class="st1" d="M136,208.6c0-0.3,0.1-0.6,0.3-0.8c0.2-0.2,0.4-0.3,0.8-0.3c0.3,0,0.6,0.1,0.8,0.3c0.2,0.2,0.3,0.4,0.3,0.8
				c0,0.4-0.1,0.6-0.3,0.8c-0.2,0.2-0.4,0.3-0.8,0.3c-0.4,0-0.6-0.1-0.8-0.3S136,208.9,136,208.6z M138,219.7h-1.9v-8.8h1.9V219.7z"
				/>
			<path class="st1" d="M144.2,219.8c-1.3,0-2.4-0.4-3-1.2c-0.7-0.8-1.1-1.9-1.1-3.4c0-1.5,0.4-2.6,1.1-3.4c0.7-0.8,1.8-1.2,3.1-1.2
				c0.9,0,1.8,0.1,2.5,0.5l-0.6,1.5c-0.8-0.3-1.5-0.5-2-0.5c-1.5,0-2.3,1-2.3,3c0,1,0.2,1.8,0.6,2.2s0.9,0.8,1.7,0.8
				c0.8,0,1.6-0.2,2.4-0.6v1.6c-0.4,0.2-0.7,0.4-1.1,0.4C145.2,219.8,144.7,219.8,144.2,219.8z"/>
			<path class="st1" d="M152.6,219.8c-1.4,0-2.4-0.4-3.2-1.2s-1.2-1.9-1.2-3.3c0-1.5,0.4-2.6,1.1-3.4c0.7-0.8,1.7-1.3,2.9-1.3
				c1.2,0,2.1,0.3,2.7,1.1c0.7,0.7,1,1.7,1,2.9v1H150c0,0.8,0.3,1.5,0.7,2c0.4,0.5,1.1,0.7,1.8,0.7c0.5,0,1-0.1,1.5-0.1
				c0.4-0.1,0.9-0.3,1.5-0.5v1.5c-0.5,0.2-0.9,0.4-1.4,0.5C153.7,219.8,153.2,219.8,152.6,219.8z M152.2,212.1
				c-0.6,0-1.1,0.2-1.4,0.6c-0.4,0.3-0.6,0.9-0.6,1.7h4c0-0.7-0.2-1.3-0.6-1.7C153.3,212.4,152.8,212.1,152.2,212.1z"/>
			<path class="st1" d="M161.1,222.9c-0.5,0-1-0.1-1.3-0.2v-1.6c0.4,0.1,0.8,0.1,1.2,0.1c1.1,0,1.5-0.6,1.5-2V208h1.9v11.2
				c0,1.2-0.3,2.1-0.8,2.7C163,222.6,162.2,222.9,161.1,222.9z"/>
			<path class="st1" d="M172.7,219.7l-0.4-1.3h-0.1c-0.4,0.6-0.8,0.9-1.3,1.1c-0.4,0.2-1,0.3-1.7,0.3c-0.8,0-1.5-0.2-2-0.7
				c-0.5-0.5-0.7-1.1-0.7-2c0-0.9,0.3-1.6,1-2c0.7-0.5,1.7-0.7,3.1-0.8l1.5-0.1v-0.5c0-0.6-0.1-1-0.4-1.3c-0.3-0.3-0.7-0.4-1.2-0.4
				c-0.4,0-0.9,0.1-1.3,0.2c-0.4,0.1-0.8,0.3-1.2,0.5l-0.6-1.3c0.5-0.3,1-0.4,1.5-0.6c0.6-0.1,1.1-0.2,1.6-0.2c1.1,0,2,0.2,2.5,0.7
				s0.8,1.3,0.8,2.3v6L172.7,219.7L172.7,219.7z M169.9,218.4c0.7,0,1.2-0.2,1.6-0.6c0.4-0.3,0.6-0.9,0.6-1.6v-0.8l-1.1,0.1
				c-0.9,0-1.5,0.2-1.9,0.4c-0.4,0.3-0.6,0.7-0.6,1.2c0,0.4,0.1,0.7,0.3,0.9C169.2,218.3,169.5,218.4,169.9,218.4z"/>
			<path class="st1" d="M184.1,219.7h-1.9v-5.5c0-0.7-0.1-1.2-0.4-1.5c-0.3-0.3-0.6-0.5-1.2-0.5c-0.7,0-1.3,0.2-1.6,0.7
				c-0.3,0.5-0.5,1.3-0.5,2.3v4.4h-1.9v-8.8h1.5l0.3,1.1h0.1c0.2-0.4,0.6-0.8,1.1-1c0.5-0.2,1-0.4,1.5-0.4c1.3,0,2.2,0.5,2.7,1.4
				h0.1c0.3-0.4,0.6-0.8,1.1-1.1s1-0.4,1.6-0.4c1.1,0,1.8,0.3,2.3,0.8c0.5,0.6,0.7,1.3,0.7,2.4v5.7h-1.9v-5.5c0-0.7-0.1-1.2-0.4-1.5
				c-0.3-0.4-0.6-0.5-1.2-0.5c-0.7,0-1.3,0.2-1.6,0.7c-0.4,0.4-0.5,1.1-0.5,2.1L184.1,219.7L184.1,219.7z"/>
			<path class="st1" d="M198.2,217.2c0,0.8-0.3,1.5-0.9,2c-0.6,0.5-1.5,0.7-2.7,0.7c-1.2,0-2.1-0.2-2.8-0.6v-1.6
				c1.1,0.5,2,0.7,2.9,0.7c1.1,0,1.8-0.4,1.8-1.1c0-0.2-0.1-0.4-0.2-0.6c-0.1-0.1-0.4-0.3-0.6-0.5c-0.3-0.1-0.7-0.4-1.2-0.6
				c-1-0.4-1.7-0.8-2-1.2c-0.4-0.4-0.6-0.9-0.6-1.5c0-0.8,0.3-1.3,0.9-1.8s1.4-0.6,2.5-0.6c1,0,2,0.2,2.9,0.6l-0.6,1.4
				c-1-0.4-1.8-0.6-2.4-0.6c-1,0-1.5,0.3-1.5,0.8c0,0.3,0.1,0.5,0.4,0.7c0.3,0.2,0.8,0.4,1.7,0.8c0.7,0.3,1.3,0.6,1.6,0.8
				c0.4,0.2,0.6,0.5,0.7,0.8C198.1,216.4,198.2,216.8,198.2,217.2z"/>
			<path class="st1" d="M51.1,239.4c-1.4,0-2.5-0.4-3.2-1.2s-1.2-1.9-1.2-3.3c0-1.5,0.3-2.6,1-3.4c0.7-0.8,1.7-1.3,2.9-1.3
				c1.2,0,2.1,0.4,2.7,1.1c0.6,0.7,1,1.7,1,2.9v1h-5.7c0,0.8,0.3,1.5,0.7,2c0.4,0.5,1,0.7,1.8,0.7c0.5,0,1-0.1,1.5-0.1
				c0.4-0.1,0.9-0.3,1.5-0.5v1.5c-0.5,0.2-0.9,0.4-1.4,0.5C52.2,239.4,51.7,239.4,51.1,239.4z M50.8,231.7c-0.6,0-1,0.2-1.4,0.6
				c-0.4,0.4-0.6,0.9-0.6,1.7h4c0-0.7-0.2-1.3-0.6-1.7C51.8,231.9,51.3,231.7,50.8,231.7z"/>
			<path class="st1" d="M64.4,239.2h-1.9v-5.4c0-0.7-0.1-1.2-0.4-1.5c-0.3-0.3-0.7-0.5-1.3-0.5c-0.8,0-1.4,0.2-1.8,0.7
				c-0.4,0.5-0.6,1.3-0.6,2.4v4.4h-1.9v-8.8H58l0.3,1.1h0.2c0.3-0.4,0.6-0.8,1.1-1c0.5-0.2,1-0.4,1.6-0.4c2.1,0,3.2,1.1,3.2,3.2
				V239.2L64.4,239.2z"/>
			<path class="st1" d="M78.6,239.2l-1.2-3.2H73l-1.1,3.2h-2l4.3-11.7h2.1l4.3,11.7H78.6z M77,234.4l-1.1-3.1
				c-0.1-0.2-0.2-0.6-0.3-1c-0.1-0.5-0.2-0.8-0.3-1c-0.1,0.6-0.3,1.4-0.6,2.2l-1.1,3L77,234.4L77,234.4z"/>
			<path class="st1" d="M86.5,230.3c0.3,0,0.7,0,0.9,0.1l-0.2,1.8c-0.3-0.1-0.6-0.1-0.8-0.1c-0.8,0-1.3,0.2-1.8,0.7
				s-0.7,1.1-0.7,1.9v4.6h-1.9v-8.8h1.5l0.3,1.5h0.1c0.3-0.6,0.7-0.9,1.1-1.3C85.4,230.4,85.9,230.3,86.5,230.3z"/>
			<path class="st1" d="M96.5,230.5v1.1l-1.5,0.3c0.1,0.2,0.3,0.4,0.3,0.7s0.1,0.6,0.1,0.8c0,0.9-0.3,1.6-0.9,2.2
				c-0.6,0.6-1.5,0.8-2.6,0.8c-0.3,0-0.6,0-0.8-0.1c-0.4,0.3-0.6,0.6-0.6,0.9c0,0.2,0.1,0.4,0.3,0.4c0.2,0.1,0.6,0.1,1.1,0.1h1.5
				c1,0,1.7,0.2,2.2,0.6c0.6,0.4,0.8,1,0.8,1.8c0,1-0.4,1.8-1.3,2.3c-0.8,0.6-2,0.8-3.6,0.8c-1.2,0-2.1-0.2-2.7-0.6
				c-0.6-0.4-1-1.1-1-1.8c0-0.6,0.1-1,0.5-1.4c0.3-0.3,0.8-0.6,1.5-0.8c-0.3-0.1-0.5-0.3-0.6-0.5c-0.1-0.2-0.2-0.5-0.2-0.8
				c0-0.3,0.1-0.6,0.3-0.8c0.2-0.2,0.5-0.4,0.8-0.7c-0.5-0.2-0.8-0.5-1.1-1c-0.3-0.4-0.4-1-0.4-1.5c0-1,0.3-1.7,0.9-2.2
				c0.6-0.6,1.5-0.8,2.6-0.8c0.3,0,0.5,0,0.8,0.1c0.3,0.1,0.5,0.1,0.6,0.1L96.5,230.5L96.5,230.5z M89.6,240.6
				c0,0.4,0.2,0.7,0.6,0.9s0.8,0.3,1.5,0.3c1,0,1.8-0.1,2.3-0.4c0.5-0.3,0.8-0.7,0.8-1.2c0-0.3-0.1-0.6-0.4-0.8
				c-0.3-0.1-0.8-0.2-1.5-0.2h-1.4c-0.6,0-1,0.1-1.3,0.3C89.7,239.9,89.6,240.2,89.6,240.6z M90.3,233.3c0,0.6,0.1,1,0.4,1.3
				c0.3,0.3,0.7,0.4,1.2,0.4c1.1,0,1.6-0.6,1.6-1.8c0-0.6-0.1-1.1-0.4-1.3c-0.3-0.3-0.7-0.5-1.2-0.5c-0.6,0-1,0.1-1.3,0.5
				C90.5,232.2,90.3,232.7,90.3,233.3z"/>
			<path class="st1" d="M101.9,239.4c-1.4,0-2.4-0.4-3.2-1.2c-0.8-0.8-1.2-1.9-1.2-3.3c0-1.5,0.3-2.6,1.1-3.4
				c0.7-0.8,1.7-1.3,2.9-1.3c1.2,0,2.1,0.4,2.7,1.1c0.7,0.7,1,1.7,1,2.9v1h-5.9c0,0.8,0.3,1.5,0.7,2c0.4,0.5,1.1,0.7,1.8,0.7
				c0.5,0,1-0.1,1.5-0.1c0.4-0.1,0.9-0.3,1.5-0.5v1.5c-0.5,0.2-0.9,0.4-1.4,0.5C102.9,239.5,102.6,239.4,101.9,239.4z M101.6,231.7
				c-0.6,0-1.1,0.2-1.4,0.6c-0.3,0.4-0.6,0.9-0.6,1.7h4c0-0.7-0.2-1.3-0.6-1.7C102.7,231.9,102.2,231.7,101.6,231.7z"/>
			<path class="st1" d="M115.2,239.2h-1.9v-5.4c0-0.7-0.1-1.2-0.4-1.5c-0.3-0.3-0.7-0.5-1.3-0.5c-0.8,0-1.4,0.2-1.8,0.7
				c-0.3,0.5-0.6,1.3-0.6,2.4v4.4h-1.8v-8.8h1.5l0.3,1.1h0.1c0.3-0.4,0.6-0.8,1.1-1s1.1-0.4,1.6-0.4c2.1,0,3.2,1.1,3.2,3.2
				L115.2,239.2L115.2,239.2z"/>
			<path class="st1" d="M121.1,237.9c0.5,0,0.9-0.1,1.4-0.2v1.4c-0.2,0.1-0.5,0.1-0.8,0.2c-0.3,0.1-0.6,0.1-1.1,0.1
				c-1.8,0-2.7-0.9-2.7-2.8v-4.8h-1.2V231l1.3-0.7l0.6-1.9h1.1v2h2.5v1.4h-2.5v4.7c0,0.4,0.1,0.8,0.3,1
				C120.5,237.8,120.8,237.9,121.1,237.9z"/>
			<path class="st1" d="M124.1,228.1c0-0.4,0.1-0.6,0.3-0.8c0.2-0.2,0.4-0.3,0.8-0.3s0.6,0.1,0.8,0.3c0.2,0.2,0.3,0.4,0.3,0.8
				c0,0.3-0.1,0.6-0.3,0.8c-0.2,0.2-0.4,0.3-0.8,0.3s-0.6-0.1-0.8-0.3C124.2,228.7,124.1,228.5,124.1,228.1z M126.1,239.2h-1.8v-8.8
				h1.9L126.1,239.2L126.1,239.2z"/>
			<path class="st1" d="M136.5,239.2h-1.9v-5.4c0-0.7-0.1-1.2-0.4-1.5c-0.3-0.3-0.7-0.5-1.3-0.5c-0.8,0-1.4,0.2-1.8,0.7
				c-0.3,0.5-0.6,1.3-0.6,2.4v4.4h-1.9v-8.8h1.5l0.3,1.1h0.1c0.3-0.4,0.6-0.8,1.1-1c0.5-0.2,1.1-0.4,1.6-0.4c2.1,0,3.2,1.1,3.2,3.2
				L136.5,239.2L136.5,239.2z"/>
			<path class="st1" d="M144.7,239.2l-0.4-1.3h-0.1c-0.4,0.6-0.8,0.9-1.3,1.1c-0.4,0.2-1,0.3-1.7,0.3c-0.8,0-1.5-0.2-2-0.7
				c-0.5-0.5-0.7-1.1-0.7-2c0-0.9,0.3-1.6,1-2c0.6-0.4,1.7-0.7,3.1-0.8l1.5-0.1v-0.5c0-0.6-0.1-1-0.4-1.3c-0.3-0.3-0.7-0.4-1.2-0.4
				c-0.4,0-0.9,0.1-1.3,0.2c-0.4,0.1-0.8,0.3-1.2,0.5l-0.6-1.3c0.5-0.3,1-0.4,1.5-0.6s1.1-0.2,1.6-0.2c1.1,0,2,0.2,2.5,0.7
				c0.6,0.5,0.8,1.3,0.8,2.3v5.9L144.7,239.2L144.7,239.2z M141.9,238c0.7,0,1.2-0.2,1.6-0.6c0.4-0.3,0.6-0.9,0.6-1.6V235l-1.1,0.1
				c-0.9,0-1.5,0.2-1.9,0.4c-0.4,0.3-0.6,0.7-0.6,1.2c0,0.4,0.1,0.7,0.4,0.9C141.1,237.9,141.4,238,141.9,238z"/>
		</g>
	</g>
</g>
</svg>
