<?xml version="1.0" encoding="utf-8"?>
<!-- Generator: Adobe Illustrator 23.0.3, SVG Export Plug-In . SVG Version: 6.00 Build 0)  -->
<svg version="1.1" id="Capa_1" xmlns="http://www.w3.org/2000/svg" xmlns:xlink="http://www.w3.org/1999/xlink" x="0px" y="0px"
	 viewBox="0 0 756 756" style="enable-background:new 0 0 756 756;" xml:space="preserve">
<g>
	<g>
		<path d="M391.1,372c5.5-11.6,10.4-22.6,16-33.3c10.5-20.3,22.1-40,38.4-56.2c4.9-4.9,11.4-8.8,18-11.1
			c12.3-4.3,23.8,1.8,28.7,13.9c4.7,11.8,4.3,24.2,3,36.4c-1.3,12.4-3.2,24.7-5,38.5c3-6,5.4-10.7,7.8-15.5
			c10.2-21.2,23.3-40.3,40.1-56.9c6.8-6.7,14.3-12.4,24.5-11.4c11.1,1.1,19.9,11,22.1,23.9c3,16.6,0.5,33-3.4,49
			c-6.5,26.3-14.5,52.3-21.6,78.4c-3.9,14.4-7.2,29-10.4,43.7c-0.8,3.8-0.1,7.8-0.1,13.4c3.7-3.2,6.8-5.3,9.2-8
			c11.5-12.5,19-27.3,24.5-43.1c4.4-12.4,7.9-25.1,11.9-37.6c0.9-2.8,1.8-5.7,3.2-8.4c3.2-6.3,9.1-9.5,15-8.6
			c6.4,1,11.9,6.2,12.5,13.1c0.5,6.2,0.3,12.6-0.6,18.8c-2,14-9.2,25.9-16.7,37.5c-12,18.8-27,35.1-43.7,49.6
			c-16.1,14-34.8,9.7-43.6-7.9c-3.5-7-6.1-14.9-6.9-22.7c-2.3-24.3,1.7-48.1,8.6-71.5c7.8-26.3,15.2-52.8,22.7-79.2
			c0.2-0.8,0.4-1.6,0.5-2.4c-0.4-0.3-0.8-0.6-1.2-0.9c-4.7,6-9.7,11.8-13.9,18.1c-17.8,26.9-29.2,56.8-40.6,86.7
			c-6.6,17.4-12.4,35.2-18.4,52.8c-2.1,6-5.2,10.4-12.4,10c-2.5-0.1-5,0.3-7.5,0.1c-11.7-0.7-17.4-6.7-17.9-18.5
			c-1.3-29.3,2.3-58.1,8.4-86.7c5-23.6,10.1-47.2,15.2-70.8c0.2-1.1,0.3-2.3-0.7-4.3c-4.4,4.7-9,9.3-13,14.3
			c-17.7,22.1-29.7,47.3-39.4,73.6c-11.6,31.6-22.6,63.4-29.7,96.3c-1,4.6-2.1,9.2-2.2,13.8c-0.1,9.2-4.5,16.5-9.5,23.6
			c-8.2,11.6-24.7,10.4-33.1-0.9c-9.6-12.9-10.1-27.2-9.5-41.9c1.4-32.9,7.5-65.2,15-97.1c7.6-32.6,16.6-64.9,23.6-97.5
			c5.1-23.8,5.4-47.9-1.9-71.6c-12.8-42.1-52.1-58-84.1-54.5c-32.7,3.5-61.2,17.4-86.8,37.4c-32.8,25.6-56.1,57.6-64,99.3
			c-4.9,25.7-0.2,50.2,13,72.7c16.4,28.1,48.7,38.5,79.3,25.9c26-10.7,43.7-29.9,54.1-55.8c4.9-12.1,2.6-23.6-4.1-34.3
			c-3.7-5.9-9.7-8.1-16.2-8.5c-6.4-0.4-12.9,0-19.4,0.2c-3.5,0.1-7,0.9-10.4,0.8c-5.9-0.2-10.9-2.5-13.2-8.2
			c-2.4-5.8-1.1-11.4,3.3-15.7c3.3-3.2,7.3-6,11.4-7.9c19.1-8.5,38.6-10.3,57.8-0.3c13.1,6.8,20.2,18.5,24.5,32.1
			c5.8,18.3,4.1,36.3-4.3,53.4c-12.2,24.7-29.6,45-53.8,58.9c-27.8,15.9-56.8,20.6-87.2,8.4c-25.8-10.4-41.7-30.5-50.9-55.9
			c-16.2-44.4-7.7-86.1,16.1-125.3c17.4-28.7,41.5-50.8,69.8-68.6c23.2-14.6,47.2-27,74.4-32.1c57.7-10.8,108.2,19.1,128.2,74.5
			c13.1,36.3,14.1,72.9,7.1,110.2c-3,16.2-6.8,32.2-10.2,48.4C391.2,369.7,391.2,370.5,391.1,372z"/>
		<path d="M58.1,591.3c0.8-14.5,1.6-28.9,2.5-43.4c0.3-5.2,1.7-5.9,6.2-5c24.3,4.8,48.5,10.3,73,13.9c24,3.5,48.3,5.9,72.5,6.8
			c29.1,1.1,58.3,1.6,87.3-0.4c29.3-1.9,58.4-7.2,87.6-10.8c37.9-4.7,75.7-9.7,113.6-13.8c36.9-4,73.9-3.4,110.8,0.3
			c23.5,2.4,46.9,6.3,70.2,9.9c10.3,1.6,14.2,6,14.6,16.7c0.3,9.1-0.4,18.3-0.9,27.4c-0.5,8.8-1.4,17.6-2.2,26.4
			c-0.2,1.8-0.4,3.7-0.8,5.4c-2.1,8.4-4.9,10.2-13.4,9.3c-40.2-4.6-80.5-3.9-120.8-1.6c-34.6,2-69.2,4.2-103.6,7.7
			c-24.5,2.5-48.7,7.4-73.1,11c-39.7,6-79.4,12.5-119.6,12.9c-46.1,0.4-92-2.4-136.8-14.4c-21.2-5.7-42.3-12.1-62-22.1
			c-3.9-2-4-5.1-4.1-8.3c-0.2-9.3-0.1-18.6-0.1-28C58.8,591.3,58.5,591.3,58.1,591.3z M385.7,616.4c-0.8-1.2-1.9-2.4-2.5-3.7
			c-4.9-10.7-9.9-21.4-14.6-32.2c-1.6-3.7-3.9-5.7-8-5.1c-4,0.6-5.5,3.5-5.6,7.2c-0.2,4-0.1,8-0.1,12c-0.2,11.8-0.6,23.6-0.7,35.5
			c0,3.3,0.8,6.7,5,6.8c4.3,0,4.7-3.3,4.7-6.7c0-7.7,0.1-15.3,0.3-23c0-2,0.4-4.1,0.6-6.1c1.8,1.3,2.5,2.7,3.3,4.1
			c4.2,7.2,8.3,14.4,12.6,21.5c2.1,3.4,5.2,6,9.6,4.4c4.3-1.5,6.6-4.4,6.3-9.5c-0.6-10.6-0.8-21.3-1.2-32c-0.1-4,0.3-8.1-0.5-11.9
			c-0.4-1.7-3.1-3.9-4.9-4.1c-1.3-0.1-3.2,2.6-4.3,4.3c-0.5,0.8,0,2.3,0,3.4C385.7,592.8,385.7,604.4,385.7,616.4z M566.6,590.7
			c-0.4,0.1-0.9,0.2-1.3,0.4c-0.6-0.9-1.3-1.8-1.8-2.8c-4.7-9.4-9.3-18.8-13.9-28.2c-1.8-3.7-5-4.8-8.8-4c-3.9,0.8-4.5,4-4.6,7.3
			c-0.3,14-0.6,28-0.9,41.9c-0.1,3.7,0.7,7,5.2,7c4.6,0,4.3-3.9,4.4-7c0.3-8.2,0.4-16.3,0.6-24.5c0-1.3,0.5-2.6,1-5.3
			c1.4,2.9,2,4.5,2.8,5.9c4.9,8.7,9.7,17.4,14.8,26c1.9,3.3,4.7,5,8.8,3.7c4.4-1.4,4.4-4.8,4.4-8.5c-0.2-15-0.4-29.9-0.5-44.9
			c0-3.4-1.1-6.1-4.8-6.4c-3.7-0.3-4.9,2.6-5.1,5.6c-0.3,5-0.3,10-0.3,15C566.5,578.1,566.6,584.4,566.6,590.7z M241.2,618.4
			c1.8-6.9,3.3-13.5,5.4-19.9c1.3-3.8,4.8-6.3,8.6-4.9c2,0.7,2.8,4.6,4.5,6.8c1.3,1.8,2.9,4.1,4.7,4.6c3,0.8,4.2-1.8,4.6-4.5
			c1.3-8.6-5.2-16.3-13.9-16.5c-8.9-0.2-14.7,3.8-18.4,12.5c-5.2,12.2-5.4,24.7-1.8,37.1c1.3,4.4,4.3,8.7,7.6,12
			c4.2,4.2,10,5.1,15.8,3c5.7-2,8.6-6.5,8.9-12.1c0.3-4.3,1.1-7,6.1-7.6c1.4-0.2,3.2-3.1,3.5-5c0.2-0.9-2.5-3.5-3.8-3.5
			c-5.3,0.1-10.6,0.7-15.8,1.6c-1.4,0.3-3.3,2.1-3.6,3.5c-0.3,1.3,1.2,3.1,2,4.6c0.6,1.2,2.3,2.5,2,3.3c-0.7,2.3-2.1,6.3-3.3,6.3
			c-2.5,0.1-6.5-1.3-7.4-3.3C244.4,630.7,243.1,624.6,241.2,618.4z M173,611.1c0.3,0,0.5,0,0.8,0c0,1.5,0,3,0,4.5
			c0.2,7,0,14,0.7,20.9c0.2,1.9,2.8,4.8,4.7,5.1c3,0.5,4.5-2.1,4.5-5.2c0-1.7-0.4-3.5,0.1-4.9c0.5-1.5,1.7-3.2,3.1-3.8
			c0.8-0.4,2.9,0.9,3.6,2c2.2,3.1,3.8,6.6,6,9.8c1.8,2.6,4.3,4.7,7.5,2.6c3.1-2,2.1-4.9,0.6-7.5c-2-3.5-4.3-6.8-5.9-10.4
			c-0.7-1.6-0.5-4.2,0.4-5.7c5.6-9.3,4.5-23-2.7-31.2c-3.9-4.4-8.9-6.4-14.6-6.5c-6.3-0.2-8.7,2.3-8.8,8.5
			C173,596.5,173,603.8,173,611.1z M630.5,602.2c0.7,2.4,0.9,5,2.1,6.8c1,1.5,3.2,2.8,5,3c1.1,0.1,3.4-2,3.6-3.3
			c0.5-4.4,0.8-9,0.1-13.3c-1.1-6.8-3.2-13.4-4.7-20.2c-1.2-5.4-1.8-10.9-3.3-16.1c-0.5-1.8-2.9-3.5-4.8-4.2
			c-1.2-0.4-3.6,0.7-4.6,1.9c-1.9,2.2-3.7,4.7-4.8,7.5c-5.6,14.3-11,28.6-16.1,43c-0.6,1.6,0.6,4.8,2,5.8c2.5,1.9,5.1,0.5,6.6-2.3
			c1.3-2.3,2.3-4.7,3.1-6.2C620.2,603.7,625.2,603,630.5,602.2z M144.1,633.5c-1.3-8.3-2.3-15-3.4-21.8c-1.6-10.7-3.1-21.3-5.1-31.9
			c-0.4-2.1-2.8-5.1-4.6-5.3c-1.8-0.3-5.1,2-5.9,3.9c-6.1,14.6-11.7,29.3-17.4,44c-1.1,2.9-1.3,5.9,2,7.3c3.5,1.5,5.5-0.6,7-3.7
			c0.6-1.1,2.2-2.7,3-2.6c4.2,0.8,8.6,1.5,12.4,3.4c1.6,0.8,1.3,4.7,2.6,6.6c1.3,1.8,3.7,4,5.6,4
			C141.8,637.4,143.4,634.3,144.1,633.5z M307.1,612.6c0-3.6,0-6.7,0-9.8c-0.1-11-0.1-11,10.6-12.4c0.7-0.1,1.3-0.2,2-0.3
			c2.7-0.5,4.7-1.6,4.4-4.9c-0.4-3.5-2.7-4.4-5.6-4c-5.1,0.6-10.2,1.6-15.3,2c-5.4,0.4-6.5,3.6-6.3,8.1c0.2,5.5,0.1,11,0.1,16.4
			c0,9.3,0,18.6,0.1,27.9c0.1,3.7,0.8,8.5,5.3,8.3c7.7-0.4,15.4-2.2,23-3.8c1.2-0.2,2.8-3,2.5-4.2c-0.4-1.5-2.4-3.2-4-3.6
			c-2-0.5-4.2,0.3-6.4,0.6c-3.2,0.4-6.5,0.9-9.6,1.3c-2.8-10.6-2-11.9,7.6-13.2c0.2,0,0.4,0.1,0.5,0c1.6-1.6,3.1-3.3,4.6-4.9
			c-1.8-1.4-3.3-3.5-5.3-4C313,611.4,310.4,612.3,307.1,612.6z M440.3,597.4c-0.4,0-0.8,0-1.1,0c0,6.8,0,13.6,0,20.5
			c0,3.3,0.4,6.8,4.8,6.7c4.3-0.1,4.6-3.6,4.7-6.9c0.4-13,0.9-25.9,1.3-38.9c0.3-7.1,0.3-7.1,7.2-8c2.8-0.4,6-1.3,5.1-4.6
			c-0.5-1.8-3.7-4.1-5.6-4c-8.6,0-17.2,0.5-25.8,1.5c-1.9,0.2-4.5,3.2-4.8,5.1c-0.5,3.2,2.5,4.3,5.4,4.3c0.8,0,1.7-0.1,2.5-0.2
			c6.3-0.5,6.3-0.5,6.3,6C440.3,585.2,440.3,591.3,440.3,597.4z M502,589c0.3,0,0.5,0,0.8,0c0-7.8,0-15.6,0-23.4
			c0-3.1-0.1-6.4-4.2-6.6c-4.2-0.2-5.2,3-5.3,6.4c-0.3,16-0.5,31.9-0.7,47.9c0,3.3,0.9,6.2,4.9,6.1c4-0.1,4.5-3.2,4.5-6.4
			C502,605,502,597,502,589z"/>
		<path d="M483.1,198.9c0.2-4.5,0.2-9,0.7-13.5c0.4-3.9-1.2-4.9-4.8-4.7c-7.5,0.3-15,0.5-22.5,0.3c-3.9-0.1-8-0.8-11.6-2.2
			c-5.8-2.3-10.5-6-10.7-13.1c-0.3-7.4,4.1-12.3,10-15.5c3.8-2.1,8.4-3.1,12.8-3.6c7.8-0.9,15.6-1.2,23.4-1.4
			c3.7-0.1,5.2-1.5,5.6-5.2c1.2-11.6,2.5-23.2,4.4-34.6c1-6,5-10.2,11.1-11.5c6-1.3,11.5,0.5,14.8,5.8c1.9,3.1,3.3,7,3.6,10.7
			c0.8,9.4,1.1,18.9,1.2,28.4c0.1,3.7,1.3,4.9,5,4.9c8,0,16,0.1,24,0.7c4.9,0.4,9.9,1.5,14.5,3.2c5.7,2.1,9.3,6.4,9.2,12.9
			c-0.1,5.5-3.9,10.4-10.5,11.8c-9.4,2-19,3.4-28.5,4.3c-14.4,1.3-14.4,1-15.7,15.3c-0.7,7.1-1.6,14.2-2.5,21.3
			c-0.7,5.7-3.2,10.4-7.7,14.2c-7.6,6.4-17.7,4.9-22.6-3.8c-1.9-3.4-2.8-7.4-3.3-11.3c-0.6-4.4-0.1-9-0.1-13.5
			C483,198.9,483,198.9,483.1,198.9z"/>
		<path d="M183.7,617.5c0-9,0-17.8,0-26.6c4.9,0.7,8.6,6,9.2,13.2C193.6,611,191,615.1,183.7,617.5z"/>
		<path d="M626.6,574.8c0.8,5.1,1.7,10.3,2.2,15.4c0.1,0.9-1.5,2.3-2.7,2.7c-2.3,0.9-4.8,1.2-8.7,2.1c2.7-7.4,5.1-13.8,7.4-20.2
			C625.5,574.8,626.1,574.8,626.6,574.8z"/>
		<path d="M131.7,616.7c-4.2-1.1-7-1.9-10.6-2.9c2-5.6,3.9-10.8,5.8-16c0.5,0,1,0,1.5,0C129.4,603.7,130.4,609.5,131.7,616.7z"/>
	</g>
</g>
</svg>
