<?xml version="1.0" encoding="utf-8"?>
<!-- Generator: Adobe Illustrator 23.0.3, SVG Export Plug-In . SVG Version: 6.00 Build 0)  -->
<svg version="1.1" id="Layer_1" xmlns="http://www.w3.org/2000/svg" xmlns:xlink="http://www.w3.org/1999/xlink" x="0px" y="0px"
	 viewBox="0 0 568 328" style="enable-background:new 0 0 568 328;" xml:space="preserve">
<style type="text/css">
	.st0{fill:#1D1D1B;}
</style>
<g>
	<path class="st0" d="M123.7,167.4c3-3.6,6.2-7.2,9.3-10.7c4.3-4.9,8.8-9.8,13.3-14.6c1.5-1.5,3.1-2.9,4.3-4.7c0,0,0,0,0-0.1
		c0.8-0.4,1.3-1.1,2-1.8c4.1-4,8.1-8.1,12.2-12c6-5.7,12.2-11.3,18.3-16.8c1.4-1.2,2.8-2.4,4.5-3.2c2.6-1.3,2.3,1,1.7,1.6
		c-0.3,0.4-0.6,0.9-1,1.3c-3.8,4.4-7.3,9.3-10.7,14c-0.8,1.1-4.7,6.2-5.1,6.6c-2.8,3.7-5.5,7.5-8.4,11.1c-1.5,1.9-2.9,3.9-4.4,6
		c-3.6,4.7-7.3,9.3-10.3,14.4c-0.5,0.9-1.2,1.7-1.8,2.5c-3.6,4.5-6.9,9.4-9.6,14.6c-2.9,5.6-5.3,11.5-7.6,17.4
		c-0.2,0.7-0.5,1.4-0.8,2c0,0,0,0,0.1,0c-1,2.6-2,5.2-2.5,7.9c-0.5,2.9-0.9,7-0.5,10.1c0.3,3.2,0.9,5.5,1.8,8.5
		c1.4,4.2,4,7.5,4.4,8.1c1.2,1.7,2.7,3.3,4.3,4.7c1,0.8,2,1.5,3.1,2.1c0.8-1.2,1.5-2.4,2.1-3.7c-0.6,1.3-1.3,2.6-2.1,3.8
		c-0.5-0.3-1.1-0.6-1.6-1c3.9,2.7,8.3,3.8,13.1,3.3c4.4-0.5,8.3-2.3,11.7-5.1c0.1,0,0.3-0.1,0.3-0.3c0,0,0-0.1,0-0.1
		c0.9-0.6,1.8-1.3,2.6-2c2.6-2.1,5.1-4.4,7.5-6.8c1.8-1.8,3.6-3.7,5.5-5.2c1.6-1.4,2.5-1.4,4.2-0.1c1.2,0.8,2.3,1.8,3.4,2.8
		c1.6,1.4,3.3,2.7,5.3,3.6c2.7,1.3,4.4,1,6.5-1.2c0.6-0.7,1.2-1.4,1.7-2.2c2.1-2.9,4.1-5.9,6.1-8.8c4.8-7,9.5-14,14.8-20.5
		c7.3-9.2,15.1-17.8,22.7-26.6c1-1.2,2.3-2.1,3.7-2.9c0.3-0.2,0.8-0.4,1.2,0c0.5,0.5,0.3,0.8,0,1.3c-2.1,3.3-3.7,6.8-5.6,10.3
		c-2.5,4.4-4.9,9-6.5,13.8c-2.9,8.6-0.5,17,6.4,22.6c5.3,4.4,11.5,6.2,18.4,4.9c3.2-0.5,6-2.1,8.6-4c8.2-6.3,15.5-13.3,23.1-20.3
		c0.5-0.4,0.8-1,1.6-1.3c0.8,1.3,1.6,2.6,2.3,3.8c1.4,2.5,3.1,4.8,5.2,6.8c5.2,4.9,11.2,6.4,18.1,4c2.8-1,5.3-2.4,7.7-4.2
		c3.1-2.5,6.2-5,9.2-7.6c5.1-4.4,10.1-9,15.1-13.6c0.6-0.6,1.3-1.2,2.1-1.6c1-0.7,1.8-0.6,2.8,0.3c0.7,0.6,1.3,1.3,1.9,2.1
		c1.5,1.8,2.9,3.8,4.5,5.5c2.3,2.5,4.8,5,7.8,6.9c3.1,2.1,6.6,3.3,10.4,2.9c2.6-0.3,5.1-0.9,7.2-2.5c-5-3.6-7.7-8.6-8.1-14.7
		c0-0.4,0-0.9,0.1-1.3c-1.4-0.8-3.4-3.4-2.3-10.1c0.9-2.7,3.1-6,4.7-8.3c3.3-4.5,6.6-9.1,9.9-13.7c0.4-0.6,0.9-1.2,1.1-2
		c0.4-3.2,0.8-6.4,0.9-9.6c0.1-7-0.8-14-3.1-20.7c-0.2-0.8-0.5-1.4-1.1-2c-0.7-0.8-1.4-1.6-2.1-2.5c-0.7,0.1-1,0.7-1.4,1.1
		c-12.2,12-21.5,25.9-28.3,41.5c-2.9,6.6-6.8,12.5-11.9,17.7c-6.7,7-14.2,12.9-22,18.7c-2.1,1.5-4.2,1.6-6.4,1.7
		c-0.5-2.9,0.3-5.5,1.8-8c1.4-2.3,2.7-4.5,4.2-6.6c11.8-17,23.5-33.9,35.4-51c0.8-1,1.4-2,2-3.1c1.6-3.1,1-5.3-2.1-7.3
		c-0.1-0.1-0.2-0.3-0.3-0.3c-3.7-2.8-7.7-5.1-11.7-7.5c-3.1-1.8-6.2-1-8.6,1.8c-2.5,3.1-4.7,6.4-7,9.6c-0.1,0.2-0.3,0.4-0.4,0.7
		c-0.7,0.2-0.9,0.7-1.2,1.2c-9.9,13.4-19,27.1-27.8,41.1c-4.6,7.4-10.1,14.1-16.4,20.2c-6.5,6.3-13.5,12-20.3,18
		c-1.4,1.1-2.9,1.4-4.5,1.4c-1.5,0-2.1-0.4-2.5-1.8c-0.7-1.8-0.8-3.8-0.1-5.7c1-2.9,2.5-5.7,4.4-8.2c8.4-11.5,17-23.1,25.6-34.5
		c2.3-3.1,4.7-6.1,6.8-9.2c2.5-3.5,2.2-5.9-0.8-9c-2.9-3.1-6.5-5.6-10.4-7.4c-3.8-1.8-7.5-1.6-11.1,0.3c-1.5,0.8-2.9,1.7-4.1,2.9
		c-6,5.2-12,10.3-18.1,15.3c-5.3,4.4-10.6,8.9-16,13.1c-0.3,0.2-0.7,0.4-1,0.7c-0.3,0.3-0.5,0.1-0.8,0c-0.3-0.1-0.4-0.4-0.3-0.7
		c0.1-0.3,0.3-0.6,0.4-0.9c1.1-2.3,2.3-4.8,3.4-7.1c0.8-1.5,1.4-3,1.9-4.6c0.5-1.5,0.5-3,0.1-4.5c-1.2-4.1-3.7-7-7.7-8.6
		c-2.8-1.1-4.5-0.3-6,2.3c-0.8,1.4-1.3,2.7-2.2,4c-4.2,6.4-8.5,12.8-12.7,19.2c-9.8,15-19.6,30-30.1,44.6c-2,2.8-4.2,5.3-6.6,7.7
		c-4.1,4-8.6,7.4-12.9,10.9c-0.4,0.3-1.1,0.5-1.2,1.2c0,0,0,0.1,0,0.1c-0.5,0.3-4.7,3.1-6.2,3.3c-1.2,0.1-1.9-0.3-2.3-1.4
		c-0.5-1.3-0.6-2.7-0.1-4c1-2.5,1.8-5.1,2.8-7.5c1-2.3,2-4.4,2.9-6.7c0.5-0.5,1-1.2,1.2-2c-0.3-0.2-0.3-0.5-0.3-0.9
		c0-2.4-0.1-4.7,0.1-7c1.1-28,9.8-53.4,26.7-75.8c3.5-4.6,7.1-8.9,11.1-12.9c-3.9,4-7.6,8.3-11,12.8c-16.9,22.4-25.6,47.8-26.7,75.8
		c-0.1,2.3-0.1,4.7-0.1,7c-0.1,0.3-0.1,0.7,0.3,0.9c0.3-0.5,0.6-1,0.9-1.6c7.5-13.7,15.8-26.8,24.6-39.8
		c9.4-13.9,19.4-27.5,29.6-40.9c6.3-8.2,12.7-16.4,19.4-24.4c6-7.3,12.4-14.2,18.8-21c1.1-1.2,2.3-2.3,3.2-3.7
		c2.4-2.4,4.8-4.9,6.7-7.8c0.9-1.4,1.4-2.8,0.9-4.4c0-0.8-0.4-1.4-0.9-2.1c-0.8-1.2-1.9-2.1-3-2.9c-5.1-3.7-10.6-6.6-16.3-9.2
		c-0.5-0.3-1.1-0.4-1.6-0.8c-3.1-1.6-6.4-1.6-9.7-0.5c-1.8,0.9-3.4,2-4.9,3.3c-2.1,1.8-4.2,3.7-6.3,5.5
		c-7.5,6.6-15.1,13.1-22.2,19.9c-7.9,7.6-15.7,15.5-23.3,23.3c-9.9,10.1-19.6,20-29.4,30.2c-1.2,1.2-2.6,2.3-3.6,3.8c0,0,0,0,0.1,0
		c-1.5,1-2.6,2.5-3.9,3.8c-2.1,2.1-4.1,4.2-6.4,6c-0.3,0.3-0.5,0.5-0.9,0.8c-0.5,0.3-0.9,0.1-1.3-0.3c-0.3-0.3-0.2-0.7,0-1
		c0.5-0.9,1-1.8,1.6-2.7c1.9-2.7,3.6-5.5,5.8-8.1c0.3-0.2,0.4-0.5,0.4-0.9c-3.5-1-7-1.4-10.5-0.9c3.6-0.5,7-0.2,10.5,0.8
		c0.3-0.3,0.6-0.5,0.8-0.8c1.7-2.2,3.4-4.4,5-6.7c3.7-5.3,7.4-10.5,11.1-15.9c1.8-2.5,3.3-5.4,4.4-8.3c2-5.3,1.7-10.5-1.4-15.4
		c-2.2-3.4-4.7-6.2-7.7-8.8c-2.8-2.5-5.8-4.7-9.3-6.1c-3.3-1.4-6.5-1.8-9.9-0.2c0,0,0,0,0,0c-1.9,0.5-3.6,1.3-5.4,1.9
		c-3.8,1.5-7.7,2.9-11.4,4.8c-7.7,4-15.1,8.8-22.2,14c-5.5,4-10.8,8.3-15.9,12.8c-6.3,5.5-12.2,11.2-17.9,17.2
		c-4.5,4.7-9,9.5-13.1,14.4c-2.6,3-5.2,6-7.5,9.1c-3.6,4.9-6.6,10.1-9.4,15.3c-2.5,4.8-1.8,10.8,1.8,14.8c1.6,1.7,2.1,1.7,3.4-0.3
		c0-0.1,0.1-0.2,0.1-0.3c1.1-1.8,2.1-3.8,3.4-5.6c2.1-3.1,4.2-6.2,6.5-9.1c2.6-3.3,5.3-6.5,8.1-9.6c5.4-6.1,11.3-11.7,17.3-17.2
		C84,109.2,113.5,90.1,123.9,85c0,0,0,0,0-0.1c1.5-0.5,3-0.9,4.7-1.3c3.6-0.5,6,1.8,5.2,5.5c-0.3,1.6-1,3.1-2.1,4.6
		c-3.5,5-7,9.9-10.7,14.9c-1.9,2.6-3.6,5.3-5.6,7.9c-1.7,2.3-3.5,4.7-5.1,7c-0.4,0.5-0.8,1-0.8,1.6c-0.5,0.1-0.8,0.3-1,0.8
		c-4,5.5-8.3,11-12.6,16.5c-2.3,3.1-4.7,6.3-7.1,9.4c-1.1,1.3-2.1,2.7-3.1,4c-3.9,5-7.8,9.9-11.6,14.8c-2.9,3.7-5.7,7.3-8.5,11
		c-2.9,3.8-5.9,7.6-8.8,11.4c-3.1,4.2-6.4,8.5-9.6,12.7c-3.3,4.3-6.4,8.6-9.6,12.9c-1.8,2.3-3.4,4.8-5.1,7.1
		c-1.2,1.6-2.5,3.1-3.4,5.1c1.2,6.5,2.9,12.9,4.8,19.4c0.2,0.7,0.4,1.3,0.6,2c-0.2-0.6-0.4-1.3-0.6-1.9c-1.8-6.4-3.6-12.9-4.8-19.4
		c-0.2,0.1-0.5,0-0.5,0.3c-4.5,6.9-8.9,13.9-13.2,21c-1,1.8-1.7,3.7-1.8,5.8c-0.1,1.5,0.3,3,0.6,4.4c-0.1,0.8,0.6,1.2,1,1.6
		c4.4,5.7,9.2,11.2,14.4,16.3c1.2,1.3,2.5,2.6,4,3.6c2.4,1.6,4.3,1.4,6.2-0.8c1.4-1.6,2.5-3.5,3.4-5.3c0.1-0.3,0.1-0.5,0.1-0.8
		c-0.3-0.1-0.3-0.4-0.4-0.7c-2.3-5.7-4.4-11.5-6.4-17.4c1.9,5.8,4,11.6,6.4,17.3c0.1,0.3,0.2,0.5,0.4,0.7c0.5-0.1,0.5-0.4,0.8-0.8
		c2.5-4.2,4.9-8.4,7.3-12.7c2.9-5.2,6-10.3,9.4-15.1c2.3-3.1,4.8-6.2,7-9.4c2.7-3.7,5.5-7.3,8.1-10.9c3.6-4.7,7-9.4,10.7-14.1
		c2.6-3.3,5.1-6.7,7.7-10c1.2-1.4,2.3-3.1,3.6-4.6c1.3-1.4,10.9-13.8,11.8-15c2.3-2.9,4.7-5.6,6.9-8.5
		C119.1,173.1,121.3,170.2,123.7,167.4z M109.5,125.2c1.7,1,3.1,2.3,4.4,3.7C112.6,127.4,111.1,126.2,109.5,125.2z"/>
	<path class="st0" d="M389.6,108.5c0.7,0.8,1.4,1.6,2.1,2.5c0.4,0.6,0.8,1.3,1.1,2c2.2,6.7,3.2,13.6,3.1,20.7
		c-0.1,3.3-0.5,6.4-0.9,9.6c0.7-0.5,1.2-1.2,1.7-1.9c2.5-3.4,5.1-6.7,7.7-10c2.7-3.5,5.5-6.8,8.7-9.9c0.6-0.5,1.3-0.9,1.4-1.7
		c0,0,0,0,0,0c1.2-0.4,1.9-1.4,2.8-2.2c1.2-1,2.3-2.2,3.6-3.2c1.3-1.2,2.7-2.1,4.6-2.4c3.4-0.5,6.8,2.9,6.2,6.4
		c-0.3,1.2-0.9,2.4-1.6,3.4c-2.4,3.4-4.7,6.7-7.1,10.1c-0.4,0.5-0.8,1-1,1.7c0,0,0,0,0,0c-1.2,1.2-2.2,2.6-3.2,4
		c-3.2,4.4-6.4,8.9-9.6,13.3c-4.9,6.6-10.1,13.1-15.9,19.1c-1.4,1.4-2.7,3-4.2,4.3c-1,0.9-2.1,1.6-3.2,2.2c-1.2,0.8-2.7,0.9-4.1,0.8
		c-0.1,0.4-0.1,0.9-0.1,1.3c0.4,6.2,3.1,11.2,8.1,14.7c0.8-0.1,1.4-0.6,2.1-1c3.1-2.1,6.2-4.4,8.9-7c4-3.8,7.7-7.9,11.5-11.9
		c2.1-2.3,3.6-1.9,4.8,1c0.6,1.6,1.2,3.2,2.5,4.4c0.1-1,0.1-1.9,0.1-2.9c0.1,1,0.1,1.9-0.1,2.9c0.8,1.3,1.8,2.5,3.2,3.1
		c0.1,0.5,0.5,0.8,1,0.8c3.5,2.2,7.1,2.6,11,1.8c0,0,0,0.1,0,0.1c2.9-0.5,5.5-1.7,7.9-3.4c0.4-0.2,0.8-0.5,0.8-1
		c-0.2-0.3-0.4-0.5-0.6-0.8c-3.1-3.8-5.7-7.9-7.4-12.5c-1.2-0.5-1.6-1.4-1.8-2.7c-0.1-0.8,0-1.8-0.1-2.7c-1.4-4.2-1.8-8.6-1.8-12.9
		c0,0,0,0,0,0c0,4.3,0.4,8.7,1.8,12.8c0.3-0.3,0.3-0.9,0.5-1.2c1.1-3.1,2.5-6.3,4.3-9.1c2.4-3.8,4.9-7.5,7.3-11.3
		c2.7-4.2,5.3-8.3,8.1-12.5c2.9-4.5,6-9.1,9-13.7c2.7-4.2,5.4-8.4,8.2-12.6c3.1-4.7,6.1-9.4,9.2-14c3.1-4.7,6.1-9.3,9.2-14
		c3.8-5.7,7.5-11.4,11.2-17c3.4-5,6.8-9.8,10.2-14.7c0.3-0.5,0.8-1,1.2-1.5c1.8-2.5,3.7-4.9,5.3-7.5c-1.5-1.5-3-2.9-4.5-4.3
		c1.6,1.4,3.1,2.8,4.5,4.3c0.4-0.1,0.5-0.3,0.8-0.5c2.1-3,4.2-6,6.4-9c0.8-1,1.3-2.2,1.7-3.4c0.5-1.5,0.5-3.1-0.3-4.4
		c-1-2.1-2.4-3.8-4.3-5.2c-1.3,1.6-3,2.4-5.1,2.7c-1.4,0.2-2.7,0.3-4.1,0.4c1.3,0,2.7-0.2,4-0.4c2-0.3,3.8-1.1,5.1-2.7
		c-0.8-1.2-1.9-2-2.9-2.8c-1.8-1.4-3.6-3.1-5.7-4.1c-2.7-1.2-5.1-1.1-7.3,1c-1.9,1.9-3.5,4.2-4.8,6.6c0,0,0,0,0.1,0
		c-1.4,1.6-2.6,3.4-3.5,5.4c-0.5,0.3-0.7,0.7-1,1.1c-2.5,4-5,7.9-7.5,11.9c-2,3-4,6.1-5.9,9.2c-2.9,4.7-6,9.5-9,14.2
		c-2,3-3.8,6.1-5.8,9.1c-3,4.7-6,9.5-9,14.3c-2.3,3.8-4.8,7.5-7.2,11.3c-1.1,1.6-2.2,3.3-3.2,4.9c-1.8,3.1-3.6,6-5.6,8.9
		c-0.6,1-1.5,1.6-2.7,1.6c0,0.2,0,0.3,0,0.5c0-0.1,0-0.2,0-0.3c-1.4-0.8-2.5-2.1-3.6-3.2c-2-2.1-4-4.1-6.2-6c-3.7-3.3-8-4.8-13-3.6
		c-2.3,0.5-4.4,1.4-6.4,2.4c-4,1.8-7.5,4.6-10.9,7.2c-0.2,0.1-0.3,0.4-0.4,0.5c0,0,0,0,0,0c-0.6,0.2-1,0.5-1.5,0.8
		c-2.1,1.7-4.2,3.4-6.1,5.2C391.3,106.8,390.2,107.4,389.6,108.5z M434.1,175.5c-0.5-4.4-1.3-8.7-2.3-13
		C432.8,166.8,433.6,171.1,434.1,175.5z M432.4,141.1c-0.4,2.3-0.6,4.7-0.6,7.2C431.8,145.8,432,143.4,432.4,141.1z"/>
	<path class="st0" d="M373.7,92.5c2.1,0.7,4.3,1,6.4,0c2-0.8,4.9-3.9,6-6.2c0,0,0,0-0.1-0.1c0.2-0.2,0.4-0.3,0.5-0.5
		c2.3-3.5,4-7.3,4.9-11.4c0.3-1.2,0.3-2.6-0.1-3.8c-1.2-4.7-4.1-8.1-8.8-9.8c-2.3-0.8-4.7-0.8-7,0c-3.4,1.3-6,3.7-8.2,6.5
		c-1,1.3-1.9,2.7-2.3,4.4c-2.3,4-2.2,8.1-0.6,12.1C366.1,88.2,369.3,91.1,373.7,92.5z"/>
	<path class="st0" d="M566.7,106.1c-0.1-3.9-0.8-8-2.1-12c-1.3-4-3.6-7.1-7.4-9c-0.1-0.2,0-0.4-0.1-0.6c-0.3,0-0.5-0.1-0.7-0.3
		c0.1,0.2,0.3,0.3,0.7,0.3c1.4-1,2.8-1.8,4-3c1-1,1.4-2.3,0.8-3.6c-1-1.9-2.3-3.6-4-4.9c0,0,0,0.1-0.1,0.1c-0.1-0.3-0.3-0.5-0.5-0.7
		c-2.7-2.6-5.3-5.2-8.5-7.2c-2.8-1.8-5.9-2.5-9.2-2c-2.7,0.3-5.3,1.3-7.8,2.3c-2.4,0.9-4.4,2-6.5,3.5c-1.8,1.4-3.7,2.9-5.6,4.2
		c-1,0.7-2.2,1.3-2.9,2.4c0,0-0.1-0.1-0.1-0.1c-0.5,0-0.9,0.3-1.3,0.6c-1.8,1.4-3.6,2.7-5.3,4.2c-3.9,3.1-7.6,6.4-11.2,9.9
		c-3.6,3.5-7,7.2-10.2,11.1c-3.3,4.1-6.2,8.4-8.6,13.1c-2.1,4.1-3.8,8.4-4.9,12.9c-0.3,1.5-1.1,2.8-1.9,4.1c-1.3,2-2.9,3.7-4.5,5.5
		c-5.1,5.8-10.3,11.6-15.4,17.4c-3.5,4-7.2,7.7-11.5,10.6c-2.1,1.4-4,2.3-6.5,2c1.7,4.7,4.3,8.7,7.4,12.5c0.2,0.3,0.4,0.5,0.6,0.8
		c0.8,0,1.3-0.5,1.8-1c2.3-1.9,4.6-3.8,6.8-5.9c7.1-6.6,13.5-13.7,19.4-21.3c1.1-1.4,2.2-3,3.4-4.4c2.2-2.5,2.7-2.5,5.1-0.1
		c3.6,3.7,7.1,7.3,10.7,10.8c3.1,2.9,6.1,5.9,9.6,8.2c5.5,3.8,11.6,4.3,17.7,2.1c7.9-2.9,15.1-7.2,21.3-12.9
		c6.6-6,12.3-12.7,17-20.3c3.3-5.4,6.2-10.9,8.4-16.8c1.3-3.4,2.1-6.9,1.9-10.5C566.8,107.4,566.8,106.8,566.7,106.1z M541.9,106.8
		c1.6,2.9,1.8,6,0.3,9c-0.5,1.1-1.1,2.2-1.6,3.1c-1.4,2.1-2.6,4.3-4,6.4c-4.1,5.7-8.9,10.9-14.2,15.6c-4.1,3.7-8.6,7-13.1,10
		c-1,0.7-2.1,1.2-3.1,1.7c-2.5,1.1-4.9,0.6-6.9-1c-2.2-1.7-3.4-4-2.9-6.8c0.2-1,0.5-2.1,1-2.9c3.1-6.9,6.5-13.8,10.9-19.9
		c4.3-6,9.2-11.5,14.7-16.5c4.8-4.4,9.9-8.3,15.1-12.1c1.6-1.2,3.4-2.3,5.4-3.1c0.1,0.8-0.3,1.2-0.5,1.8c-0.6,2-1.7,3.8-2.1,5.8
		C540.1,101.1,540.4,104,541.9,106.8z"/>
	<path class="st0" d="M535.6,251.4C535.6,251.4,535.6,251.4,535.6,251.4c-2.1-3.8-5-6.8-7.5-10.2c-0.1-0.1-0.2-0.1-0.3-0.1
		c0,0,0,0,0,0c0-0.6-0.5-1-0.9-1.4c-1-1.3-2-2.5-2.5-4c-0.9-2.4-2.5-3.7-4.8-4.4c0,0,0,0,0,0c-0.3-0.5-0.8-0.6-1.4-0.8
		c-3.6-1.4-7.5-2.3-11.4-2.9c-6.5-1-13-1.3-19.6-1.4c-5.5-0.1-10.9,0-16.4,0.3c-3.3,0.1-6.4,0.5-9.6,0.6c-4.9,0.3-9.6,0.8-14.5,1.3
		c-1.8,0.1-3.7,0.4-5.5,0.6c-3.9,0.4-7.9,0.8-11.7,1.5c0,0,0,0,0,0.1c-0.4-0.2-0.7-0.1-1-0.1c-5.8,0.9-11.6,1.6-17.4,2.5
		c-9.7,1.6-19.4,3.2-29.1,4.9c-2.2,0.4-4.3,0.7-6.4,1.3c0,0,0,0,0,0c-7.7,1.4-15.5,2.7-23.2,4.5c-2.7,0.6-5.5,1.2-8.3,1.8
		c-5.1,1.2-10.3,2.3-15.5,3.5c-3.1,0.7-6.2,1.6-9.4,2.2c-1.9,0.4-3.8,0.8-5.7,1.4c-2.5,0.8-5,1.3-7.5,1.9c-2.1,0.5-4.1,1.1-6.2,1.6
		c-1.4,0.3-2.7,0.6-4.1,1c-2.9,0.8-5.7,1.7-8.7,2.4c-1.8,0.5-3.6,1-5.3,1.4c-3.1,0.8-6.2,1.7-9.2,2.7c-1.3,0.4-2.7,0.8-3.9,1.2
		c-2.3,0.8-4.5,1.4-6.7,2c-2.3,0.7-4.5,1.3-6.7,2c-2.2,0.7-4.3,1.4-6.5,2.1c-2.7,0.8-5.4,1.6-8.1,2.6c-2.7,0.9-5.5,1.8-8.2,2.7
		c-3.1,1-6.3,2.1-9.4,3.1c-3.5,1.2-10.5,3.5-10.5,3.5c1.5,0.7,3.5,2.4,5.1,3.8c-1.6-1.4-3.6-3-5.3-3.7c0,0-45.8,17.6-46.1,17.7
		c-8,3.4-16.1,6.7-24.1,10.2c-9.4,4-18.6,8.4-27.9,12.9c-1.3,0.5-2.6,1.1-3.8,2c0.2,0.3,0.5,0.2,0.8,0.1c3.2-1.2,6.3-2.3,9.5-3.5
		c4-1.5,8.1-3,12.2-4.4c3.1-1.1,6.3-2.2,9.4-3.3c2.8-1,5.7-1.9,8.5-2.9c3.3-1,6.6-2.2,9.9-3.3c3.2-1.1,6.4-2.1,9.6-3.2
		c2.7-0.9,5.4-1.8,8.1-2.7c2.5-0.8,5.2-1.7,7.7-2.5c2-0.6,3.9-1.2,5.8-1.8c2.9-1,5.7-1.8,8.6-2.8c2.1-0.7,4.2-1.2,6.3-1.9
		c2.3-0.7,4.4-1.4,6.7-2.1c2.2-0.7,4.4-1.2,6.7-2c4.2-1.4,8.4-2.5,12.7-3.8c3.6-1.2,7.2-2,10.9-3.1c4.6-1.3,9.1-2.7,13.7-3.8
		c1.4-0.3,2.7-0.7,4-1.1c3.5-1,7-1.9,10.6-2.8c1.7-0.5,3.6-0.8,5.3-1.4c3.8-1.1,7.6-1.9,11.4-2.9c3.4-0.9,7-1.8,10.5-2.6
		c4.4-1,9-2.1,13.4-3.1c2.4-0.5,4.9-1,7.3-1.6c3.7-1,7.5-1.6,11.2-2.4c14-2.7,28.1-5.1,42.1-7.7c0.4-0.1,0.9-0.1,1.3-0.2
		c4-0.2,8-1.3,12.2-1.6c0,0,0,0,0,0.1c3.8-0.4,7.4-0.9,11.1-1.3c5.4-0.6,10.9-1.2,16.4-1.7c5.4-0.5,10.8-0.8,16.2-1.2
		c5.8-0.3,11.8-0.5,17.7-0.7c2.5-0.1,5.9,0.3,8.5,0c0,0,0,0,0,0c4.5-0.3,8.8,0.1,13.2,0.2c4.4,0.1,9,0.5,13.5,0.8
		c0.7-0.2,1.4-0.4,2.2-0.4c-0.7,0.1-1.5,0.3-2.2,0.4c0.3,0.1,0.6,0.2,0.9,0.2c7.7,0.7,15.3,1.7,22.9,3.3c3.7,0.8,7.3,1.6,11,2.5
		c-0.3-0.8-0.8-1.5-1-2.4c-0.2-0.7-0.3-1.3-0.3-2c0,0.6,0.1,1.2,0.3,1.9c0.2,0.9,0.6,1.6,1,2.4c1.4,0.5,3,0.9,4.5,1.3
		c1.6,0.4,2.9,1.2,4.5,1.4c0,0,0,0,0,0c3.1,1.5,6.4,2.7,9.8,3.7c1.2,0.3,1.6,0,1.8-1.1c0.1-0.5,0.1-1.2-0.1-1.8
		C537.8,254.8,537,253,535.6,251.4z M453,245.3c-1.3-0.4-2.8-1-4.4-1.8C450.1,244.3,451.6,244.9,453,245.3c0.9,0.2,1.8,0.5,2.8,0.8
		c0,0,0,0,0.1,0C454.9,245.8,453.7,245.5,453,245.3z"/>
</g>
</svg>
