<svg width="239" height="59" viewBox="0 0 239 59" fill="none" xmlns="http://www.w3.org/2000/svg">
<path d="M0 45.437C0.128 43.324 0.256 40.189 0.256 37.437V0H5.823V19.455H5.951C7.935 15.999 11.519 13.755 16.51 13.755C24.19 13.755 29.629 20.155 29.565 29.562C29.565 40.632 22.589 46.136 15.678 46.136C11.198 46.136 7.615 44.409 5.311 40.313H5.12L4.864 45.433L0 45.437ZM5.824 33.021C5.84334 33.7098 5.93009 34.3951 6.083 35.067C6.55203 36.9516 7.63877 38.6248 9.1698 39.8196C10.7008 41.0144 12.5879 41.662 14.53 41.659C20.418 41.659 23.938 36.859 23.938 29.759C23.938 23.552 20.738 18.24 14.723 18.24C12.7289 18.276 10.8035 18.975 9.25064 20.2265C7.69777 21.4781 6.6058 23.211 6.147 25.152C5.96021 25.9054 5.85296 26.6763 5.827 27.452L5.824 33.021Z" fill="#CC0000"/>
<path d="M52.708 45.4372L52.26 41.5372H52.068C50.9682 43.0019 49.5355 44.1836 47.8884 44.9847C46.2413 45.7859 44.4272 46.1833 42.596 46.1442C36.325 46.1442 33.125 41.7282 33.125 37.2442C33.125 29.7562 39.781 25.6612 51.748 25.7242V25.0842C51.748 22.5242 51.048 17.9172 44.708 17.9172C41.8596 17.9251 39.0689 18.7212 36.645 20.2172L35.365 16.5062C38.434 14.6588 41.9582 13.7056 45.54 13.7542C55.012 13.7542 57.315 20.2172 57.315 26.4252V38.0132C57.2739 40.4979 57.4452 42.9816 57.827 45.4372H52.708ZM51.876 29.6312C45.732 29.5022 38.757 30.5902 38.757 36.6062C38.6988 37.3214 38.7958 38.0407 39.0413 38.715C39.2868 39.3892 39.675 40.0025 40.1794 40.5129C40.6838 41.0233 41.2924 41.4187 41.9637 41.6721C42.635 41.9255 43.3532 42.031 44.069 41.9812C45.7059 42.0257 47.3144 41.5471 48.6608 40.6151C50.0071 39.683 51.0213 38.346 51.556 36.7982C51.7551 36.2211 51.863 35.6165 51.876 35.0062V29.6312Z" fill="#CC0000"/>
<path d="M64.783 0H70.414V45.437H64.783V0Z" fill="#CC0000"/>
<path d="M77.176 39.6781C79.4064 41.0731 81.9692 41.8465 84.599 41.9181C88.699 41.9181 90.615 39.8691 90.615 37.3101C90.615 34.6221 89.015 33.1511 84.855 31.6101C79.288 29.6281 76.664 26.5551 76.664 22.8431C76.664 17.8511 80.696 13.7561 87.352 13.7561C90.0133 13.7299 92.6363 14.3912 94.967 15.6761L93.559 19.7761C91.6545 18.6025 89.461 17.982 87.224 17.9841C83.896 17.9841 82.04 19.9041 82.04 22.2081C82.04 24.7681 83.895 25.9201 87.927 27.4561C93.303 29.5041 96.054 32.1911 96.054 36.8001C96.054 42.2381 91.83 46.0781 84.471 46.0781C81.4379 46.1325 78.4419 45.4056 75.771 43.9671L77.176 39.6781Z" fill="#CC0000"/>
<path d="M119.498 45.4372L119.05 41.5372H118.858C117.758 43.0019 116.326 44.1836 114.679 44.9847C113.032 45.7859 111.218 46.1833 109.387 46.1442C103.116 46.1442 99.916 41.7282 99.916 37.2442C99.916 29.7562 106.572 25.6612 118.538 25.7242V25.0842C118.538 22.5242 117.838 17.9172 111.499 17.9172C108.651 17.9248 105.86 18.7209 103.436 20.2172L102.156 16.5062C105.225 14.6587 108.749 13.7055 112.331 13.7542C121.802 13.7542 124.106 20.2172 124.106 26.4252V38.0132C124.064 40.498 124.236 42.9817 124.618 45.4372H119.498ZM118.666 29.6312C112.522 29.5022 105.547 30.5902 105.547 36.6062C105.489 37.3214 105.586 38.0407 105.831 38.715C106.077 39.3892 106.465 40.0025 106.969 40.5129C107.474 41.0233 108.082 41.4187 108.754 41.6721C109.425 41.9255 110.143 42.031 110.859 41.9812C112.496 42.0257 114.104 41.5471 115.451 40.6151C116.797 39.683 117.811 38.346 118.346 36.7982C118.545 36.221 118.653 35.6165 118.666 35.0062V29.6312Z" fill="#CC0000"/>
<path d="M131.523 22.8462C131.523 19.6462 131.459 17.0222 131.267 14.4632H136.195L136.451 19.4552H136.642C137.57 17.692 138.974 16.2238 140.693 15.2164C142.412 14.2091 144.379 13.703 146.371 13.7552C148.3 13.7346 150.186 14.3236 151.761 15.4384C153.335 16.5532 154.518 18.1368 155.139 19.9632H155.266C156.123 18.3916 157.301 17.0179 158.723 15.9312C160.681 14.4283 163.103 13.6585 165.569 13.7552C169.669 13.7552 175.745 16.4432 175.745 27.1942V45.4372H170.245V27.9022C170.245 21.9502 168.069 18.3672 163.526 18.3672C162.024 18.4308 160.579 18.9568 159.387 19.8733C158.196 20.7897 157.317 22.0519 156.87 23.4872C156.577 24.3969 156.426 25.3464 156.423 26.3022V45.4372H150.923V26.8782C150.923 21.9502 148.747 18.3672 144.46 18.3672C140.94 18.3672 138.38 21.1822 137.483 23.9982C137.17 24.8813 137.019 25.8135 137.036 26.7502V45.4372H131.536V22.8462H131.523Z" fill="#CC0000"/>
<path d="M189.533 5.75983C189.518 6.67455 189.143 7.54656 188.491 8.18796C187.839 8.82935 186.96 9.18878 186.045 9.18878C185.131 9.18878 184.252 8.82935 183.6 8.18796C182.948 7.54656 182.573 6.67455 182.558 5.75983C182.546 5.29425 182.628 4.83104 182.801 4.39844C182.974 3.96584 183.232 3.5729 183.562 3.24356C183.891 2.91423 184.284 2.6554 184.717 2.48283C185.149 2.31027 185.612 2.22759 186.078 2.23983C186.542 2.22363 187.004 2.3041 187.434 2.47613C187.865 2.64816 188.256 2.90798 188.581 3.23907C188.906 3.57015 189.158 3.96525 189.322 4.39924C189.486 4.83322 189.558 5.29658 189.533 5.75983ZM183.262 45.4368V14.4668H188.895V45.4368H183.262Z" fill="#CC0000"/>
<path d="M217.941 40.6371H217.812C216.148 43.7091 212.693 46.1371 207.701 46.1371C200.471 46.1411 194.583 39.8671 194.583 30.4671C194.583 18.8841 202.071 13.7671 208.599 13.7671C213.399 13.7671 216.599 16.1351 218.134 19.1421H218.263L218.454 14.4711H223.765C223.638 17.0951 223.574 19.7831 223.574 22.9821V58.1071H217.943V40.6371H217.941ZM217.941 27.0061C217.954 26.2092 217.868 25.4137 217.685 24.6381C217.269 22.8135 216.243 21.1852 214.777 20.0217C213.311 18.8583 211.492 18.2292 209.621 18.2381C203.799 18.2381 200.277 23.1661 200.277 30.1381C200.277 36.2811 203.222 41.6581 209.429 41.6581C211.259 41.6539 213.038 41.0511 214.494 39.9416C215.949 38.8321 217.002 37.2768 217.491 35.5131C217.77 34.6435 217.921 33.7381 217.94 32.8251V27.0061H217.941Z" fill="#CC0000"/>
<path d="M238.168 18.1109C238.193 19.05 237.938 19.9753 237.434 20.7683C236.93 21.5613 236.201 22.1859 235.34 22.562C234.479 22.9382 233.526 23.0489 232.602 22.8798C231.678 22.7108 230.825 22.2698 230.153 21.6132C229.481 20.9567 229.02 20.1145 228.83 19.1946C228.639 18.2746 228.728 17.3187 229.084 16.4493C229.44 15.5799 230.047 14.8366 230.828 14.3146C231.609 13.7925 232.529 13.5154 233.468 13.5189C234.079 13.5074 234.687 13.6175 235.255 13.8428C235.824 14.0681 236.341 14.4042 236.779 14.8315C237.216 15.2588 237.564 15.7687 237.803 16.3317C238.041 16.8947 238.165 17.4995 238.168 18.1109ZM229.908 18.1109C229.893 18.5895 229.975 19.0662 230.149 19.5124C230.323 19.9586 230.585 20.3651 230.919 20.7076C231.254 21.0501 231.654 21.3215 232.096 21.5056C232.539 21.6897 233.013 21.7826 233.492 21.7789C233.963 21.777 234.429 21.6806 234.862 21.4952C235.295 21.3099 235.686 21.0394 236.013 20.6999C236.339 20.3604 236.594 19.9587 236.762 19.5188C236.93 19.0789 237.009 18.6096 236.992 18.1389C237.013 17.6616 236.938 17.1849 236.771 16.7375C236.603 16.29 236.347 15.881 236.018 15.535C235.688 15.1891 235.292 14.9133 234.854 14.7242C234.415 14.5351 233.942 14.4367 233.465 14.4348C232.987 14.4329 232.514 14.5276 232.073 14.7132C231.633 14.8988 231.235 15.1715 230.903 15.5148C230.571 15.8582 230.311 16.2651 230.14 16.7113C229.969 17.1574 229.89 17.6335 229.908 18.1109ZM232.736 20.5189H231.672V15.9269C232.254 15.8243 232.845 15.7774 233.436 15.7869C233.991 15.7411 234.547 15.8579 235.036 16.1229C235.181 16.2466 235.297 16.4015 235.374 16.576C235.452 16.7505 235.489 16.9401 235.483 17.1309C235.463 17.388 235.359 17.6314 235.187 17.8236C235.015 18.0159 234.785 18.1463 234.532 18.1949V18.2509C234.76 18.3438 234.959 18.4971 235.107 18.6944C235.255 18.8917 235.347 19.1256 235.372 19.3709C235.417 19.77 235.531 20.1583 235.708 20.5189H234.56C234.383 20.166 234.261 19.7884 234.197 19.3989C234.113 18.8989 233.833 18.6699 233.245 18.6699H232.745V20.5189H232.736ZM232.764 17.9189H233.264C233.853 17.9189 234.328 17.7239 234.328 17.2469C234.328 16.8269 234.02 16.5469 233.348 16.5469C233.15 16.5428 232.953 16.5616 232.76 16.6029L232.764 17.9189Z" fill="#CC0000"/>
</svg>
