<svg xmlns="http://www.w3.org/2000/svg" viewBox="0 0 307.39 160.46"><defs><style>.cls-1{fill-rule:evenodd;}</style></defs><g id="Capa_2" data-name="Capa 2"><g id="Layer_1" data-name="Layer 1"><path class="cls-1" d="M246.93,7c.23,0,.35-.57.4-.74s.14-.66.23-1,.4-.19.61,0,.41.49.62.73.51.74.82.89.39,0,.28-.41a5.23,5.23,0,0,0-1-1.51c-.24-.31-.29-.49,0-.72a2.81,2.81,0,0,0,.63-.56c.3-.38.08-.58-.17-.79a3,3,0,0,0-1.45-.51c-.53,0-.68.14-.77.78-.12.86-.25,1.73-.35,2.6C246.79,6,246.56,6.92,246.93,7ZM248,3.15a.86.86,0,0,1,.59,0c.21.09.21.32,0,.48-.78,1-.84.5-.86.25A.89.89,0,0,1,248,3.15Zm-186.71,18C62.89,10.47,67.7,6.51,71.4,6.66s2.27,4.55,1.62,6.53c-1,3.11-3.84,6.6-4.78,7.9s-.58,2.41,1.47,2.56a42,42,0,0,0,4.52.18c2.19,0,5.57-1.47,8.1-9.84,1.39-4.62,4-12.75-7-13.87C64-1,56.2,6.29,53.47,15.37c-3,9.87-3,11.83-6.81,21.85-3,8.06-10.09,12.85-17.83,15.25-6.88,2.12-10.33,2.39-12.67,0C14.67,51,14.28,49,17.33,45.93,22.86,40.4,35,39.62,36.57,38.2s.59-2.61-2.11-4.25-4.58-2.5-6.69-2.28-2.72-.07-14.2,3.16C-1.91,39.18-2.68,55.83,4,62.27c7.51,7.28,18.15,9.62,31.16,3.29C59.33,52.47,58.79,37.76,61.28,21.18ZM251.9,6.29c.94-2.53-.4-5.84-3.55-5.41-1.75.23-3.74,1.2-3.95,3.13a5,5,0,0,0,.76,3.27A3.92,3.92,0,0,0,251.9,6.29ZM245.55,3a3.33,3.33,0,0,1,2.56-1.5,2.85,2.85,0,0,1,3.33,2.61,3.85,3.85,0,0,1-1.15,3.32,2.62,2.62,0,0,1-2,.75,3.16,3.16,0,0,1-2.78-1.67A3.4,3.4,0,0,1,245.55,3ZM99.35,11.29c.5-2.5.52-2.9,2.52-2.9,2.53,0,3.72.17,3.74-1.46,0-4.64,1-5.95-2-5.95H90.51c-2,0-2.51.37-2.51,2.35s0,2.3,0,3.39c0,.72.2,1.48,3.15,1.48,1.46,0,1.93.72,1.31,3.54C88.94,27.62,79.09,37.85,65.87,50.36c-11.1,10.49-20.3,22.18-29.13,34.42-2.21,2.79-2.83,4.19-.53,5.67s6.22,4.54,8.07,5.93c3.63,2.73,4.26,4.3,8.3-4.08,4.62-9.53,18.1-30.72,30-45.63C97.21,28.32,98.15,18,99.35,11.29Zm39.87,89.17a28.93,28.93,0,0,0,5.1.28c3,0,3.19.46,3.42,5.23s.88,16.45,1.09,19.57.41,5.27,4.84,5.06,5.85-.22,8.69-.57,4.08.12,3.47-7S154.74,30.37,152.62,13.93c-.83-11-1.06-12.12-4-12.14s-6.49-.31-7.06,3a465.41,465.41,0,0,1-12.94,67.6c-9.21,35-10.72,42.72-11.92,46.84-1.66,5.74-2.39,7.92,1.87,8.54s6.5.77,9.35,1.24,3.37.79,4.38-5,3-15.66,3.45-19.12S135.85,100.16,139.22,100.46Zm1.69-25.36c.67-3.79,2-14.17,3.15-20.6s1.85-8.9,2.1-2.82.93,21.72,1,25.17-1,4.08-3.5,4C140.08,80.7,140.24,78.89,140.91,75.1Zm52.28-31.58c-5.85-20.73-7.11-29.91-7.65-36-.44-4.87-.44-6.33-4.17-6.29S176.24,2,176.55,6c.33,4.27,5.19,29.46,8.55,42.13,3,10.86-1.48,1.32-4.67-8.06S170.74,11.43,170,7s-3.18-5.41-6-5.27c-3.22.17-3.8.48-3.37,7.57.42,6.74,8.62,70.43,10.91,93.8.35,3.62,1.89,16,2.24,21.29s5,4.44,10.82,3.62c4.67-.66,6.9-1.75,6.55-6.36s-8.47-47-9.74-55c-1-6.56-.65-9.43,2.36-1s16,39.5,19,47.56,3.9,10,8.34,8.72,10.28-1.48,8.33-8.23S198.83,63.53,193.19,43.52ZM129,35.84c.84-4.93.19-7.46-.78-8.61s-1.42-1.48.44-2.8,4.52-5.67,4.78-12.92-1.32-10.36-8.59-10.36H114.24c-2.13,0-1.86.9-2,3.62s-.9,11.7-7.8,22.79c-8.46,13.58-33.65,53.35-41.47,74-1.26,3.33-2.66,5.18.18,6.5S71.5,112,73.28,112.9s3.42.12,4.6-2.56c3.59-8.07,9.54-26.4,13.83-36.31A366.43,366.43,0,0,1,112.29,33.4c1.38-2.41,1.39-3,3.1-2.88,2.25.17,4.68-.18,1.33,10-2.52,7.67-7.83,16.91-14.45,34.77A402,402,0,0,0,90,113.72c-.78,2.85-1.09,5.26,2,6.2,3.87,1.19,5.75,2,8.55,2.75,3.6,1,4.85,2.45,6-3.77,1.26-7.2,5.86-24.38,11-42.43C123.75,54.51,127.78,43.15,129,35.84Zm-10.89-18a63.7,63.7,0,0,0,1.6-7.16c.53-3.13.89-2.82,2.59-2.85,4,.06,3.25,2.19,2,8.77S120.69,23,118.41,23C116.85,22.93,116.9,21.64,118.14,17.85Zm104.47,8.39c-3.55-4.77-4.13-6-8.88-5.75-4.44.21-8.16-.18-6.9,3,1.37,3.4,2.13,4.81,3.91,4.64,1.41-.13,3-.55,4.57,1.58a32,32,0,0,1,2,3.16c3.73,6.74,17.2,26.66,22.34,37.35s8.39,14.87,1.83,18-12.82-15.69-20.27-29.52S205.24,28.05,202.75,21.3s-3.54-12.5-1.06-13,3.72,1.82,4.43,4.94,2,4.37,4.26,4.12c3.79-.44,5.36-.14,4.25-3.46-1.38-4.13-1.76-12.54-11.88-12.73-7-.13-11.07,2.73-8.86,20.79,2,16.41,19.5,53.65,22.51,61.06,5.79,14.21,12.95,33.24,26.78,28.3s27.65-18.6,15.07-38S227,33,222.61,26.24Zm82.18,26.08c-3.33-2.71-5.72-5.67-9.58-1A63,63,0,0,1,287,59.61c-2.53,2.34-4,3.58-9.31-2S251.2,34.68,246,30.36s-4.78-5.31-.4-5.93,4.79-1.73,1.73-3.7-4-1.85-7.18-1.48-4.65,1.48-7.58-2.47-6.12-8.52-2.12-8.64,8.5,1.11,7.84-2.47-.53-3.95-4.12-4.07-8.25-.37-12-.12-4,2.22-2.53,7.65,7.32,13.45,12.5,19.62c4.88,5.81,25.53,28,33.11,38.88s9,12.76,10.64,15.18c1.92,2.85,3.44,4.85,8,.37C289.2,78,302.39,64.79,306.25,58.5,307.84,56.65,308.11,55,304.79,52.32Zm-92,84.78c-1.76.55-1,3.13-.85,7.13s.17,7.56-1.35,4.93-3.29-10.23-7-9.94-4.46,6-4,10.24.94,6.69,2.42,6.57,1.09-3.32.46-7.28a14.19,14.19,0,0,1,.25-6.86c.29-1,1-.68,1.88,1.14s4.67,10.19,7.25,9.81,2.85-1.43,2.73-7.53S214.56,136.55,212.8,137.1Zm25.57-1.8c-3.4.68-6.72,1.27-6.53,2.42s2,.18,3,.13,1.55,1.81.86,3.65-4.31,3.46-5.81.16,2-8.66,5.69-10.3,2.7-2.89-1-1.28-7.77,6.1-7.61,10.29c.1,3,2.72,6.37,6.76,5.06s5-4.08,4.85-6-.7-2.25,1.19-2.9S241.77,134.61,238.37,135.3Zm-54.14,7.59c.14-1.46-2.28-1.84-2.57,1a78.49,78.49,0,0,0-.14,8.13c0,3.63.31,5.43,1.64,5.64s1.28-.48,1.08-5.74A72.46,72.46,0,0,1,184.23,142.89Zm-16.77.59c-1.65-.4-3.36,3.67-4.19,6.06s-6,14-6.11,6,.58-11.49-2.25-12-4.94,4.32-7.23,8.54-4.43,8.63-5.87,5a16,16,0,0,1-.25-10.48c.92-2.19-.76-2.85-1.85-1.1a12,12,0,0,0-1.44,6.41c.2,3.86.63,8.89,5,8.52s6-5.95,8-9.83,3.7-4.56,3.43-1.33-1.82,9.52,2.58,10.39,5.74-2.59,8-8.18S169.1,143.87,167.46,143.48Zm-47.39,0c-3-.15-5.87-.69-6.25.77s-1.53,6.06-1.91,7.35c-1.13,3.83-3.2,6.59,2.79,6.06s6.75-.26,7.12-.85-1.27-1.31-3.87-1.11-4.76.76-4.3-.83.2-3.38,2.39-3.32c3.24.1,6.55.63,6.65-.31.13-1.14-2.82-1.55-5.35-1.46-2,.08-2.49-.09-2.25-1.26s.53-3.56,2.11-3.63,7.45.91,7.81-.35C125.3,143.48,123.1,143.57,120.07,143.43Zm-26.54,1c2.29-.55,6.87-3.08,2.55-5.56s-6.81-2.45-7.84-.46-2.69,7.62-2.94,8.15c-1.65,3.43-1.65,4.17-.79,4.56s2.37-2.22,3.57-5S90,145,91.77,147.26c2.75,3.51,3.88,5.35,5.08,5.17s.37-1.09-1.33-3.77S91.23,145,93.53,144.44Zm-3.41-4.11c.24-.71,1.21-1,2.21-.87s3.93,1.52,2,2.52C91.41,143.5,89.18,143.15,90.12,140.33Zm-20.06-4.59c3-.36,4-4.25.23-6.19s-5.71-.69-9.35,5.85c-3.1,5.58-4.93,7.27-.79,8.25,4.69,1.11,9.74-.1,11.38-2.57s-1.37-3.51-2.72-4S67,136.09,70.06,135.74Zm-.71,4.63c-.43,1.07-4.82,1.95-7.69,1.54-1.81-.25-.93-1.85-.12-3.28.38-.67,1.25-2.21,2.29-1.94S69.77,139.31,69.35,140.37ZM66,134.87c-2,.28-1.25-1.22-.21-2.72a2.81,2.81,0,0,1,4.25-.21C71.15,133.13,68,134.59,66,134.87Z"/></g></g></svg>