<?xml version="1.0" encoding="utf-8"?>
<!-- Generator: Adobe Illustrator 23.0.3, SVG Export Plug-In . SVG Version: 6.00 Build 0)  -->
<svg version="1.1" id="Capa_1" xmlns="http://www.w3.org/2000/svg" xmlns:xlink="http://www.w3.org/1999/xlink" x="0px" y="0px"
	 viewBox="0 0 314.78 450.48" style="enable-background:new 0 0 314.78 450.48;" xml:space="preserve">
<style type="text/css">
	.st0{fill:#842183;}
	.st1{fill:none;stroke:#842183;stroke-width:10;stroke-miterlimit:10;}
	.st2{fill:#FFFFFF;}
	.st3{fill:none;}
</style>
<g>
	<path class="st0" d="M266.01,10.52c20.76,0,37.75,16.99,37.75,37.75v353.32c0,20.76-16.99,37.75-37.75,37.75H48.83
		c-20.76,0-37.75-16.99-37.75-37.75V48.27c0-20.76,16.99-37.75,37.75-37.75H266.01 M266.01-0.48H48.83
		c-26.88,0-48.75,21.87-48.75,48.75v353.32c0,26.88,21.87,48.75,48.75,48.75h217.18c26.88,0,48.75-21.87,48.75-48.75V48.27
		C314.75,21.39,292.89-0.48,266.01-0.48L266.01-0.48z"/>
</g>
<line class="st1" x1="6.2" y1="313.62" x2="311.54" y2="313.62"/>
<g>
	<path class="st0" d="M28.7,337.57h13.5c4.41,0,7.6,0.78,9.56,2.34c1.96,1.56,2.94,3.87,2.94,6.91c0,1.71-0.31,3.14-0.92,4.3
		c-0.61,1.16-1.61,2.09-2.99,2.81v0.15c1.76,0.47,3.1,1.36,4.04,2.67c0.94,1.31,1.4,3.14,1.4,5.48c0,3.24-1.02,5.69-3.06,7.35
		s-5.37,2.49-9.97,2.49H28.7V337.57z M43.45,351.07c1.22,0,2.11-0.24,2.66-0.72s0.83-1.19,0.83-2.14c0-0.96-0.28-1.68-0.83-2.17
		c-0.55-0.49-1.44-0.73-2.66-0.73h-6.01v5.76L43.45,351.07L43.45,351.07z M43.74,363.86c1.4,0,2.42-0.28,3.05-0.83
		c0.63-0.55,0.95-1.36,0.95-2.42c0-1.01-0.3-1.74-0.9-2.18c-0.6-0.45-1.64-0.67-3.1-0.67h-6.3v6.1H43.74z"/>
	<path class="st0" d="M81.54,372.06l-1.71-6.2h-11.4l-1.71,6.2h-9.45l11.06-34.5h11.6l11.06,34.5H81.54z M70.51,358.37h7.25
		l-3.52-12.74h-0.22L70.51,358.37z"/>
	<path class="st0" d="M116.6,346.79c-1.21,0.68-2.15,1.72-2.83,3.11c-0.68,1.39-1.03,3.11-1.03,5.16c0,2.07,0.34,3.8,1.01,5.2
		c0.67,1.4,1.61,2.44,2.81,3.12s2.58,1.03,4.14,1.03c0.76,0,1.59-0.09,2.49-0.27v-9.18h8.54v14.94c-1.77,0.86-3.62,1.52-5.53,1.96
		c-1.91,0.45-3.81,0.67-5.68,0.67c-3.04,0-5.81-0.62-8.29-1.87s-4.47-3.18-5.96-5.8s-2.23-5.89-2.23-9.81
		c0-3.94,0.74-7.22,2.23-9.84c1.49-2.62,3.47-4.55,5.96-5.8c2.48-1.25,5.24-1.87,8.29-1.87c1.87,0,3.76,0.22,5.66,0.67
		s3.75,1.1,5.54,1.97v9.72h-0.39c-1.77-1.37-3.57-2.4-5.38-3.1c-1.82-0.7-3.54-1.05-5.16-1.05
		C119.21,345.77,117.81,346.11,116.6,346.79z"/>
	<path class="st0" d="M137.98,372.06v-34.5h23.8v8.11h-15.06v5.3h14.16v7.59h-14.16v5.35h15.06v8.15L137.98,372.06L137.98,372.06z"
		/>
	<path class="st0" d="M167.88,372.06v-34.5h8.45l12.08,19.65h0.22v-19.65h8.74v34.5h-8.54l-11.96-19.31h-0.24v19.31H167.88z"/>
	<path class="st0" d="M203.91,337.57h11.35c3.74,0,6.88,0.69,9.4,2.08c2.52,1.38,4.41,3.37,5.66,5.96s1.88,5.67,1.88,9.25
		c0,3.63-0.64,6.73-1.92,9.3c-1.28,2.57-3.18,4.53-5.71,5.88c-2.53,1.35-5.65,2.03-9.36,2.03h-11.3V337.57z M215.17,364.06
		c2.77,0,4.87-0.79,6.3-2.36c1.43-1.57,2.15-3.9,2.15-7c0-2.98-0.7-5.24-2.11-6.77c-1.41-1.54-3.52-2.31-6.33-2.31h-2.51v18.43
		L215.17,364.06L215.17,364.06z"/>
	<path class="st0" d="M236.75,372.06v-34.5h23.8v8.11h-15.06v5.3h14.16v7.59h-14.16v5.35h15.06v8.15L236.75,372.06L236.75,372.06z"
		/>
	<path class="st0" d="M285.51,372.11l-6.3-12.45h-3.86v12.4h-8.69v-34.5h12.65c4.56,0,7.96,1.01,10.19,3.04
		c2.24,2.03,3.36,4.85,3.36,8.46c0,2.33-0.44,4.26-1.33,5.79c-0.89,1.53-2.26,2.69-4.11,3.49l8.08,13.77L285.51,372.11
		L285.51,372.11z M275.35,352.97h3.91c1.84,0,3.12-0.35,3.86-1.04c0.73-0.69,1.1-1.66,1.1-2.92c0-0.89-0.16-1.61-0.46-2.15
		c-0.31-0.54-0.82-0.93-1.54-1.18s-1.7-0.38-2.95-0.38h-3.91L275.35,352.97L275.35,352.97z"/>
	<path class="st0" d="M85.88,420.48c-0.92-0.05-1.71-0.19-2.38-0.42v-7.86l1.2,0.15c0.16,0.02,0.52,0.06,1.07,0.12
		c0.55,0.07,1.02,0.1,1.39,0.1c0.75,0,1.33-0.06,1.73-0.2c0.41-0.13,0.74-0.47,1-1.03c0.26-0.55,0.39-1.43,0.39-2.64v-23.14h8.76
		v25.05c0,1.99-0.42,3.73-1.25,5.22c-0.83,1.5-2.03,2.66-3.6,3.48s-3.42,1.23-5.55,1.23C87.72,420.55,86.8,420.53,85.88,420.48z"/>
	<path class="st0" d="M125.19,420.06l-1.71-6.2h-11.4l-1.71,6.2h-9.45l11.06-34.5h11.6l11.06,34.5H125.19z M114.16,406.37h7.25
		l-3.52-12.74h-0.22L114.16,406.37z"/>
	<path class="st0" d="M137.87,420.06v-34.5h12.26l7.13,22.56l7.15-22.56h12.4v34.5h-8.69v-22.41h-0.32l-6.93,22.41h-7.2l-6.86-22.41
		h-0.34v22.41H137.87z"/>
	<path class="st0" d="M213.74,404.27c-2.29,2.67-5.6,5.23-9.92,7.69h13.11v8.11h-22.75v-9.4c4.49-2.77,8.02-5.36,10.57-7.78
		c2.55-2.42,3.83-4.63,3.83-6.63c0-0.98-0.32-1.7-0.96-2.16s-1.52-0.7-2.62-0.7c-1.58,0-3.41,0.37-5.5,1.11s-3.86,1.57-5.31,2.5
		v-9.11c1.71-0.86,3.57-1.55,5.59-2.08c2.02-0.52,3.99-0.78,5.91-0.78c2.13,0,4.07,0.35,5.8,1.05c1.73,0.7,3.12,1.81,4.15,3.32
		s1.55,3.43,1.55,5.74C217.17,398.56,216.03,401.6,213.74,404.27z"/>
	<path class="st0" d="M225.87,418.32c-1.81-1.49-3.15-3.56-4.02-6.22c-0.87-2.66-1.31-5.77-1.31-9.34s0.43-6.67,1.29-9.33
		c0.86-2.65,2.2-4.72,4-6.2c1.81-1.48,4.07-2.22,6.79-2.22c2.73,0,5.02,0.74,6.86,2.23c1.84,1.49,3.21,3.56,4.1,6.21
		s1.34,5.75,1.34,9.3c0,3.56-0.44,6.68-1.33,9.34s-2.25,4.74-4.09,6.22c-1.84,1.49-4.13,2.23-6.88,2.23
		C229.93,420.55,227.68,419.81,225.87,418.32z M234.76,412.08c0.5-0.68,0.85-1.76,1.05-3.24c0.2-1.47,0.29-3.5,0.29-6.09
		c0-2.55-0.1-4.56-0.31-6.02c-0.2-1.46-0.55-2.51-1.05-3.17s-1.2-0.99-2.11-0.99c-0.94,0-1.66,0.33-2.16,0.99s-0.84,1.71-1.04,3.14
		c-0.2,1.43-0.29,3.45-0.29,6.05c0,2.64,0.1,4.69,0.29,6.17c0.2,1.47,0.54,2.54,1.05,3.2c0.5,0.66,1.22,0.99,2.15,0.99
		C233.54,413.11,234.25,412.76,234.76,412.08z"/>
	<path class="st0" d="M248.34,420.06v-8.11h6.54v-18.04l-6.54,5.25v-8.69l6.59-4.91h8.52v26.39h6.49v8.11H248.34z"/>
	<path class="st0" d="M288.51,386.95c1.92,1.26,3.42,3.01,4.49,5.25c1.07,2.24,1.61,4.78,1.61,7.63c0,4.1-1.02,7.89-3.05,11.35
		c-2.04,3.47-4.39,6.43-7.06,8.89h-10.74v-0.29c1.74-1.2,3.25-2.34,4.52-3.42s2.47-2.32,3.59-3.74s2.05-3.01,2.78-4.79
		c-1.24,0.65-2.7,0.98-4.39,0.98c-1.95,0-3.72-0.41-5.3-1.22s-2.83-2.04-3.76-3.69c-0.93-1.64-1.39-3.65-1.39-6.03
		c0-2.59,0.54-4.85,1.64-6.8c1.09-1.94,2.56-3.43,4.41-4.47c1.85-1.03,3.89-1.55,6.12-1.55
		C284.41,385.05,286.59,385.68,288.51,386.95z M279.34,401.83c0.76,0.86,1.76,1.29,3.01,1.29c1.22,0,2.18-0.43,2.89-1.28
		c0.71-0.86,1.06-2.13,1.06-3.82c0-1.71-0.36-3.01-1.09-3.91c-0.72-0.89-1.68-1.34-2.87-1.34c-1.21,0-2.2,0.46-2.98,1.37
		s-1.17,2.22-1.17,3.93C278.21,399.71,278.59,400.96,279.34,401.83z"/>
</g>
<g>
	<path class="st0" d="M229.83,85.45c-16.83,0-30.52-13.69-30.52-30.52S213,24.42,229.83,24.42s30.52,13.69,30.52,30.52
		S246.66,85.45,229.83,85.45z M229.83,34.42c-11.31,0-20.52,9.2-20.52,20.52c0,11.31,9.2,20.52,20.52,20.52
		c11.31,0,20.52-9.2,20.52-20.52S241.14,34.42,229.83,34.42z"/>
	<path class="st2" d="M229.83,34.42c-11.31,0-20.52,9.2-20.52,20.52c0,11.31,9.2,20.52,20.52,20.52c11.31,0,20.52-9.2,20.52-20.52
		S241.14,34.42,229.83,34.42z"/>
</g>
<path class="st0" d="M170.24,43.97v-4.78c0-5.5-4.47-9.97-9.97-9.97H43.73c-5.5,0-9.97,4.47-9.97,9.97v31.54
	c0,5.5,4.47,9.97,9.97,9.97h0.57c0.65,16.26,14.07,29.29,30.49,29.29c16.42,0,29.84-13.03,30.49-29.29h54.99
	c5.5,0,9.98-4.47,9.97-9.97V67.5l22.8-11.28L170.24,43.97z M74.79,99.99c-10.9,0-19.82-8.55-20.46-19.29
	c-0.02-0.41-0.06-0.81-0.06-1.23c0-3.36,0.83-6.52,2.26-9.32c3.4-6.64,10.3-11.2,18.26-11.2c7.95,0,14.85,4.56,18.26,11.2
	c1.44,2.8,2.26,5.96,2.26,9.32c0,0.42-0.04,0.82-0.06,1.23C94.61,91.45,85.69,99.99,74.79,99.99z M159.69,60.95v9.2h-55.84
	c-3.95-12.28-15.48-21.2-29.06-21.2c-13.58,0-25.11,8.92-29.06,21.2h-1.42V39.77h115.38v10.51l10.34,5.55L159.69,60.95z"/>
<path class="st3" d="M164.2,168.93h-28.19l6.54,24.2c2.76-2.1,5.37-4.71,7.79-7.83c1.07-1.37,2.87-1.94,4.53-1.43
	c1.66,0.51,2.83,1.99,2.95,3.72c0.15,2.29,1.28,22.58-5.37,32.17c-0.22,0.37-0.96,1.68-1.77,3.47l10.55,39.03l14.61-57.51
	c-7.34-9.98-11.66-22.09-11.66-35.13C164.18,169.39,164.19,169.16,164.2,168.93z"/>
<path class="st3" d="M212.53,192.11h54.85c4.07,0,7.72,1.63,10.15,4.19c5.05-7.8,7.95-16.93,7.95-26.68
	c0-25.58-19.65-47.1-46.72-51.17l-2.07-0.31l-6.71-9.2l-6.91,10.18l-2.17,0.32c-22.96,3.45-40.57,19.14-45.4,39.08h16.12
	c1.6,0,3.12,0.74,4.1,2.01c0.99,1.27,1.33,2.92,0.94,4.47l-9.59,37.75c3.51,3.92,7.64,7.35,12.23,10.17v-9.2
	C199.31,197.33,205.24,192.11,212.53,192.11z"/>
<polygon class="st3" points="102.19,136.6 80.47,136.6 75.62,128.81 70.36,136.6 47.4,136.6 47.4,199.1 102.19,199.1 "/>
<path class="st3" d="M144.88,201.74l2.54,9.39c1.21-3.68,1.8-8.43,2.05-12.78C147.91,199.66,146.37,200.77,144.88,201.74z"/>
<rect x="47.4" y="207.46" class="st3" width="54.79" height="28.49"/>
<path class="st3" d="M126.76,207.47c-0.04,0-0.08,0-0.12-0.01h-14.45v29.04c0,5.21-4.24,9.45-9.45,9.45H46.85
	c-5.21,0-9.45-4.24-9.45-9.45v-25.84c-2.9,2.46-4.74,6.13-4.74,10.22v55.3c0,7.4,6.02,13.42,13.42,13.42h80.66
	c7.4,0,13.42-6.02,13.42-13.42v-47.2c0-0.29,0.03-0.57,0.09-0.85c0.13-0.65,0.3-1.29,0.47-1.92l-5.41-20.01
	C131.07,207.47,127.91,207.51,126.76,207.47z"/>
<polygon class="st0" points="136.01,168.93 136.01,168.93 136.01,168.93 "/>
<path class="st0" d="M280.6,208.78c9.29-10.67,14.88-24.31,14.88-39.16c0-14.85-5.67-29.21-15.97-40.43
	c-9.65-10.51-22.79-17.66-37.18-20.28l-12.65-17.34l-12.46,18.35c-8.9,1.62-17.06,4.83-24.19,9.28c0-0.07,0.01-0.13,0.01-0.2
	c0-17.5-14.24-31.74-31.74-31.74s-31.74,14.24-31.74,31.74s14.24,31.74,31.74,31.74c2.16,0,4.27-0.22,6.31-0.63
	c-0.99,2.73-1.78,5.53-2.35,8.41h-36.05c-1.62,0-3.15,0.76-4.13,2.04c-0.98,1.29-1.31,2.96-0.89,4.52l8.92,33.01
	c-3.3,1.02-5.61,1.02-6.03,1.01c-0.11-0.01-0.23-0.01-0.35-0.01h-14.55v-63.04c0-5.22-4.24-9.45-9.46-9.45H86.67l-11.69-12.6
	l-10.6,12.6H46.85c-5.21,0-9.45,4.24-9.45,9.45v64.85c-7.7,3.36-13.1,11.04-13.1,19.97v55.3c0,12.01,9.77,21.78,21.78,21.78h80.66
	c12.01,0,21.78-9.77,21.77-21.78v-21.14l7.86,29.08c0.61,2.27,2.67,3.84,5.02,3.84c0.01,0,0.03,0,0.04,0c2.36-0.02,4.42-1.63,5-3.92
	l17.79-70.01c4.47,4.07,9.55,7.56,15.09,10.31v61.74c0,6.41,5.93,11.63,13.22,11.63h54.84c0.01,0,0.02,0,0.03,0
	c3.8,0,7.41-1.43,9.91-3.92c2.12-2.12,3.29-4.85,3.29-7.7v-13.56l12.05-9.71l-12.05-9.71V208.78z M161.3,140.35
	c-11.77,0-21.34-9.57-21.34-21.34s9.57-21.34,21.34-21.34c11.77,0,21.34,9.57,21.34,21.34c0,4.79-1.6,9.2-4.28,12.76
	c-0.44,0.51-0.86,1.03-1.28,1.55C173.18,137.63,167.56,140.35,161.3,140.35z M47.4,207.46v-8.36v-62.5h22.96l5.26-7.79l4.85,7.79
	h21.72v62.5v8.36v28.49H47.4V207.46z M140.25,228.13c-0.06,0.28-0.09,0.56-0.09,0.85v47.2c0,7.4-6.02,13.42-13.42,13.42H46.08
	c-7.4,0-13.42-6.02-13.42-13.42v-55.3c0-4.09,1.84-7.75,4.74-10.22v25.84c0,5.21,4.24,9.45,9.45,9.45h55.89
	c5.21,0,9.45-4.24,9.45-9.45v-29.04h14.45c0.04,0.01,0.08,0.01,0.12,0.01c1.15,0.04,4.31,0,8.55-1.27c2.81-0.84,6.08-2.22,9.56-4.47
	c1.5-0.97,3.03-2.08,4.58-3.4c-0.25,4.35-0.84,9.11-2.05,12.78c-0.51,1.54-1.12,2.9-1.87,3.96c-0.07,0.09-0.12,0.18-0.18,0.27
	c-0.13,0.23-3.08,5.17-4.64,10.86C140.55,226.84,140.38,227.48,140.25,228.13z M179.27,191.24l-3.43,13.5l-14.61,57.51l-10.55-39.03
	c0.81-1.78,1.55-3.09,1.77-3.47c6.65-9.59,5.52-29.88,5.37-32.17c-0.12-1.73-1.29-3.21-2.95-3.72c-1.66-0.51-3.46,0.06-4.53,1.43
	c-2.42,3.12-5.03,5.73-7.79,7.83l-6.54-24.2h28.19h10h10.74L179.27,191.24z M270.6,267.76v18.34c0,0.24-0.25,0.52-0.35,0.62
	c-0.48,0.48-1.48,1-2.85,1c0,0-0.01,0-0.01,0h-54.85c-1.97,0-3.22-1.07-3.22-1.63v-57.74v-10.56v-14.05c0-0.56,1.25-1.63,3.22-1.63
	h54.85c1.97,0,3.22,1.07,3.22,1.63v1.12v13.18v39.86l6.11,4.93L270.6,267.76z M277.53,196.3c-2.43-2.56-6.07-4.19-10.15-4.19h-54.85
	c-7.29,0-13.22,5.22-13.22,11.63v9.2c-4.59-2.82-8.72-6.25-12.23-10.17l9.59-37.75c0.39-1.55,0.05-3.2-0.94-4.47
	c-0.98-1.27-2.5-2.01-4.1-2.01h-16.12c1.42-5.88,3.97-11.39,7.43-16.33c2-1.87,3.75-3.98,5.22-6.31
	c8.24-8.49,19.62-14.47,32.75-16.44l2.17-0.32l6.91-10.18l6.71,9.2l2.07,0.31c27.07,4.07,46.72,25.58,46.72,51.17
	C285.48,179.37,282.57,188.5,277.53,196.3z"/>
</svg>
