<svg xmlns="http://www.w3.org/2000/svg" viewBox="0 0 148.728 213.096">
  <defs>
    <style>
      .cls-1 {
        fill: #f49719;
      }

      .cls-2 {
        fill: #f0f0f0;
      }

      .cls-3 {
        fill: #f4981c;
      }
    </style>
  </defs>
  <g id="baservicejamlogo" transform="translate(-485 -686.936)">
    <path id="Path_12" data-name="Path 12" class="cls-1" d="M148.728,23.063v166.97A23.094,23.094,0,0,1,125.665,213.1H23.063A23.125,23.125,0,0,1,0,190.033V23.063A23.094,23.094,0,0,1,23.063,0H125.712A23.084,23.084,0,0,1,148.728,23.063Z" transform="translate(485 686.936)"/>
    <path id="Path_13" data-name="Path 13" class="cls-2" d="M149.331,28.864v166.97A17.911,17.911,0,0,1,131.466,213.7H28.864A17.911,17.911,0,0,1,11,195.835V28.864A17.911,17.911,0,0,1,28.864,11H131.513A17.9,17.9,0,0,1,149.331,28.864Z" transform="translate(479.199 681.135)"/>
    <ellipse id="Ellipse_3" data-name="Ellipse 3" class="cls-2" cx="29.49" cy="27.033" rx="29.49" ry="27.033" transform="translate(499.708 735.329) rotate(-45)"/>
    <path id="Path_14" data-name="Path 14" class="cls-1" d="M80.67,95.114a34.452,34.452,0,0,1-14.745-3.4A27.487,27.487,0,0,1,52.692,78.479C47.682,67.8,48.2,56.266,54.157,46.956A31.234,31.234,0,0,1,80.622,32.4a34.452,34.452,0,0,1,14.745,3.4A27.487,27.487,0,0,1,108.6,49.036c5.01,10.681,4.49,22.212-1.465,31.57A31.239,31.239,0,0,1,80.67,95.114Zm0-57.988a26.583,26.583,0,0,0-22.5,12.335c-5.057,7.94-5.482,17.817-1.182,26.986A22.691,22.691,0,0,0,67.909,87.364a30.266,30.266,0,0,0,12.76,2.93,26.583,26.583,0,0,0,22.5-12.335c5.057-7.94,5.482-17.817,1.182-26.986A22.692,22.692,0,0,0,93.43,40.056,30.428,30.428,0,0,0,80.67,37.126Z" transform="translate(459.01 669.849)"/>
    <path id="Path_15" data-name="Path 15" class="cls-2" d="M112.02,126.4,108,133.158a2.2,2.2,0,0,0-.284,1.087v45.89L97.7,184.2l10.019,3.45v12.524a2.067,2.067,0,0,0,2.079,2.079h52.175a2.067,2.067,0,0,0,2.079-2.079V134.245a2.2,2.2,0,0,0-.284-1.087l-4.017-6.758Z" transform="translate(433.473 620.273)"/>
    <path id="Path_16" data-name="Path 16" class="cls-1" d="M154.427,202.031H102.2a4.488,4.488,0,0,1-4.49-4.49v-10.87L83.3,181.709l14.414-5.86V131.661a4.655,4.655,0,0,1,.614-2.268l4.679-7.892h50.568l4.679,7.892a4.311,4.311,0,0,1,.614,2.268v65.928A4.437,4.437,0,0,1,154.427,202.031Zm-51.939-4.726h51.655v-65.6l-3.261-5.529H105.749l-3.261,5.529v47.4l-5.624,2.268,5.624,1.938v13.989Z" transform="translate(441.068 622.857)"/>
    <path id="Path_17" data-name="Path 17" class="cls-2" d="M173.2,72.1H120.979a2.067,2.067,0,0,0-2.079,2.079V88.31a2.067,2.067,0,0,0,2.079,2.079h52.175a2.067,2.067,0,0,0,2.079-2.079V85.38l7.42-3.686-7.42-3.97V74.179A2,2,0,0,0,173.2,72.1Z" transform="translate(422.292 648.911)"/>
    <path id="Path_18" data-name="Path 18" class="cls-1" d="M170.512,90.216H118.29a4.488,4.488,0,0,1-4.49-4.49V71.642a4.448,4.448,0,0,1,4.49-4.442h52.175a4.478,4.478,0,0,1,4.49,4.442v2.127l10.208,5.482-10.208,5.057v1.465A4.437,4.437,0,0,1,170.512,90.216ZM118.573,85.49h51.655V81.378l4.632-2.268-4.632-2.5V71.879H118.573Z" transform="translate(424.982 651.495)"/>
    <path id="Path_19" data-name="Path 19" class="cls-3" d="M22.9,338.1h6.38a7.622,7.622,0,0,1,4.537,1.087,3.9,3.9,0,0,1,1.371,3.261,4.453,4.453,0,0,1-.425,2.032,2.986,2.986,0,0,1-1.418,1.323v.047a3.242,3.242,0,0,1,1.89,1.276,4.486,4.486,0,0,1,.662,2.6,4.087,4.087,0,0,1-1.465,3.45c-.945.8-2.552,1.182-4.726,1.182H22.9Zm6.947,6.38a1.96,1.96,0,0,0,1.276-.331,1.191,1.191,0,0,0,.378-.992,1.393,1.393,0,0,0-.378-1.04,1.878,1.878,0,0,0-1.276-.331H27.012v2.741h2.836Zm.142,6a2.469,2.469,0,0,0,1.465-.378,1.565,1.565,0,0,0,.473-1.134,1.255,1.255,0,0,0-.425-1.04,2.666,2.666,0,0,0-1.465-.331H27.059v2.883Z" transform="translate(472.923 508.623)"/>
    <path id="Path_20" data-name="Path 20" class="cls-3" d="M62.937,354.3l-.8-2.93H56.746l-.8,2.93H51.5L56.746,338h5.482l5.246,16.3Zm-5.2-6.427h3.45l-1.654-6H59.44Z" transform="translate(457.839 508.676)"/>
    <path id="Path_21" data-name="Path 21" class="cls-3" d="M101.836,354.094a17.97,17.97,0,0,1-2.6-.756v-4.49h.095a12.519,12.519,0,0,0,2.552,1.182,6.956,6.956,0,0,0,2.363.473,2.411,2.411,0,0,0,1.418-.378,1.233,1.233,0,0,0,.52-.992.974.974,0,0,0-.331-.8,3.364,3.364,0,0,0-.8-.52c-.331-.142-.8-.284-1.418-.473a18.632,18.632,0,0,1-2.363-.851,4.118,4.118,0,0,1-1.607-1.418,4.338,4.338,0,0,1-.662-2.6,4.922,4.922,0,0,1,.709-2.741,4.187,4.187,0,0,1,1.985-1.607,7.331,7.331,0,0,1,2.788-.52,8.794,8.794,0,0,1,2.458.331,10.168,10.168,0,0,1,2.363.9v4.064h-.095a11.938,11.938,0,0,0-2.458-1.229,6.916,6.916,0,0,0-2.316-.52,1.921,1.921,0,0,0-.992.236.777.777,0,0,0-.378.709.933.933,0,0,0,.284.662,1.779,1.779,0,0,0,.709.425c.284.095.709.236,1.229.378a14.767,14.767,0,0,1,2.5.945,4.439,4.439,0,0,1,1.7,1.56,5.1,5.1,0,0,1,.709,2.883,5.53,5.53,0,0,1-.756,3.025,4.629,4.629,0,0,1-2.079,1.843,7.21,7.21,0,0,1-3.119.614C103.49,354.33,102.686,354.283,101.836,354.094Z" transform="translate(432.788 508.887)"/>
    <path id="Path_22" data-name="Path 22" class="cls-3" d="M127.5,354.3V338h11.248v3.828h-7.136v2.5h6.711v3.592h-6.711v2.5h7.136V354.3Z" transform="translate(417.757 508.676)"/>
    <path id="Path_23" data-name="Path 23" class="cls-3" d="M166.332,354.352l-2.977-5.908h-1.843v5.86H157.4V338h5.955a6.993,6.993,0,0,1,4.821,1.418,5.157,5.157,0,0,1,1.607,4.017,5.35,5.35,0,0,1-.614,2.741,4.194,4.194,0,0,1-1.938,1.654l3.828,6.522Zm-4.821-9.027h1.843a2.782,2.782,0,0,0,1.843-.473,1.717,1.717,0,0,0,.52-1.371,1.921,1.921,0,0,0-.236-.992,1.46,1.46,0,0,0-.709-.567,3.793,3.793,0,0,0-1.418-.189h-1.843Z" transform="translate(401.988 508.676)"/>
    <path id="Path_24" data-name="Path 24" class="cls-3" d="M190.346,354.3,185.1,338h4.442l3.4,12h.095l3.45-12h4.442l-5.246,16.3Z" transform="translate(387.379 508.676)"/>
    <path id="Path_25" data-name="Path 25" class="cls-3" d="M221.8,354.3V338h4.112v16.3Z" transform="translate(368.023 508.676)"/>
    <path id="Path_26" data-name="Path 26" class="cls-3" d="M239.175,353.743A6.6,6.6,0,0,1,236.34,351a10.836,10.836,0,0,1,0-9.263A6.6,6.6,0,0,1,239.175,339a8.87,8.87,0,0,1,3.923-.9,10.511,10.511,0,0,1,2.694.331,10.071,10.071,0,0,1,2.6.945v4.679h-.047a9.782,9.782,0,0,0-2.6-1.512,7.2,7.2,0,0,0-2.5-.52,3.859,3.859,0,0,0-1.985.473,3.438,3.438,0,0,0-1.371,1.465,6.626,6.626,0,0,0,0,4.915,3.438,3.438,0,0,0,1.371,1.465,3.859,3.859,0,0,0,1.985.473,6.992,6.992,0,0,0,2.5-.52,9.783,9.783,0,0,0,2.6-1.512h.047v4.679a12.119,12.119,0,0,1-5.293,1.276A11.135,11.135,0,0,1,239.175,353.743Z" transform="translate(360.903 508.623)"/>
    <path id="Path_27" data-name="Path 27" class="cls-3" d="M268.9,354.3V338h11.248v3.828h-7.136v2.5h6.711v3.592h-6.711v2.5h7.136V354.3Z" transform="translate(343.183 508.676)"/>
    <path id="Path_28" data-name="Path 28" class="cls-3" d="M81.734,402.594A4.064,4.064,0,0,1,80.6,402.4v-3.734l.567.047a4.925,4.925,0,0,0,.52.047,3.6,3.6,0,0,0,.662.047,3.4,3.4,0,0,0,.8-.094c.189-.047.331-.236.473-.473a2.779,2.779,0,0,0,.189-1.229V386.1h4.159v11.815a5.1,5.1,0,0,1-.567,2.458,3.842,3.842,0,0,1-1.7,1.654,5.755,5.755,0,0,1-2.647.567Z" transform="translate(442.492 483.308)"/>
    <path id="Path_29" data-name="Path 29" class="cls-3" d="M109.484,402.3l-.8-2.93h-5.388l-.8,2.93H98l5.246-16.3h5.482l5.246,16.3Zm-5.246-6.427h3.45l-1.654-6h-.095Z" transform="translate(433.315 483.361)"/>
    <path id="Path_30" data-name="Path 30" class="cls-3" d="M135,402.3V386h5.813l3.355,10.681,3.4-10.681h5.86v16.3H149.32V391.718h-.142L145.917,402.3h-3.4l-3.261-10.586h-.142V402.3Z" transform="translate(413.801 483.361)"/>
    <path id="Path_31" data-name="Path 31" class="cls-3" d="M200.463,394.621a17.872,17.872,0,0,1-4.679,3.639h6.191v3.828H191.2v-4.442a33.672,33.672,0,0,0,5.01-3.686,4.524,4.524,0,0,0,1.8-3.119,1.162,1.162,0,0,0-.473-1.04,1.9,1.9,0,0,0-1.229-.331,8.417,8.417,0,0,0-2.6.52,11.27,11.27,0,0,0-2.5,1.181v-4.3a11.782,11.782,0,0,1,2.647-.992,11.625,11.625,0,0,1,2.788-.378,7.261,7.261,0,0,1,2.741.52,4.584,4.584,0,0,1,1.985,1.56,4.77,4.77,0,0,1,.756,2.694A6.575,6.575,0,0,1,200.463,394.621Z" transform="translate(384.161 483.624)"/>
    <path id="Path_32" data-name="Path 32" class="cls-3" d="M220.2,401.29a6.448,6.448,0,0,1-1.89-2.93,13.912,13.912,0,0,1-.614-4.4,13.713,13.713,0,0,1,.614-4.4,6.2,6.2,0,0,1,1.89-2.93,4.865,4.865,0,0,1,3.214-1.04,5.085,5.085,0,0,1,3.261,1.04,6.521,6.521,0,0,1,1.938,2.93,13.913,13.913,0,0,1,.614,4.4,13.517,13.517,0,0,1-.614,4.4,5.939,5.939,0,0,1-1.938,2.93,4.91,4.91,0,0,1-3.261,1.04A4.78,4.78,0,0,1,220.2,401.29Zm4.159-2.93a3.007,3.007,0,0,0,.473-1.512,22.761,22.761,0,0,0,.142-2.883,21.435,21.435,0,0,0-.142-2.836,4.06,4.06,0,0,0-.473-1.512,1.131,1.131,0,0,0-.992-.473,1.217,1.217,0,0,0-1.04.473,3.328,3.328,0,0,0-.473,1.465,22.255,22.255,0,0,0-.142,2.883,23.607,23.607,0,0,0,.142,2.93,3.345,3.345,0,0,0,.473,1.512,1.131,1.131,0,0,0,.992.473A1.474,1.474,0,0,0,224.364,398.36Z" transform="translate(370.185 483.572)"/>
    <path id="Path_33" data-name="Path 33" class="cls-3" d="M245.4,402.358v-3.828h3.072v-8.507L245.4,392.48v-4.064l3.119-2.316h4.017v12.477h3.072V402.4H245.4Z" transform="translate(355.576 483.308)"/>
    <path id="Path_34" data-name="Path 34" class="cls-3" d="M280.406,394.758a4.764,4.764,0,0,1,.709,2.6,4.327,4.327,0,0,1-.756,2.6,4.851,4.851,0,0,1-2.079,1.654,8.6,8.6,0,0,1-6.144,0,4.548,4.548,0,0,1-2.836-4.3,4.653,4.653,0,0,1,.709-2.6,3.544,3.544,0,0,1,1.985-1.512V393.1a2.216,2.216,0,0,1-1.134-.709,3.882,3.882,0,0,1-.756-1.181,3.817,3.817,0,0,1-.236-1.465,4.038,4.038,0,0,1,.614-2.221,4.3,4.3,0,0,1,1.843-1.56,7.853,7.853,0,0,1,5.86,0,3.911,3.911,0,0,1,1.8,1.56,4.3,4.3,0,0,1,.047,4.348,2.632,2.632,0,0,1-1.607,1.229v.095A4.1,4.1,0,0,1,280.406,394.758Zm-3.828,3.214a2.059,2.059,0,0,0,.52-1.371,1.972,1.972,0,0,0-.52-1.371,1.679,1.679,0,0,0-1.323-.52,1.778,1.778,0,0,0-1.323.52,2.066,2.066,0,0,0,0,2.741,1.716,1.716,0,0,0,1.323.567A1.788,1.788,0,0,0,276.578,397.971Zm-2.5-8.79a1.6,1.6,0,0,0,0,2.268,1.536,1.536,0,0,0,1.134.473,1.593,1.593,0,0,0,.8-.236,1.629,1.629,0,0,0,.567-.567,1.593,1.593,0,0,0,.236-.8,1.4,1.4,0,0,0-.473-1.134,1.767,1.767,0,0,0-1.181-.473A1.307,1.307,0,0,0,274.073,389.181Z" transform="translate(342.972 483.677)"/>
    <rect id="Rectangle_4" data-name="Rectangle 4" class="cls-3" width="144.285" height="4.726" transform="translate(487.883 833.018)"/>
  </g>
</svg>
