<svg xmlns="http://www.w3.org/2000/svg" viewBox="0 0 147.216 729">
  <defs>
    <style>
      .cls-1, .cls-3 {
        fill: none;
      }

      .cls-1 {
        stroke: #e2e2e2;
        stroke-width: 5px;
      }

      .cls-2 {
        fill: #1d6f82;
      }

      .cls-3 {
        stroke: #fff;
        stroke-linecap: round;
        stroke-miterlimit: 10;
        stroke-width: 3px;
      }
    </style>
  </defs>
  <g id="hardware-a-medida" transform="translate(-366 -1418.5)">
    <line id="Line_18" data-name="Line 18" class="cls-1" y2="729" transform="translate(439.5 1418.5)"/>
    <g id="hardware-a-medida-2" data-name="hardware-a-medida" transform="translate(738 -1131)">
      <path id="Path_80" data-name="Path 80" class="cls-2" d="M49.071,0,0,28.332V85l49.071,28.332L98.142,85V28.332Z" transform="translate(-322.929 2727.657) rotate(-120)"/>
      <g id="Group_28" data-name="Group 28" transform="translate(0 363)">
        <path id="Path_56" data-name="Path 56" class="cls-3" d="M60.63,27.361A13.447,13.447,0,0,1,47.2,13.93,13.675,13.675,0,0,1,60.63.5" transform="translate(-364.2 2271.5)"/>
        <path id="Path_58" data-name="Path 58" class="cls-3" d="M54.444,7.444h-3.1C51,7.444,51,7.444,51,7.1V4" transform="translate(-354.914 2280.053)"/>
        <path id="Path_59" data-name="Path 59" class="cls-3" d="M53.6,5.1A13.447,13.447,0,0,1,67.03,18.53,13.675,13.675,0,0,1,53.6,31.961" transform="translate(-347.734 2282.741)"/>
        <path id="Path_61" data-name="Path 61" class="cls-3" d="M52.8,8.4h3.1c.344,0,.344,0,.344.344v3.1" transform="translate(-349.689 2290.805)"/>
      </g>
    </g>
  </g>
</svg>
