<svg xmlns="http://www.w3.org/2000/svg" viewBox="0 0 1000 999.728">
  <defs>
    <style>
      .cls-1 {
        fill: #fff;
      }
    </style>
  </defs>
  <g id="Group_23" data-name="Group 23" transform="translate(-1162 -5585)">
    <path id="path26" d="M500.163,0C291.418,0,230.368.215,218.5,1.2c-42.838,3.561-69.495,10.306-98.535,24.765A199.6,199.6,0,0,0,62.515,68.018Q14.928,117.416,4.6,189.626C1.219,213.006.234,217.774.034,337.2c-.077,39.808,0,92.2,0,162.469,0,208.576.231,269.565,1.231,281.409,3.461,41.684,10,67.91,23.842,96.6,26.457,54.913,76.986,96.136,136.513,111.518,20.612,5.307,43.376,8.229,72.6,9.614,12.382.538,138.589.923,264.873.923s252.568-.154,264.643-.769c33.84-1.592,53.49-4.23,75.217-9.844A209.349,209.349,0,0,0,975.466,877.366c13.574-27.995,20.458-55.22,23.573-94.728.677-8.614.961-145.949.961-283.1,0-137.174-.308-274.256-.984-282.87-3.153-40.146-10.037-67.141-24.049-95.674-11.5-23.357-24.265-40.8-42.8-58.635C899.088,30.763,858.634,11.536,810.428,4.584,787.071,1.207,782.418.208,662.9,0Z" transform="translate(1162 5585)"/>
    <path id="path28" class="cls-1" d="M499.932,130.745c-100.258,0-112.84.438-152.218,2.23-39.3,1.8-66.126,8.022-89.6,17.151-24.28,9.429-44.876,22.042-65.4,42.569-20.535,20.519-33.148,41.115-42.607,65.388-9.152,23.48-15.382,50.314-17.151,89.6-1.761,39.377-2.223,51.967-2.223,152.225s.446,112.8,2.23,152.179c1.807,39.3,8.029,66.126,17.151,89.6,9.437,24.28,22.05,44.876,42.577,65.4,20.512,20.535,41.108,33.178,65.372,42.607,23.488,9.129,50.321,15.351,89.614,17.151,39.377,1.792,51.952,2.23,152.2,2.23,100.266,0,112.81-.438,152.187-2.23,39.3-1.8,66.157-8.022,89.645-17.151a180.618,180.618,0,0,0,65.349-42.607c20.535-20.519,33.148-41.115,42.607-65.388,9.075-23.48,15.3-50.314,17.151-89.6,1.769-39.377,2.23-51.929,2.23-152.187s-.461-112.84-2.23-152.218c-1.846-39.3-8.075-66.126-17.151-89.6-9.46-24.28-22.073-44.876-42.607-65.4a180.42,180.42,0,0,0-65.372-42.569c-23.534-9.129-50.375-15.351-89.675-17.151-39.377-1.792-51.913-2.23-152.2-2.23Zm-33.117,66.526c9.829-.015,20.8,0,33.117,0,98.566,0,110.248.354,149.172,2.123,35.993,1.646,55.528,7.66,68.541,12.713,17.228,6.691,29.51,14.69,42.423,27.61s20.919,25.226,27.626,42.454c5.053,13,11.075,32.532,12.713,68.526,1.769,38.916,2.153,50.606,2.153,149.126s-.385,110.21-2.153,149.126c-1.646,35.993-7.66,55.528-12.713,68.526-6.691,17.228-14.7,29.494-27.626,42.407s-25.188,20.919-42.423,27.61c-13,5.076-32.548,11.075-68.541,12.721-38.916,1.769-50.606,2.153-149.172,2.153s-110.256-.385-149.172-2.153c-35.993-1.661-55.528-7.675-68.549-12.728-17.228-6.691-29.533-14.69-42.454-27.61s-20.919-25.2-27.626-42.43c-5.053-13-11.075-32.532-12.713-68.526C197.651,610,197.3,598.311,197.3,499.729s.354-110.21,2.123-149.126c1.646-35.993,7.66-55.528,12.713-68.541,6.691-17.228,14.7-29.533,27.626-42.454s25.226-20.919,42.454-27.626c13.013-5.076,32.555-11.075,68.549-12.728,34.055-1.538,47.253-2,116.055-2.077Zm230.172,61.3a44.292,44.292,0,1,0,0-.015ZM499.932,310.326c-104.7,0-189.58,84.884-189.58,189.58s84.884,189.541,189.58,189.541S689.481,604.6,689.481,499.906s-84.861-189.58-189.557-189.58Zm0,66.526A123.054,123.054,0,1,1,376.879,499.906,123.054,123.054,0,0,1,499.932,376.852Z" transform="translate(1162.26 5585.255)"/>
  </g>
</svg>
