<svg xmlns="http://www.w3.org/2000/svg" viewBox="0 0 35 35">
  <defs>
    <style>
      .cls-1 {
        fill: #fff;
      }

      .cls-2 {
        fill: #0a76b4;
      }
    </style>
  </defs>
  <g id="linkedin" transform="translate(-2532 -3176)">
    <rect id="Rectangle_81" data-name="Rectangle 81" class="cls-1" width="35" height="35" rx="17.5" transform="translate(2532 3176)"/>
    <g id="Group_21" data-name="Group 21" transform="translate(2443.28 2991.995)">
      <path id="Path_14574" data-name="Path 14574" class="cls-2" d="M101.652,209.226H97.5v-10.8h4.152Zm-2.076-12.457h0a2.055,2.055,0,0,1-2.076-2.076,2.078,2.078,0,0,1,4.152,0A1.918,1.918,0,0,1,99.576,196.769Zm9.55,4.983a1.666,1.666,0,0,0-1.661,1.661v5.813h-4.152s.083-9.966,0-10.8h4.152v1.246a5.057,5.057,0,0,1,3.239-1.163c2.491,0,4.235,1.744,4.235,5.232v5.564h-4.152V203.5A1.686,1.686,0,0,0,109.127,201.752Z"/>
    </g>
  </g>
</svg>
