<?xml version="1.0" encoding="utf-8"?>
<!-- Generator: Adobe Illustrator 24.0.1, SVG Export Plug-In . SVG Version: 6.00 Build 0)  -->
<svg version="1.1" id="Capa_1" xmlns="http://www.w3.org/2000/svg" xmlns:xlink="http://www.w3.org/1999/xlink" x="0px" y="0px"
	 viewBox="0 0 35 35" style="enable-background:new 0 0 35 35;" xml:space="preserve">
<style type="text/css">
	.st0{fill:#FFFFFF;}
	.st1{fill:#211915;}
</style>
<g id="linkedin" transform="translate(-2532 -3176)">
	<path id="Rectangle_81" class="st0" d="M2549.5,3176L2549.5,3176c9.7,0,17.5,7.8,17.5,17.5l0,0c0,9.7-7.8,17.5-17.5,17.5l0,0
		c-9.7,0-17.5-7.8-17.5-17.5l0,0C2532,3183.8,2539.8,3176,2549.5,3176z"/>
	<g id="Group_21" transform="translate(2443.28 2991.995)">
		<path id="Path_14574" class="st1" d="M101.7,209.2h-4.2v-10.8h4.2V209.2z M99.6,196.8L99.6,196.8c-1.1,0-2.1-0.9-2.1-2
			c0,0,0,0,0,0c0.1-1.1,1-2,2.2-2c1.1,0,1.9,0.9,2,2c0.1,1.1-0.7,2-1.7,2.1C99.8,196.8,99.7,196.8,99.6,196.8z M109.1,201.8
			c-0.9,0-1.7,0.7-1.7,1.7v5.8h-4.2c0,0,0.1-10,0-10.8h4.2v1.2c0.9-0.8,2.1-1.2,3.2-1.2c2.5,0,4.2,1.7,4.2,5.2v5.6h-4.2v-5.8
			C110.8,202.6,110.1,201.8,109.1,201.8C109.2,201.8,109.1,201.8,109.1,201.8L109.1,201.8z"/>
	</g>
</g>
</svg>
