<svg xmlns="http://www.w3.org/2000/svg" viewBox="0 0 216.784 313.674">
  <defs>
    <style>
      .cls-1 {
        fill: #428dcc;
      }
    </style>
  </defs>
  <g id="masjams" transform="translate(-1968.979 -6763.681)">
    <path id="Path_17338" data-name="Path 17338" class="cls-1" d="M322.864,174.089l197.367.154-.154,197.366-197.366-.154.153-197.366m-9.091-9.106-.007,9.1-.154,197.366-.007,9.1,9.1.007,197.366.154,9.1.007.007-9.1.154-197.366.007-9.1-9.1-.007-197.367-.154-9.1-.007Z" transform="translate(1656.426 6598.698)"/>
    <path id="Path_17339" data-name="Path 17339" class="cls-1" d="M332.1,236.158v-9.124h14.333V212.7h9.194v14.333h14.333v9.124H355.623v14.4h-9.194v-14.4H332.1Z" transform="translate(1656.426 6598.698)"/>
    <path id="Path_17340" data-name="Path 17340" class="cls-1" d="M448.679,258.991h-7.517l6.041-9.576,8.908,3.146Z" transform="translate(1656.426 6598.698)"/>
    <path id="Path_17341" data-name="Path 17341" class="cls-1" d="M411.155,302.388l-.056-25.944-9.576,21.963H394.9l-9.576-21.963v25.944h-9.075V262.415h11.135l10.828,23.772,10.828-23.772h11.051v39.973Z" transform="translate(1656.426 6598.698)"/>
    <path id="Path_17342" data-name="Path 17342" class="cls-1" d="M437.182,295.039l-2.895,7.349H423.848l17.2-39.918H451.49L468.3,302.388H457.475l-2.839-7.349Zm8.769-22.464-5.818,14.753h11.524Z" transform="translate(1656.426 6598.698)"/>
    <path id="Path_17343" data-name="Path 17343" class="cls-1" d="M495.6,263.222a26.743,26.743,0,0,1,7.307,3.257l-3.841,7.906a33.995,33.995,0,0,0-6.722-2.992,20.3,20.3,0,0,0-6.027-1.155,6.051,6.051,0,0,0-3.2.738,2.382,2.382,0,0,0-1.2,2.157,3.147,3.147,0,0,0,1.851,2.895,31.1,31.1,0,0,0,5.831,2.143,52.606,52.606,0,0,1,6.848,2.394,12.494,12.494,0,0,1,4.621,3.591,9.793,9.793,0,0,1,1.949,6.375,10.618,10.618,0,0,1-2.116,6.639,12.805,12.805,0,0,1-5.734,4.162,22.494,22.494,0,0,1-8.128,1.392,29.222,29.222,0,0,1-9.8-1.712,27.633,27.633,0,0,1-8.434-4.663l3.925-7.822a25.835,25.835,0,0,0,7.14,4.3,19.538,19.538,0,0,0,7.279,1.684,7.1,7.1,0,0,0,3.827-.877,2.886,2.886,0,0,0,1.378-2.6,3.206,3.206,0,0,0-1.921-2.965,30.568,30.568,0,0,0-5.957-2.1,54.725,54.725,0,0,1-6.751-2.283,11.879,11.879,0,0,1-4.565-3.48,9.431,9.431,0,0,1-1.907-6.152,10.51,10.51,0,0,1,1.962-6.347,12.637,12.637,0,0,1,5.581-4.189,21.823,21.823,0,0,1,8.351-1.489A30.42,30.42,0,0,1,495.6,263.222Z" transform="translate(1656.426 6598.698)"/>
    <path id="Path_17344" data-name="Path 17344" class="cls-1" d="M366.282,351.125q-3.675,3.535-10.132,3.535a17.514,17.514,0,0,1-13.723-6.375l4.677-6.792a16,16,0,0,0,4.3,3.313,9.116,9.116,0,0,0,4.078,1.141,3.98,3.98,0,0,0,3.159-1.253,5.369,5.369,0,0,0,1.1-3.647v-18.6H346.074V314.24h23.884v27.029Q369.956,347.592,366.282,351.125Z" transform="translate(1656.426 6598.698)"/>
    <path id="Path_17345" data-name="Path 17345" class="cls-1" d="M385.155,346.866l-2.895,7.349H371.821l17.2-39.918h10.439l16.814,39.918H405.448l-2.839-7.349Zm8.769-22.464-5.818,14.753H399.63Z" transform="translate(1656.426 6598.698)"/>
    <path id="Path_17346" data-name="Path 17346" class="cls-1" d="M454.858,354.215l-.056-25.944-9.576,21.963H438.6l-9.576-21.963v25.944H419.95V314.242h11.135l10.828,23.772,10.828-23.772h11.051v39.973Z" transform="translate(1656.426 6598.698)"/>
    <path id="Path_17347" data-name="Path 17347" class="cls-1" d="M495.6,315.049a26.743,26.743,0,0,1,7.307,3.257l-3.841,7.906a34.056,34.056,0,0,0-6.722-2.993,20.3,20.3,0,0,0-6.027-1.155,6.061,6.061,0,0,0-3.2.737,2.382,2.382,0,0,0-1.2,2.158,3.147,3.147,0,0,0,1.851,2.895A31.1,31.1,0,0,0,489.6,330a52.606,52.606,0,0,1,6.848,2.394,12.494,12.494,0,0,1,4.621,3.591,9.793,9.793,0,0,1,1.949,6.375A10.62,10.62,0,0,1,500.9,349a12.8,12.8,0,0,1-5.734,4.161,22.494,22.494,0,0,1-8.128,1.392,29.222,29.222,0,0,1-9.8-1.712,27.687,27.687,0,0,1-8.434-4.663l3.925-7.822a25.835,25.835,0,0,0,7.14,4.3,19.538,19.538,0,0,0,7.279,1.684,7.1,7.1,0,0,0,3.827-.877,2.884,2.884,0,0,0,1.378-2.6,3.206,3.206,0,0,0-1.921-2.965,30.513,30.513,0,0,0-5.957-2.1,54.725,54.725,0,0,1-6.751-2.283,11.879,11.879,0,0,1-4.565-3.48,9.431,9.431,0,0,1-1.907-6.152,10.51,10.51,0,0,1,1.962-6.347,12.639,12.639,0,0,1,5.581-4.19,21.823,21.823,0,0,1,8.351-1.489A30.459,30.459,0,0,1,495.6,315.049Z" transform="translate(1656.426 6598.698)"/>
    <path id="Path_17348" data-name="Path 17348" class="cls-1" d="M324.6,405.559a4.85,4.85,0,0,1-1.706,3.992,7.515,7.515,0,0,1-4.856,1.388h-1.729v6.221h-2.718V400.532h4.788a7.247,7.247,0,0,1,4.669,1.274A4.575,4.575,0,0,1,324.6,405.559Zm-8.291,3.093h1.444a5.178,5.178,0,0,0,3.071-.728,2.65,2.65,0,0,0,.978-2.275,2.581,2.581,0,0,0-.876-2.138,4.327,4.327,0,0,0-2.73-.7h-1.888v5.846Z" transform="translate(1656.426 6598.698)"/>
    <path id="Path_17349" data-name="Path 17349" class="cls-1" d="M334.015,404.353a6.425,6.425,0,0,1,1.331.114l-.262,2.491a5.048,5.048,0,0,0-1.183-.136,3.421,3.421,0,0,0-2.6,1.046,3.781,3.781,0,0,0-1,2.718v6.574h-2.673V404.581h2.093l.353,2.218h.136a4.984,4.984,0,0,1,1.632-1.786A3.88,3.88,0,0,1,334.015,404.353Z" transform="translate(1656.426 6598.698)"/>
    <path id="Path_17350" data-name="Path 17350" class="cls-1" d="M348.835,410.847a6.866,6.866,0,0,1-1.581,4.811,5.667,5.667,0,0,1-4.4,1.729,6.027,6.027,0,0,1-3.116-.8,5.258,5.258,0,0,1-2.081-2.286,7.79,7.79,0,0,1-.728-3.458,6.816,6.816,0,0,1,1.57-4.777,5.689,5.689,0,0,1,4.424-1.717,5.537,5.537,0,0,1,4.322,1.758A6.786,6.786,0,0,1,348.835,410.847Zm-9.156,0q0,4.356,3.219,4.356,3.184,0,3.185-4.356,0-4.311-3.207-4.311a2.733,2.733,0,0,0-2.439,1.115A5.661,5.661,0,0,0,339.679,410.847Z" transform="translate(1656.426 6598.698)"/>
    <path id="Path_17351" data-name="Path 17351" class="cls-1" d="M362.506,417.16h-2.684V409.4a3.516,3.516,0,0,0-.546-2.155,2.015,2.015,0,0,0-1.706-.711,2.6,2.6,0,0,0-2.269,1.007,5.9,5.9,0,0,0-.723,3.349v6.267h-2.673V404.581H354l.375,1.649h.136a3.485,3.485,0,0,1,1.519-1.388,4.894,4.894,0,0,1,2.189-.489q2.9,0,3.844,1.979h.182a3.838,3.838,0,0,1,1.57-1.456,4.978,4.978,0,0,1,2.32-.523,4.225,4.225,0,0,1,3.281,1.137,5.039,5.039,0,0,1,1.03,3.469v8.2h-2.673V409.4a3.494,3.494,0,0,0-.551-2.155,2.032,2.032,0,0,0-1.712-.711,2.658,2.658,0,0,0-2.281.972,5.019,5.019,0,0,0-.722,2.986v6.666Z" transform="translate(1656.426 6598.698)"/>
    <path id="Path_17352" data-name="Path 17352" class="cls-1" d="M385.332,410.847a6.866,6.866,0,0,1-1.581,4.811,5.667,5.667,0,0,1-4.4,1.729,6.027,6.027,0,0,1-3.116-.8,5.258,5.258,0,0,1-2.081-2.286,7.79,7.79,0,0,1-.728-3.458,6.816,6.816,0,0,1,1.57-4.777,5.689,5.689,0,0,1,4.424-1.717,5.537,5.537,0,0,1,4.322,1.758A6.781,6.781,0,0,1,385.332,410.847Zm-9.155,0q0,4.356,3.219,4.356,3.184,0,3.185-4.356,0-4.311-3.207-4.311a2.733,2.733,0,0,0-2.439,1.115A5.653,5.653,0,0,0,376.177,410.847Z" transform="translate(1656.426 6598.698)"/>
    <path id="Path_17353" data-name="Path 17353" class="cls-1" d="M391.269,417.16l-4.777-12.579h2.821l2.559,7.313a14.474,14.474,0,0,1,.8,2.98h.091a20.051,20.051,0,0,1,.8-2.98l2.559-7.313h2.843l-4.8,12.579Z" transform="translate(1656.426 6598.698)"/>
    <path id="Path_17354" data-name="Path 17354" class="cls-1" d="M400.709,401.248a1.474,1.474,0,0,1,.393-1.1,1.527,1.527,0,0,1,1.12-.387,1.357,1.357,0,0,1,1.49,1.49,1.443,1.443,0,0,1-.393,1.074,1.48,1.48,0,0,1-1.1.393,1.509,1.509,0,0,1-1.12-.393A1.446,1.446,0,0,1,400.709,401.248Zm2.832,15.912h-2.673V404.581h2.673Z" transform="translate(1656.426 6598.698)"/>
    <path id="Path_17355" data-name="Path 17355" class="cls-1" d="M412.856,417.387a6.085,6.085,0,0,1-4.59-1.712,6.5,6.5,0,0,1-1.654-4.714,7.131,7.131,0,0,1,1.535-4.845,5.305,5.305,0,0,1,4.22-1.763,5.181,5.181,0,0,1,3.935,1.513,5.781,5.781,0,0,1,1.444,4.163v1.444h-8.382a4.131,4.131,0,0,0,.99,2.815,3.442,3.442,0,0,0,2.627.984,9.657,9.657,0,0,0,2.076-.211,10.815,10.815,0,0,0,2.064-.7v2.172a8.209,8.209,0,0,1-1.979.66A12.125,12.125,0,0,1,412.856,417.387Zm-.489-11.009a2.681,2.681,0,0,0-2.041.808,3.843,3.843,0,0,0-.916,2.354h5.71a3.476,3.476,0,0,0-.751-2.36A2.566,2.566,0,0,0,412.367,406.378Z" transform="translate(1656.426 6598.698)"/>
    <path id="Path_17356" data-name="Path 17356" class="cls-1" d="M431.85,417.16h-2.684v-7.734a3.385,3.385,0,0,0-.586-2.172,2.262,2.262,0,0,0-1.859-.717,2.956,2.956,0,0,0-2.479,1,5.527,5.527,0,0,0-.785,3.355v6.267h-2.673V404.581h2.093l.375,1.649h.136A3.719,3.719,0,0,1,425,404.842a5.414,5.414,0,0,1,2.32-.489q4.527,0,4.527,4.606v8.2Z" transform="translate(1656.426 6598.698)"/>
    <path id="Path_17357" data-name="Path 17357" class="cls-1" d="M439.811,417.387a4.383,4.383,0,0,1-3.674-1.706,9.351,9.351,0,0,1,.017-9.6,4.425,4.425,0,0,1,3.7-1.723,4.335,4.335,0,0,1,3.776,1.831h.136a15.989,15.989,0,0,1-.193-2.138v-4.583h2.684v17.7h-2.093l-.466-1.649h-.125A4.271,4.271,0,0,1,439.811,417.387Zm.717-2.161a2.911,2.911,0,0,0,2.4-.927,4.877,4.877,0,0,0,.773-3.009v-.375a5.642,5.642,0,0,0-.773-3.378,2.87,2.87,0,0,0-2.423-1,2.458,2.458,0,0,0-2.172,1.143,5.854,5.854,0,0,0-.762,3.258,5.708,5.708,0,0,0,.739,3.19A2.492,2.492,0,0,0,440.528,415.226Z" transform="translate(1656.426 6598.698)"/>
    <path id="Path_17358" data-name="Path 17358" class="cls-1" d="M461.239,410.847a6.866,6.866,0,0,1-1.581,4.811,5.667,5.667,0,0,1-4.4,1.729,6.027,6.027,0,0,1-3.116-.8,5.258,5.258,0,0,1-2.081-2.286,7.79,7.79,0,0,1-.728-3.458,6.816,6.816,0,0,1,1.57-4.777,5.689,5.689,0,0,1,4.424-1.717,5.537,5.537,0,0,1,4.322,1.758A6.786,6.786,0,0,1,461.239,410.847Zm-9.156,0q0,4.356,3.219,4.356,3.184,0,3.185-4.356,0-4.311-3.207-4.311a2.733,2.733,0,0,0-2.439,1.115A5.66,5.66,0,0,0,452.083,410.847Z" transform="translate(1656.426 6598.698)"/>
    <path id="Path_17359" data-name="Path 17359" class="cls-1" d="M320.39,436.092h6.119v8.348a17.762,17.762,0,0,1-2.884.694,20.469,20.469,0,0,1-2.985.2,7.5,7.5,0,0,1-5.823-2.235,9,9,0,0,1-2.047-6.306,8.4,8.4,0,0,1,2.309-6.283,8.676,8.676,0,0,1,6.358-2.269,12.386,12.386,0,0,1,4.936,1l-.955,2.263a9.6,9.6,0,0,0-4.049-.933,5.45,5.45,0,0,0-4.208,1.672,6.473,6.473,0,0,0-1.547,4.572,6.826,6.826,0,0,0,1.393,4.635,5.055,5.055,0,0,0,4.01,1.586,13.171,13.171,0,0,0,2.821-.33v-4.288h-3.446v-2.332Z" transform="translate(1656.426 6598.698)"/>
    <path id="Path_17360" data-name="Path 17360" class="cls-1" d="M332.889,445.111h-2.673v-17.7h2.673Z" transform="translate(1656.426 6598.698)"/>
    <path id="Path_17361" data-name="Path 17361" class="cls-1" d="M347.868,438.8a6.866,6.866,0,0,1-1.581,4.811,5.667,5.667,0,0,1-4.4,1.729,6.027,6.027,0,0,1-3.116-.8,5.258,5.258,0,0,1-2.081-2.286,7.79,7.79,0,0,1-.728-3.458,6.816,6.816,0,0,1,1.57-4.777,5.691,5.691,0,0,1,4.424-1.717,5.537,5.537,0,0,1,4.322,1.758A6.784,6.784,0,0,1,347.868,438.8Zm-9.156,0q0,4.356,3.219,4.356,3.184,0,3.185-4.356,0-4.311-3.207-4.311a2.733,2.733,0,0,0-2.439,1.115A5.656,5.656,0,0,0,338.712,438.8Z" transform="translate(1656.426 6598.698)"/>
    <path id="Path_17362" data-name="Path 17362" class="cls-1" d="M357.365,432.3a4.365,4.365,0,0,1,3.668,1.706,9.381,9.381,0,0,1-.017,9.6,4.844,4.844,0,0,1-7.4.006h-.182l-.489,1.49h-2v-17.7h2.673v4.208q0,.467-.046,1.388t-.068,1.171h.114A4.242,4.242,0,0,1,357.365,432.3Zm-.694,2.183a2.719,2.719,0,0,0-2.326.949,5.526,5.526,0,0,0-.733,3.179v.182a5.88,5.88,0,0,0,.728,3.326,2.706,2.706,0,0,0,2.377,1.03,2.407,2.407,0,0,0,2.155-1.126,5.965,5.965,0,0,0,.734-3.253Q359.6,434.49,356.671,434.488Z" transform="translate(1656.426 6598.698)"/>
    <path id="Path_17363" data-name="Path 17363" class="cls-1" d="M373.322,445.111l-.535-1.752H372.7a5.145,5.145,0,0,1-1.831,1.563,5.788,5.788,0,0,1-2.366.415,4.008,4.008,0,0,1-2.895-1,3.747,3.747,0,0,1-1.04-2.832,3.323,3.323,0,0,1,1.444-2.934,8.329,8.329,0,0,1,4.4-1.081l2.172-.068v-.671a2.536,2.536,0,0,0-.563-1.8,2.291,2.291,0,0,0-1.745-.6,6.055,6.055,0,0,0-1.854.284,14.061,14.061,0,0,0-1.706.671l-.864-1.911a9.313,9.313,0,0,1,2.241-.813,10.3,10.3,0,0,1,2.3-.279,5.447,5.447,0,0,1,3.623,1.046,4.1,4.1,0,0,1,1.222,3.287v8.473h-1.911Zm-3.981-1.819a3.311,3.311,0,0,0,2.337-.813,2.948,2.948,0,0,0,.882-2.281v-1.092l-1.615.068a5.534,5.534,0,0,0-2.747.631,1.919,1.919,0,0,0-.858,1.723,1.681,1.681,0,0,0,.5,1.3A2.144,2.144,0,0,0,369.341,443.292Z" transform="translate(1656.426 6598.698)"/>
    <path id="Path_17364" data-name="Path 17364" class="cls-1" d="M381.636,445.111h-2.673v-17.7h2.673Z" transform="translate(1656.426 6598.698)"/>
    <path id="Path_17365" data-name="Path 17365" class="cls-1" d="M401.38,440.6a4.184,4.184,0,0,1-1.6,3.48,6.977,6.977,0,0,1-4.424,1.262,10.557,10.557,0,0,1-4.618-.876v-2.57a12.569,12.569,0,0,0,2.417.842,10.224,10.224,0,0,0,2.382.307,3.788,3.788,0,0,0,2.382-.614,2,2,0,0,0,.768-1.649,2.066,2.066,0,0,0-.7-1.581,10.614,10.614,0,0,0-2.912-1.535,7.7,7.7,0,0,1-3.207-2.1,4.451,4.451,0,0,1-.933-2.843,3.983,3.983,0,0,1,1.479-3.276,6.135,6.135,0,0,1,3.969-1.194,11.672,11.672,0,0,1,4.754,1.046l-.864,2.218a10.386,10.386,0,0,0-3.958-.933,3.037,3.037,0,0,0-2,.575,1.886,1.886,0,0,0-.682,1.518,2.138,2.138,0,0,0,.273,1.109,2.777,2.777,0,0,0,.9.87,15.18,15.18,0,0,0,2.252,1.08,12.309,12.309,0,0,1,2.684,1.422,4.172,4.172,0,0,1,1.251,1.49A4.44,4.44,0,0,1,401.38,440.6Z" transform="translate(1656.426 6598.698)"/>
    <path id="Path_17366" data-name="Path 17366" class="cls-1" d="M409.808,445.339a6.085,6.085,0,0,1-4.59-1.712,6.5,6.5,0,0,1-1.654-4.714,7.131,7.131,0,0,1,1.535-4.845,5.305,5.305,0,0,1,4.22-1.763,5.181,5.181,0,0,1,3.935,1.513,5.779,5.779,0,0,1,1.444,4.163v1.444h-8.382a4.131,4.131,0,0,0,.99,2.815,3.442,3.442,0,0,0,2.627.984,9.657,9.657,0,0,0,2.076-.211,10.815,10.815,0,0,0,2.064-.7v2.172a8.209,8.209,0,0,1-1.979.66A12.209,12.209,0,0,1,409.808,445.339Zm-.489-11.01a2.681,2.681,0,0,0-2.041.808,3.843,3.843,0,0,0-.916,2.354h5.71a3.476,3.476,0,0,0-.751-2.36A2.568,2.568,0,0,0,409.319,434.329Z" transform="translate(1656.426 6598.698)"/>
    <path id="Path_17367" data-name="Path 17367" class="cls-1" d="M424.116,432.3a6.425,6.425,0,0,1,1.331.114l-.262,2.491a5.048,5.048,0,0,0-1.183-.136,3.421,3.421,0,0,0-2.6,1.046,3.781,3.781,0,0,0-1,2.718v6.574h-2.673V432.533h2.093l.353,2.218h.137a4.984,4.984,0,0,1,1.632-1.786A3.875,3.875,0,0,1,424.116,432.3Z" transform="translate(1656.426 6598.698)"/>
    <path id="Path_17368" data-name="Path 17368" class="cls-1" d="M430.644,445.111l-4.777-12.579h2.821l2.559,7.313a14.474,14.474,0,0,1,.8,2.98h.091a20.051,20.051,0,0,1,.8-2.98l2.559-7.313h2.843l-4.8,12.579Z" transform="translate(1656.426 6598.698)"/>
    <path id="Path_17369" data-name="Path 17369" class="cls-1" d="M440.084,429.2a1.474,1.474,0,0,1,.393-1.1,1.527,1.527,0,0,1,1.12-.387,1.357,1.357,0,0,1,1.49,1.49,1.443,1.443,0,0,1-.393,1.074,1.48,1.48,0,0,1-1.1.393,1.509,1.509,0,0,1-1.12-.393A1.448,1.448,0,0,1,440.084,429.2Zm2.832,15.911h-2.673V432.532h2.673Z" transform="translate(1656.426 6598.698)"/>
    <path id="Path_17370" data-name="Path 17370" class="cls-1" d="M451.81,445.339a5.5,5.5,0,0,1-4.339-1.667,8.441,8.441,0,0,1,.068-9.661,5.757,5.757,0,0,1,4.486-1.706,8.409,8.409,0,0,1,3.583.739l-.808,2.15a8.09,8.09,0,0,0-2.8-.66q-3.264,0-3.264,4.333a5.191,5.191,0,0,0,.813,3.179,2.815,2.815,0,0,0,2.383,1.063,6.843,6.843,0,0,0,3.378-.887v2.332a5.292,5.292,0,0,1-1.53.6A9.173,9.173,0,0,1,451.81,445.339Z" transform="translate(1656.426 6598.698)"/>
    <path id="Path_17371" data-name="Path 17371" class="cls-1" d="M463.764,445.339a6.085,6.085,0,0,1-4.59-1.712,6.5,6.5,0,0,1-1.654-4.714,7.131,7.131,0,0,1,1.535-4.845,5.3,5.3,0,0,1,4.22-1.763,5.181,5.181,0,0,1,3.935,1.513,5.779,5.779,0,0,1,1.444,4.163v1.444h-8.382a4.135,4.135,0,0,0,.989,2.815,3.443,3.443,0,0,0,2.627.984,9.657,9.657,0,0,0,2.076-.211,10.815,10.815,0,0,0,2.064-.7v2.172a8.209,8.209,0,0,1-1.979.66A12.191,12.191,0,0,1,463.764,445.339Zm-.489-11.01a2.681,2.681,0,0,0-2.041.808,3.843,3.843,0,0,0-.916,2.354h5.71a3.476,3.476,0,0,0-.751-2.36A2.568,2.568,0,0,0,463.275,434.329Z" transform="translate(1656.426 6598.698)"/>
    <path id="Path_17372" data-name="Path 17372" class="cls-1" d="M475.922,449.752a5.314,5.314,0,0,1-1.865-.284v-2.286a7,7,0,0,0,1.661.239q2.229,0,2.229-2.821V428.484h2.73v16.025a5.633,5.633,0,0,1-1.212,3.895A4.515,4.515,0,0,1,475.922,449.752Z" transform="translate(1656.426 6598.698)"/>
    <path id="Path_17373" data-name="Path 17373" class="cls-1" d="M492.573,445.111l-.535-1.752h-.091a5.145,5.145,0,0,1-1.831,1.563,5.788,5.788,0,0,1-2.366.415,4.008,4.008,0,0,1-2.895-1,3.747,3.747,0,0,1-1.04-2.832,3.323,3.323,0,0,1,1.444-2.934,8.329,8.329,0,0,1,4.4-1.081l2.172-.068v-.671a2.536,2.536,0,0,0-.563-1.8,2.291,2.291,0,0,0-1.745-.6,6.055,6.055,0,0,0-1.854.284,14.061,14.061,0,0,0-1.706.671l-.864-1.911a9.313,9.313,0,0,1,2.241-.813,10.3,10.3,0,0,1,2.3-.279,5.447,5.447,0,0,1,3.623,1.046,4.1,4.1,0,0,1,1.222,3.287v8.473h-1.911Zm-3.981-1.819a3.311,3.311,0,0,0,2.337-.813,2.948,2.948,0,0,0,.882-2.281v-1.092l-1.615.068a5.534,5.534,0,0,0-2.747.631,1.919,1.919,0,0,0-.858,1.723,1.681,1.681,0,0,0,.5,1.3A2.146,2.146,0,0,0,488.592,443.292Z" transform="translate(1656.426 6598.698)"/>
    <path id="Path_17374" data-name="Path 17374" class="cls-1" d="M508.814,445.111H506.13v-7.757a3.516,3.516,0,0,0-.546-2.155,2.015,2.015,0,0,0-1.706-.711,2.6,2.6,0,0,0-2.269,1.007,5.9,5.9,0,0,0-.723,3.349v6.267h-2.673V432.532h2.093l.375,1.649h.136a3.485,3.485,0,0,1,1.519-1.388,4.894,4.894,0,0,1,2.189-.489q2.9,0,3.844,1.979h.182a3.838,3.838,0,0,1,1.57-1.456,4.978,4.978,0,0,1,2.32-.523,4.225,4.225,0,0,1,3.281,1.137,5.039,5.039,0,0,1,1.03,3.469v8.2h-2.673v-7.757a3.494,3.494,0,0,0-.551-2.155,2.034,2.034,0,0,0-1.712-.711,2.658,2.658,0,0,0-2.281.972,5.019,5.019,0,0,0-.722,2.986v6.666Z" transform="translate(1656.426 6598.698)"/>
    <path id="Path_17375" data-name="Path 17375" class="cls-1" d="M528.934,441.529a3.289,3.289,0,0,1-1.342,2.826,6.418,6.418,0,0,1-3.844.984,9.082,9.082,0,0,1-4.038-.762v-2.309a9.922,9.922,0,0,0,4.129,1.024q2.468,0,2.468-1.49a1.18,1.18,0,0,0-.273-.8,3.26,3.26,0,0,0-.9-.66,15.541,15.541,0,0,0-1.74-.773,8.054,8.054,0,0,1-2.94-1.683,3.118,3.118,0,0,1-.767-2.184,2.865,2.865,0,0,1,1.3-2.507,6.178,6.178,0,0,1,3.542-.893,10.032,10.032,0,0,1,4.2.9l-.864,2.013a9.335,9.335,0,0,0-3.423-.842q-2.115,0-2.115,1.206a1.211,1.211,0,0,0,.552,1,12.113,12.113,0,0,0,2.405,1.126,11.023,11.023,0,0,1,2.263,1.1,3.3,3.3,0,0,1,1.046,1.154A3.372,3.372,0,0,1,528.934,441.529Z" transform="translate(1656.426 6598.698)"/>
    <path id="Path_17376" data-name="Path 17376" class="cls-1" d="M318.8,473.29a6.085,6.085,0,0,1-4.59-1.712,6.5,6.5,0,0,1-1.654-4.714,7.131,7.131,0,0,1,1.535-4.845,5.305,5.305,0,0,1,4.22-1.763,5.181,5.181,0,0,1,3.935,1.513,5.781,5.781,0,0,1,1.444,4.163v1.444h-8.382a4.131,4.131,0,0,0,.99,2.815,3.442,3.442,0,0,0,2.627.984,9.657,9.657,0,0,0,2.076-.211,10.885,10.885,0,0,0,2.064-.7v2.172a8.209,8.209,0,0,1-1.979.66A12.125,12.125,0,0,1,318.8,473.29Zm-.489-11.009a2.684,2.684,0,0,0-2.041.807,3.843,3.843,0,0,0-.916,2.354h5.709a3.476,3.476,0,0,0-.751-2.36A2.566,2.566,0,0,0,318.308,462.281Z" transform="translate(1656.426 6598.698)"/>
    <path id="Path_17377" data-name="Path 17377" class="cls-1" d="M337.791,473.063h-2.684v-7.734a3.385,3.385,0,0,0-.586-2.172,2.263,2.263,0,0,0-1.859-.717,2.956,2.956,0,0,0-2.479,1,5.527,5.527,0,0,0-.785,3.355v6.267h-2.673V460.484h2.093l.375,1.649h.137a3.719,3.719,0,0,1,1.615-1.388,5.414,5.414,0,0,1,2.32-.489q4.527,0,4.527,4.606v8.2Z" transform="translate(1656.426 6598.698)"/>
    <path id="Path_17378" data-name="Path 17378" class="cls-1" d="M358.161,473.063l-1.661-4.618h-6.358l-1.626,4.618H345.65l6.221-16.7h2.957l6.221,16.7Zm-2.377-6.961-1.558-4.527q-.171-.455-.472-1.433t-.415-1.433a25.389,25.389,0,0,1-.9,3.059l-1.5,4.333h4.845Z" transform="translate(1656.426 6598.698)"/>
    <path id="Path_17379" data-name="Path 17379" class="cls-1" d="M369.341,460.256a6.425,6.425,0,0,1,1.331.114l-.262,2.491a5.048,5.048,0,0,0-1.183-.137,3.421,3.421,0,0,0-2.6,1.046,3.781,3.781,0,0,0-1,2.718v6.574H362.96V460.483h2.093l.353,2.218h.137a4.984,4.984,0,0,1,1.632-1.786A3.882,3.882,0,0,1,369.341,460.256Z" transform="translate(1656.426 6598.698)"/>
    <path id="Path_17380" data-name="Path 17380" class="cls-1" d="M383.626,460.484v1.467l-2.15.4a3.467,3.467,0,0,1,.489.978,3.856,3.856,0,0,1,.193,1.228,3.761,3.761,0,0,1-1.342,3.059,5.617,5.617,0,0,1-3.7,1.115,5.963,5.963,0,0,1-1.092-.091,1.5,1.5,0,0,0-.864,1.251.694.694,0,0,0,.4.648,3.494,3.494,0,0,0,1.485.216h2.2a4.882,4.882,0,0,1,3.162.887,3.121,3.121,0,0,1,1.081,2.559,3.721,3.721,0,0,1-1.763,3.3,9.285,9.285,0,0,1-5.1,1.16,7.027,7.027,0,0,1-3.924-.91,2.942,2.942,0,0,1-1.353-2.593,2.761,2.761,0,0,1,.733-1.95,3.939,3.939,0,0,1,2.053-1.1,2,2,0,0,1-.881-.734,1.9,1.9,0,0,1,.051-2.257,4.6,4.6,0,0,1,1.183-.967,3.505,3.505,0,0,1-1.587-1.371,4.475,4.475,0,0,1,.682-5.4,5.427,5.427,0,0,1,3.68-1.126,9.015,9.015,0,0,1,1.12.074,7.024,7.024,0,0,1,.882.153h4.355Zm-9.883,14.535a1.47,1.47,0,0,0,.779,1.331,4.283,4.283,0,0,0,2.19.466,6.6,6.6,0,0,0,3.253-.626,1.875,1.875,0,0,0,1.069-1.661,1.245,1.245,0,0,0-.585-1.165,4.7,4.7,0,0,0-2.178-.347h-2.024a2.842,2.842,0,0,0-1.825.54A1.766,1.766,0,0,0,373.743,475.019Zm1.148-10.464a2.53,2.53,0,0,0,.608,1.82,2.3,2.3,0,0,0,1.746.637q2.32,0,2.32-2.479a2.818,2.818,0,0,0-.574-1.894,2.186,2.186,0,0,0-1.746-.665,2.249,2.249,0,0,0-1.757.66A2.77,2.77,0,0,0,374.891,464.555Z" transform="translate(1656.426 6598.698)"/>
    <path id="Path_17381" data-name="Path 17381" class="cls-1" d="M391.451,473.29a6.085,6.085,0,0,1-4.59-1.712,6.5,6.5,0,0,1-1.654-4.714,7.131,7.131,0,0,1,1.535-4.845,5.3,5.3,0,0,1,4.22-1.763,5.181,5.181,0,0,1,3.935,1.513,5.779,5.779,0,0,1,1.444,4.163v1.444h-8.382a4.131,4.131,0,0,0,.99,2.815,3.443,3.443,0,0,0,2.627.984,9.657,9.657,0,0,0,2.076-.211,10.885,10.885,0,0,0,2.064-.7v2.172a8.209,8.209,0,0,1-1.979.66A12.125,12.125,0,0,1,391.451,473.29Zm-.489-11.009a2.684,2.684,0,0,0-2.041.807,3.843,3.843,0,0,0-.916,2.354h5.71a3.476,3.476,0,0,0-.751-2.36A2.569,2.569,0,0,0,390.962,462.281Z" transform="translate(1656.426 6598.698)"/>
    <path id="Path_17382" data-name="Path 17382" class="cls-1" d="M410.445,473.063h-2.684v-7.734a3.385,3.385,0,0,0-.586-2.172,2.262,2.262,0,0,0-1.859-.717,2.956,2.956,0,0,0-2.479,1,5.527,5.527,0,0,0-.785,3.355v6.267h-2.673V460.484h2.093l.375,1.649h.136a3.719,3.719,0,0,1,1.615-1.388,5.414,5.414,0,0,1,2.32-.489q4.527,0,4.527,4.606v8.2Z" transform="translate(1656.426 6598.698)"/>
    <path id="Path_17383" data-name="Path 17383" class="cls-1" d="M418.85,471.129a6.489,6.489,0,0,0,1.956-.307v2.013a5.426,5.426,0,0,1-1.143.325,7.973,7.973,0,0,1-1.45.13q-3.8,0-3.8-4v-6.779H412.7v-1.183l1.843-.978.91-2.661H417.1v2.8h3.583v2.024H417.1v6.733a1.883,1.883,0,0,0,.484,1.427A1.754,1.754,0,0,0,418.85,471.129Z" transform="translate(1656.426 6598.698)"/>
    <path id="Path_17384" data-name="Path 17384" class="cls-1" d="M423.161,457.151a1.474,1.474,0,0,1,.393-1.1,1.527,1.527,0,0,1,1.12-.387,1.357,1.357,0,0,1,1.49,1.49,1.443,1.443,0,0,1-.393,1.074,1.48,1.48,0,0,1-1.1.393,1.509,1.509,0,0,1-1.12-.393A1.443,1.443,0,0,1,423.161,457.151Zm2.832,15.912H423.32V460.484h2.673Z" transform="translate(1656.426 6598.698)"/>
    <path id="Path_17385" data-name="Path 17385" class="cls-1" d="M440.88,473.063H438.2v-7.734a3.385,3.385,0,0,0-.586-2.172,2.263,2.263,0,0,0-1.859-.717,2.956,2.956,0,0,0-2.479,1,5.527,5.527,0,0,0-.785,3.355v6.267h-2.673V460.484h2.093l.375,1.649h.136a3.719,3.719,0,0,1,1.615-1.388,5.414,5.414,0,0,1,2.32-.489q4.527,0,4.527,4.606v8.2Z" transform="translate(1656.426 6598.698)"/>
    <path id="Path_17386" data-name="Path 17386" class="cls-1" d="M452.47,473.063l-.535-1.752h-.091a5.145,5.145,0,0,1-1.831,1.563,5.788,5.788,0,0,1-2.366.415,4.008,4.008,0,0,1-2.895-1,3.747,3.747,0,0,1-1.04-2.832,3.325,3.325,0,0,1,1.444-2.934,8.327,8.327,0,0,1,4.4-1.08l2.172-.068V464.7a2.536,2.536,0,0,0-.563-1.8,2.291,2.291,0,0,0-1.745-.6,6.055,6.055,0,0,0-1.854.284,14.061,14.061,0,0,0-1.706.671L445,461.348a9.313,9.313,0,0,1,2.241-.813,10.3,10.3,0,0,1,2.3-.279,5.447,5.447,0,0,1,3.623,1.046,4.1,4.1,0,0,1,1.222,3.287v8.473H452.47Zm-3.981-1.82a3.311,3.311,0,0,0,2.337-.813,2.948,2.948,0,0,0,.882-2.281v-1.092l-1.615.068a5.534,5.534,0,0,0-2.747.631,1.919,1.919,0,0,0-.858,1.723,1.681,1.681,0,0,0,.5,1.3A2.141,2.141,0,0,0,448.489,471.243Z" transform="translate(1656.426 6598.698)"/>
  </g>
</svg>
