<?xml version="1.0" encoding="utf-8"?>
<!-- Generator: Adobe Illustrator 22.1.0, SVG Export Plug-In . SVG Version: 6.00 Build 0)  -->
<svg version="1.1" id="Layer_1" xmlns="http://www.w3.org/2000/svg" xmlns:xlink="http://www.w3.org/1999/xlink" x="0px" y="0px"
	 viewBox="0 0 122.4 30.8" style="enable-background:new 0 0 122.4 30.8;" xml:space="preserve">
<style type="text/css">
	.st0{enable-background:new    ;}
	.st1{fill:#FFFFFF;}
	.st2{fill:none;stroke:#FFFFFF;stroke-width:3;}
</style>
<g id="Group_11" transform="translate(-428.556 -33)">
	<g class="st0">
		<path class="st1" d="M492.4,45.7c-0.2-0.1-0.6-0.2-1-0.3s-1-0.1-1.5-0.1c-0.3,0-0.7,0-1.1,0.1c-0.4,0.1-0.6,0.1-0.8,0.2V56h-3
			V43.5c0.6-0.2,1.3-0.4,2.2-0.6s1.8-0.3,2.9-0.3c0.2,0,0.4,0,0.7,0c0.3,0,0.5,0.1,0.8,0.1c0.3,0,0.5,0.1,0.8,0.2s0.5,0.1,0.6,0.2
			L492.4,45.7z"/>
		<path class="st1" d="M493,49.5c0-1.2,0.2-2.2,0.5-3c0.3-0.9,0.8-1.6,1.4-2.2c0.6-0.6,1.2-1,2-1.3c0.7-0.3,1.5-0.4,2.2-0.4
			c1.8,0,3.2,0.6,4.2,1.7c1,1.1,1.5,2.8,1.5,5c0,0.2,0,0.4,0,0.6c0,0.2,0,0.4,0,0.6h-8.6c0.1,1,0.5,1.9,1.1,2.4
			c0.7,0.6,1.6,0.9,2.9,0.9c0.7,0,1.4-0.1,2-0.2c0.6-0.1,1.1-0.3,1.4-0.4l0.4,2.5c-0.2,0.1-0.4,0.2-0.7,0.3c-0.3,0.1-0.6,0.2-1,0.2
			s-0.8,0.1-1.2,0.2s-0.9,0.1-1.3,0.1c-1.1,0-2.1-0.2-3-0.5c-0.8-0.3-1.5-0.8-2.1-1.4s-1-1.3-1.2-2.2C493.1,51.4,493,50.5,493,49.5z
			 M501.8,48.2c0-0.4-0.1-0.8-0.2-1.2c-0.1-0.4-0.3-0.7-0.5-1c-0.2-0.3-0.5-0.5-0.8-0.7c-0.3-0.2-0.7-0.2-1.2-0.2
			c-0.5,0-0.9,0.1-1.2,0.3s-0.6,0.4-0.9,0.7s-0.4,0.6-0.6,1c-0.1,0.4-0.2,0.7-0.3,1.1H501.8z"/>
		<path class="st1" d="M514.5,47.8c-0.4,1.5-0.8,2.9-1.2,4.3s-0.9,2.7-1.3,3.9h-2.5c-0.3-0.8-0.7-1.6-1.1-2.6s-0.7-2-1.1-3.2
			c-0.4-1.1-0.7-2.3-1.1-3.5s-0.7-2.5-1.1-3.8h3.2c0.2,0.7,0.3,1.5,0.5,2.3c0.2,0.8,0.4,1.6,0.6,2.5c0.2,0.8,0.4,1.7,0.7,2.5
			s0.5,1.5,0.7,2.2c0.2-0.8,0.5-1.6,0.7-2.4s0.5-1.6,0.7-2.5c0.2-0.8,0.4-1.6,0.6-2.4c0.2-0.8,0.4-1.5,0.5-2.2h2.3
			c0.1,0.7,0.3,1.4,0.5,2.2c0.2,0.8,0.4,1.6,0.6,2.4s0.4,1.6,0.7,2.5c0.2,0.8,0.5,1.6,0.7,2.4c0.2-0.7,0.4-1.4,0.7-2.2
			s0.5-1.6,0.7-2.5c0.2-0.8,0.4-1.7,0.6-2.5s0.4-1.6,0.5-2.3h3.1c-0.4,1.3-0.7,2.5-1.1,3.8s-0.7,2.4-1.1,3.5
			c-0.4,1.1-0.7,2.2-1.1,3.2s-0.7,1.9-1.1,2.6h-2.5c-0.4-1.2-0.9-2.5-1.3-3.9S514.9,49.2,514.5,47.8z"/>
		<path class="st1" d="M524.1,49.5c0-1.2,0.2-2.2,0.5-3c0.3-0.9,0.8-1.6,1.4-2.2c0.6-0.6,1.2-1,2-1.3c0.7-0.3,1.5-0.4,2.2-0.4
			c1.8,0,3.2,0.6,4.2,1.7c1,1.1,1.5,2.8,1.5,5c0,0.2,0,0.4,0,0.6c0,0.2,0,0.4,0,0.6h-8.6c0.1,1,0.5,1.9,1.1,2.4
			c0.7,0.6,1.6,0.9,2.9,0.9c0.7,0,1.4-0.1,2-0.2c0.6-0.1,1.1-0.3,1.4-0.4l0.4,2.5c-0.2,0.1-0.4,0.2-0.7,0.3c-0.3,0.1-0.6,0.2-1,0.2
			s-0.8,0.1-1.2,0.2s-0.9,0.1-1.3,0.1c-1.1,0-2.1-0.2-3-0.5c-0.8-0.3-1.5-0.8-2.1-1.4s-1-1.3-1.2-2.2
			C524.3,51.4,524.1,50.5,524.1,49.5z M532.9,48.2c0-0.4-0.1-0.8-0.2-1.2c-0.1-0.4-0.3-0.7-0.5-1c-0.2-0.3-0.5-0.5-0.8-0.7
			c-0.3-0.2-0.7-0.2-1.2-0.2c-0.5,0-0.9,0.1-1.2,0.3s-0.6,0.4-0.9,0.7s-0.4,0.6-0.6,1c-0.1,0.4-0.2,0.7-0.3,1.1H532.9z"/>
		<path class="st1" d="M549.6,49.5c0,1.1-0.2,2-0.5,2.8s-0.8,1.6-1.3,2.2c-0.6,0.6-1.3,1.1-2.1,1.4c-0.8,0.3-1.7,0.5-2.8,0.5
			c-1,0-2-0.1-2.9-0.2c-0.9-0.1-1.7-0.3-2.3-0.5V37.1l3-0.5v6.8c0.3-0.2,0.8-0.3,1.3-0.5c0.5-0.2,1.1-0.2,1.7-0.2
			c0.9,0,1.7,0.2,2.5,0.5c0.7,0.3,1.3,0.8,1.8,1.4c0.5,0.6,0.9,1.3,1.1,2.2C549.5,47.5,549.6,48.5,549.6,49.5z M546.5,49.4
			c0-1.3-0.3-2.3-0.8-3c-0.5-0.8-1.3-1.1-2.4-1.1c-0.5,0-1,0.1-1.4,0.2c-0.4,0.2-0.8,0.3-1.1,0.5v7.5c0.2,0,0.5,0.1,0.8,0.1
			s0.8,0.1,1.2,0.1c1.1,0,2-0.4,2.6-1.1C546.2,51.8,546.5,50.8,546.5,49.4z"/>
	</g>
	<path id="Path_26" class="st2" d="M430.3,48.5l8,13.8h16l8-13.8l-8-13.8h-16L430.3,48.5z"/>
	<path id="Path_28" class="st2" d="M441.2,48.5l8,13.8h16l8-13.8l-8-13.8h-16L441.2,48.5z"/>
</g>
</svg>
