<svg xmlns="http://www.w3.org/2000/svg" viewBox="0 0 147.216 811.536">
  <defs>
    <style>
      .cls-1, .cls-3 {
        fill: none;
      }

      .cls-1 {
        stroke: #e2e2e2;
        stroke-width: 5px;
      }

      .cls-2 {
        fill: #1d6f82;
      }

      .cls-3 {
        stroke: #fff;
        stroke-width: 3px;
      }
    </style>
  </defs>
  <g id="software-factory" transform="translate(-366 -649.5)">
    <path id="Path_87" data-name="Path 87" class="cls-1" d="M0,0V811.536" transform="translate(439.5 649.5)"/>
    <g id="software-factory-2" data-name="software-factory" transform="translate(-42.559)">
      <path id="Path_63" data-name="Path 63" class="cls-2" d="M49.071,0,0,28.332V85l49.071,28.332L98.142,85V28.332Z" transform="translate(457.63 846.829) rotate(-120)"/>
      <g id="Group_7" data-name="Group 7" transform="translate(-1798.161 -1394.75)">
        <path id="Path_47" data-name="Path 47" class="cls-3" d="M37.648,7.591,31.456,1.4,25.265,7.591,19.074,1.4,12.883,7.591,6.691,1.4.5,7.591" transform="translate(2254.5 2155.35)"/>
        <path id="Path_49" data-name="Path 49" class="cls-3" d="M39.638,11.491,33.447,5.3l-6.191,6.191L21.064,5.3l-6.191,6.191L8.682,5.3,2.8,11.491" transform="translate(2259.32 2163.523)"/>
        <path id="Path_51" data-name="Path 51" class="cls-3" d="M41.938,15.391,35.747,9.2l-6.191,6.191L23.364,9.2l-5.882,6.191L11.291,9.2,5.1,15.391" transform="translate(2264.14 2171.696)"/>
      </g>
    </g>
  </g>
</svg>
