<svg xmlns="http://www.w3.org/2000/svg" viewBox="0 0 35 35">
  <defs>
    <style>
      .cls-1 {
        fill: #fff;
      }

      .cls-2 {
        fill: #56acee;
      }
    </style>
  </defs>
  <g id="twitter" transform="translate(-2571 -3176)">
    <rect id="Rectangle_82" data-name="Rectangle 82" class="cls-1" width="35" height="35" rx="17.5" transform="translate(2571 3176)"/>
    <g id="Group_22" data-name="Group 22" transform="translate(2290.485 3040.33)">
      <path id="Path_14575" data-name="Path 14575" class="cls-2" d="M308.829,147.738a1.918,1.918,0,0,1-1.95,0,2.451,2.451,0,0,0,1.152-1.772,9.047,9.047,0,0,1-2.57.975,3.876,3.876,0,0,0-2.925-1.241,3.972,3.972,0,0,0-3.988,3.988,2.732,2.732,0,0,0,.089.886,11.705,11.705,0,0,1-8.331-4.165,4.117,4.117,0,0,0-.532,2.038,4.034,4.034,0,0,0,1.772,3.368,3.723,3.723,0,0,1-1.861-.532v.089a4.175,4.175,0,0,0,3.19,3.988,4.407,4.407,0,0,1-1.861.089,4.2,4.2,0,0,0,3.722,2.836,8.088,8.088,0,0,1-5.938,1.684,11.5,11.5,0,0,0,17.636-9.66v-.532A9.309,9.309,0,0,0,308.829,147.738Z"/>
    </g>
  </g>
</svg>
